<svg width="34" height="34" viewBox="0 0 34 34" fill="none" xmlns="http://www.w3.org/2000/svg">
<circle cx="17" cy="17" r="16.5" fill="#070707" stroke="#F25C05"/>
<path d="M12.176 13.28L9.632 14.928L8.88 13.712L12.304 11.44H13.808V22H12.176V13.28ZM19.7059 22.176C17.1032 22.176 15.8019 21.2 15.8019 19.248C15.8019 18.6293 15.9352 18.1067 16.2019 17.68C16.4685 17.2533 16.8739 16.864 17.4179 16.512C16.9059 16.2027 16.5379 15.8667 16.3139 15.504C16.0899 15.1307 15.9779 14.6773 15.9779 14.144C15.9779 13.6213 16.0952 13.1787 16.3299 12.816C16.5752 12.4427 16.8792 12.144 17.2419 11.92C17.6152 11.6853 18.0205 11.5147 18.4579 11.408C18.9059 11.3013 19.3379 11.248 19.7539 11.248C20.2552 11.248 20.7352 11.3067 21.1939 11.424C21.6525 11.5413 22.0632 11.7227 22.4259 11.968C22.7885 12.2027 23.0765 12.5013 23.2899 12.864C23.5032 13.2267 23.6099 13.6533 23.6099 14.144C23.6099 14.432 23.5832 14.688 23.5299 14.912C23.4765 15.136 23.3912 15.3387 23.2739 15.52C23.1565 15.7013 23.0019 15.872 22.8099 16.032C22.6179 16.192 22.3832 16.352 22.1059 16.512C22.6712 16.832 23.0872 17.1947 23.3539 17.6C23.6312 17.9947 23.7699 18.5013 23.7699 19.12C23.7699 20.144 23.4232 20.912 22.7299 21.424C22.0472 21.9253 21.0392 22.176 19.7059 22.176ZM20.5379 15.872C20.9965 15.6907 21.3325 15.472 21.5459 15.216C21.7592 14.96 21.8659 14.64 21.8659 14.256C21.8659 13.2427 21.1779 12.736 19.8019 12.736C18.4152 12.736 17.7219 13.248 17.7219 14.272C17.7219 14.6453 17.8232 14.96 18.0259 15.216C18.2285 15.472 18.5432 15.6907 18.9699 15.872H20.5379ZM19.7859 20.688C21.2792 20.688 22.0259 20.112 22.0259 18.96C22.0259 18.5013 21.9032 18.1547 21.6579 17.92C21.4232 17.6747 21.0499 17.472 20.5379 17.312H18.9699C18.4899 17.4613 18.1325 17.6693 17.8979 17.936C17.6739 18.192 17.5619 18.5387 17.5619 18.976C17.5619 20.1173 18.3032 20.688 19.7859 20.688Z" fill="#F7F7F7"/>
</svg>
