<svg width="194" height="61" viewBox="0 0 194 61" fill="none" xmlns="http://www.w3.org/2000/svg">
<path d="M2.08051 40.4934L28.3329 2.7061H49.6895V40.4934H58.9029V48.7761H49.6895V59.4252H28.8341V48.7761L6.86068 48.7379H2.08051V40.4934ZM28.8341 40.4934V15.4164L12.2962 40.4934H28.8341Z" fill="#F7F7F7"/>
<path d="M69.3114 30.9511C69.3114 26.3454 69.9282 22.2359 71.1618 18.6226C72.421 15.0092 74.2586 11.9557 76.6744 9.462C79.1159 6.9683 82.1356 5.07257 85.7336 3.77483C89.3316 2.45164 93.4821 1.79004 98.1852 1.79004C102.888 1.79004 107.039 2.45164 110.637 3.77483C114.235 5.07257 117.242 6.9683 119.657 9.462C122.099 11.9557 123.936 15.0092 125.17 18.6226C126.429 22.2359 127.059 26.3454 127.059 30.9511C127.059 35.5569 126.429 39.6664 125.17 43.2797C123.936 46.8931 122.099 49.9466 119.657 52.4403C117.242 54.934 114.235 56.8424 110.637 58.1656C107.039 59.4634 102.888 60.1122 98.1852 60.1122C93.4821 60.1122 89.3316 59.4634 85.7336 58.1656C82.1356 56.8424 79.1159 54.934 76.6744 52.4403C74.2586 49.9466 72.421 46.8931 71.1618 43.2797C69.9282 39.6664 69.3114 35.5569 69.3114 30.9511ZM98.1852 53.051C98.8277 53.051 99.4573 52.9492 100.074 52.7456C100.691 52.5166 101.269 52.1095 101.809 51.5242C102.349 50.939 102.837 50.1374 103.274 49.1196C103.736 48.0763 104.122 46.7404 104.43 45.1118C104.764 43.4578 105.021 41.4731 105.201 39.1575C105.381 36.8419 105.471 34.1064 105.471 30.9511C105.471 27.7958 105.381 25.0604 105.201 22.7448C105.021 20.4292 104.764 18.4572 104.43 16.8286C104.122 15.1746 103.736 13.8387 103.274 12.8209C102.837 11.7776 102.349 10.9633 101.809 10.3781C101.269 9.7928 100.691 9.39839 100.074 9.19482C99.4573 8.96581 98.8277 8.8513 98.1852 8.8513C97.5427 8.8513 96.913 8.96581 96.2962 9.19482C95.6794 9.39839 95.1012 9.7928 94.5615 10.3781C94.0218 10.9633 93.5206 11.7776 93.058 12.8209C92.6211 13.8387 92.2356 15.1746 91.9015 16.8286C91.5931 18.4572 91.349 20.4292 91.1691 22.7448C90.9892 25.0604 90.8992 27.7958 90.8992 30.9511C90.8992 34.1064 90.9892 36.8419 91.1691 39.1575C91.349 41.4731 91.5931 43.4578 91.9015 45.1118C92.2356 46.7404 92.6211 48.0763 93.058 49.1196C93.5206 50.1374 94.0218 50.939 94.5615 51.5242C95.1012 52.1095 95.6794 52.5166 96.2962 52.7456C96.913 52.9492 97.5427 53.051 98.1852 53.051Z" fill="#F7F7F7"/>
<path d="M136.851 40.4934L163.103 2.7061H184.46V40.4934H193.673V48.7761H184.46V59.4252H163.604V48.7761L141.631 48.7379H136.851V40.4934ZM163.604 40.4934V15.4164L147.066 40.4934H163.604Z" fill="#F7F7F7"/>
<path d="M0 38.7033L26.2524 0.916056H47.609V38.7033H56.8224V46.986H47.609V57.6352H26.7536V46.986L4.78018 46.9478H0V38.7033ZM26.7536 38.7033V13.6263L10.2157 38.7033H26.7536Z" fill="#2E2E2E"/>
<path d="M67.2309 29.1611C67.2309 24.5554 67.8476 20.4459 69.0812 16.8325C70.3405 13.2192 72.1781 10.1657 74.5939 7.67197C77.0354 5.17826 80.0551 3.28253 83.6531 1.98479C87.2511 0.661597 91.4016 0 96.1047 0C100.808 0 104.958 0.661597 108.556 1.98479C112.154 3.28253 115.161 5.17826 117.577 7.67197C120.018 10.1657 121.856 13.2192 123.09 16.8325C124.349 20.4459 124.978 24.5554 124.978 29.1611C124.978 33.7668 124.349 37.8764 123.09 41.4897C121.856 45.103 120.018 48.1565 117.577 50.6502C115.161 53.144 112.154 55.0524 108.556 56.3756C104.958 57.6733 100.808 58.3222 96.1047 58.3222C91.4016 58.3222 87.2511 57.6733 83.6531 56.3756C80.0551 55.0524 77.0354 53.144 74.5939 50.6502C72.1781 48.1565 70.3405 45.103 69.0812 41.4897C67.8476 37.8764 67.2309 33.7668 67.2309 29.1611ZM96.1047 51.2609C96.7472 51.2609 97.3768 51.1592 97.9936 50.9556C98.6104 50.7266 99.1886 50.3194 99.7283 49.7342C100.268 49.1489 100.756 48.3474 101.193 47.3295C101.656 46.2863 102.041 44.9503 102.35 43.3218C102.684 41.6678 102.941 39.683 103.121 37.3674C103.301 35.0518 103.391 32.3164 103.391 29.1611C103.391 26.0058 103.301 23.2704 103.121 20.9548C102.941 18.6392 102.684 16.6671 102.35 15.0386C102.041 13.3846 101.656 12.0487 101.193 11.0308C100.756 9.98755 100.268 9.17328 99.7283 8.58802C99.1886 8.00276 98.6104 7.60835 97.9936 7.40478C97.3768 7.17577 96.7472 7.06126 96.1047 7.06126C95.4622 7.06126 94.8325 7.17577 94.2157 7.40478C93.5989 7.60835 93.0207 8.00276 92.481 8.58802C91.9413 9.17328 91.4401 9.98755 90.9775 11.0308C90.5406 12.0487 90.1551 13.3846 89.821 15.0386C89.5126 16.6671 89.2685 18.6392 89.0886 20.9548C88.9087 23.2704 88.8187 26.0058 88.8187 29.1611C88.8187 32.3164 88.9087 35.0518 89.0886 37.3674C89.2685 39.683 89.5126 41.6678 89.821 43.3218C90.1551 44.9503 90.5406 46.2863 90.9775 47.3295C91.4401 48.3474 91.9413 49.1489 92.481 49.7342C93.0207 50.3194 93.5989 50.7266 94.2157 50.9556C94.8325 51.1592 95.4622 51.2609 96.1047 51.2609Z" fill="#2E2E2E"/>
<path d="M134.77 38.7033L161.023 0.916056H182.379V38.7033H191.593V46.986H182.379V57.6352H161.524V46.986L139.55 46.9478H134.77V38.7033ZM161.524 38.7033V13.6263L144.986 38.7033H161.524Z" fill="#2E2E2E"/>
</svg>
