<svg width="226" height="312" viewBox="0 0 226 312" fill="none" xmlns="http://www.w3.org/2000/svg">
<path d="M0 300.5L99.4737 169.815H121.93L226 300.5H0Z" fill="url(#paint0_linear_104_1787)"/>
<path d="M109.574 97.0901L109.574 3.23621" stroke="#D4D4D4" stroke-width="0.4808" stroke-miterlimit="10"/>
<path d="M190.362 178.127L130.924 142.124C131.943 141.105 132.962 139.747 132.962 138.049C132.962 136.35 131.943 134.652 130.584 133.633V88.4598H94.9209V133.633C93.5623 134.652 92.5433 136.011 92.5433 138.049C92.5433 139.747 93.2226 141.105 94.5812 142.124L34.803 178.127H190.362Z" fill="#F25C05"/>
<path d="M130.924 142.124C131.943 141.105 132.962 139.747 132.962 138.049C132.962 136.35 131.943 134.652 130.584 133.633V88.4598H111.564V133.633C112.922 134.652 113.941 136.011 113.941 138.049C113.941 139.747 113.262 141.105 111.903 142.124L171.342 178.127H190.362L130.924 142.124Z" fill="#331402"/>
<g opacity="0.2">
<path d="M141.793 148.578L130.924 142.125C129.905 142.804 128.886 143.483 127.527 143.483H104.431L141.793 148.578Z" fill="black"/>
</g>
<path d="M119.656 2.71672C119.656 4.07532 115.24 5.09426 110.145 5.09426C104.711 5.09426 100.635 4.07532 100.635 2.71672C100.635 1.35813 105.051 0.339164 110.145 0.339164C115.24 -0.000485241 119.656 1.35813 119.656 2.71672Z" fill="#D4D4D4"/>
<path d="M123.925 259.783L124.081 259.953L124.089 259.945L123.925 259.783ZM123.853 259.853L123.69 259.69L123.69 259.69L123.853 259.853ZM123.783 259.926L123.945 260.089L123.952 260.081L123.783 259.926ZM125.411 264.68L125.573 264.517C125.49 264.434 125.356 264.427 125.265 264.503L125.411 264.68ZM128.68 261.411L128.503 261.265C128.427 261.356 128.434 261.49 128.517 261.573L128.68 261.411ZM139.301 275.301L139.463 275.464L139.301 275.301ZM136.032 275.301L136.194 275.139L136.032 275.301ZM110.099 226.415C99.2278 226.415 90.4152 235.228 90.4152 246.099H90.8749C90.8749 235.482 99.4817 226.875 110.099 226.875V226.415ZM129.782 246.099C129.782 235.228 120.97 226.415 110.099 226.415V226.875C120.716 226.875 129.323 235.482 129.323 246.099H129.782ZM124.089 259.945C127.608 256.389 129.782 251.497 129.782 246.099H129.323C129.323 251.372 127.2 256.148 123.762 259.622L124.089 259.945ZM124.015 260.015C124.037 259.994 124.059 259.973 124.081 259.953L123.77 259.614C123.743 259.639 123.716 259.664 123.69 259.69L124.015 260.015ZM123.952 260.081C123.973 260.059 123.994 260.037 124.015 260.015L123.69 259.69C123.664 259.717 123.639 259.743 123.614 259.77L123.952 260.081ZM110.099 265.782C115.497 265.782 120.389 263.608 123.945 260.089L123.622 259.762C120.148 263.2 115.372 265.323 110.099 265.323V265.782ZM90.4152 246.099C90.4152 256.97 99.2278 265.782 110.099 265.782V265.323C99.4817 265.323 90.8749 256.716 90.8749 246.099H90.4152ZM125.265 264.503C121.143 267.903 115.86 269.946 110.099 269.946V270.405C115.97 270.405 121.356 268.323 125.557 264.857L125.265 264.503ZM110.099 269.946C96.9284 269.946 86.2518 259.269 86.2518 246.099H85.7922C85.7922 259.523 96.6746 270.405 110.099 270.405V269.946ZM86.2518 246.099C86.2518 232.928 96.9284 222.252 110.099 222.252V221.792C96.6746 221.792 85.7922 232.674 85.7922 246.099H86.2518ZM110.099 222.252C123.269 222.252 133.946 232.928 133.946 246.099H134.405C134.405 232.674 123.523 221.792 110.099 221.792V222.252ZM133.946 246.099C133.946 251.86 131.903 257.143 128.503 261.265L128.857 261.557C132.323 257.356 134.405 251.97 134.405 246.099H133.946ZM128.517 261.573L139.138 272.195L139.463 271.87L128.842 261.248L128.517 261.573ZM139.138 272.195C139.951 273.008 139.951 274.326 139.138 275.139L139.463 275.464C140.456 274.471 140.456 272.862 139.463 271.87L139.138 272.195ZM139.138 275.139C138.326 275.952 137.007 275.952 136.194 275.139L135.869 275.464C136.862 276.456 138.471 276.456 139.463 275.464L139.138 275.139ZM136.194 275.139L125.573 264.517L125.248 264.842L135.869 275.464L136.194 275.139Z" fill="#F7F7F7"/>
<path fill-rule="evenodd" clip-rule="evenodd" d="M105.595 238.02C104.608 237.033 103.007 237.033 102.02 238.02C101.033 239.007 101.033 240.608 102.02 241.595L106.667 246.242L102.02 250.89C101.033 251.877 101.033 253.477 102.02 254.465C103.007 255.452 104.608 255.452 105.595 254.465L110.242 249.817L114.89 254.465C115.877 255.452 117.477 255.452 118.465 254.465C119.452 253.477 119.452 251.877 118.465 250.89L113.817 246.242L118.465 241.595C119.452 240.608 119.452 239.007 118.465 238.02C117.477 237.033 115.877 237.033 114.89 238.02L110.242 242.667L105.595 238.02Z" fill="#F7F7F7"/>
<path d="M11.976 296.688H12.312C12.376 296.688 12.4293 296.715 12.472 296.768C12.5147 296.811 12.536 296.864 12.536 296.928V297.776C12.536 297.925 12.4613 298 12.312 298H12.008C11.6027 298 11.2347 297.899 10.904 297.696C10.5733 297.483 10.3067 297.184 10.104 296.8C9.89067 297.184 9.60267 297.483 9.24 297.696C8.888 297.899 8.50933 298 8.104 298H5.912C5.67733 298 5.45333 297.957 5.24 297.872C5.03733 297.776 4.856 297.648 4.696 297.488C4.54667 297.328 4.424 297.147 4.328 296.944C4.24267 296.731 4.2 296.507 4.2 296.272V294.576H5.144V295.984C5.144 296.176 5.19733 296.341 5.304 296.48C5.41067 296.619 5.57067 296.688 5.784 296.688H8.12C8.344 296.688 8.54667 296.64 8.728 296.544C8.90933 296.448 9.05867 296.32 9.176 296.16C9.304 296 9.38933 295.824 9.432 295.632C9.47467 295.429 9.46933 295.227 9.416 295.024L8.232 290.72L9.272 290.336L10.792 295.776C10.8667 296.043 11.0107 296.261 11.224 296.432C11.448 296.603 11.6987 296.688 11.976 296.688ZM16.6165 298C16.2218 298 15.8592 297.915 15.5285 297.744C15.1978 297.563 14.9205 297.296 14.6965 296.944C14.4725 297.296 14.1952 297.563 13.8645 297.744C13.5338 297.915 13.1712 298 12.7765 298H12.3125C12.2485 298 12.1952 297.979 12.1525 297.936C12.1098 297.883 12.0885 297.829 12.0885 297.776V296.912C12.0885 296.848 12.1152 296.795 12.1685 296.752C12.2112 296.709 12.2592 296.688 12.3125 296.688H12.9685C13.2885 296.688 13.5605 296.576 13.7845 296.352C14.0192 296.128 14.1365 295.856 14.1365 295.536V293.04H15.2405V295.584C15.2405 295.893 15.3525 296.16 15.5765 296.384C15.8112 296.597 16.0832 296.704 16.3925 296.704H16.6805C16.9898 296.704 17.2618 296.608 17.4965 296.416C17.7418 296.224 17.8912 295.973 17.9445 295.664L18.4245 293.152L19.5285 293.328L19.1125 295.44C19.0805 295.621 19.0858 295.792 19.1285 295.952C19.1712 296.101 19.2458 296.235 19.3525 296.352C19.4592 296.459 19.5925 296.544 19.7525 296.608C19.9125 296.672 20.0832 296.704 20.2645 296.704H20.4245C20.7445 296.704 21.0165 296.592 21.2405 296.368C21.4645 296.133 21.5765 295.856 21.5765 295.536V292.576H22.6805V295.616C22.7018 295.925 22.8245 296.181 23.0485 296.384C23.2725 296.587 23.5392 296.688 23.8485 296.688H24.4885C24.5418 296.688 24.5898 296.709 24.6325 296.752C24.6858 296.795 24.7125 296.848 24.7125 296.912V297.776C24.7125 297.829 24.6912 297.883 24.6485 297.936C24.6058 297.979 24.5525 298 24.4885 298H24.0405C23.6458 298 23.2832 297.915 22.9525 297.744C22.6218 297.563 22.3498 297.296 22.1365 296.944C21.9125 297.296 21.6298 297.563 21.2885 297.744C20.9578 297.915 20.6058 298 20.2325 298C19.8592 298 19.5125 297.92 19.1925 297.76C18.8832 297.589 18.6432 297.317 18.4725 296.944C18.2592 297.307 17.9872 297.573 17.6565 297.744C17.3258 297.915 16.9792 298 16.6165 298ZM20.2165 291.248H18.8565V289.888H20.2165V291.248ZM18.0245 291.248H16.6645V289.888H18.0245V291.248ZM19.0645 289.296H17.7045V287.936H19.0645V289.296ZM26.4204 296.688C26.7404 296.688 27.0124 296.576 27.2364 296.352C27.4604 296.128 27.5724 295.861 27.5724 295.552V292.608H28.6764V295.552C28.6764 295.893 28.6124 296.213 28.4844 296.512C28.3564 296.811 28.1804 297.072 27.9564 297.296C27.7324 297.509 27.471 297.68 27.1724 297.808C26.8844 297.936 26.5697 298 26.2284 298H24.4844C24.335 298 24.2604 297.925 24.2604 297.776V296.928C24.2604 296.864 24.2817 296.811 24.3244 296.768C24.367 296.715 24.4204 296.688 24.4844 296.688H26.4204ZM27.3964 290.704H28.7564V289.344H27.3964V290.704ZM36.9325 292.608H38.2925V291.248H36.9325V292.608ZM39.1245 292.608H40.4845V291.248H39.1245V292.608ZM34.1005 292.608V294.992C34.1005 295.227 34.1432 295.451 34.2285 295.664C34.3245 295.867 34.4525 296.043 34.6125 296.192C34.7725 296.341 34.9538 296.464 35.1565 296.56C35.3698 296.645 35.5938 296.688 35.8285 296.688H42.1645C42.4845 296.688 42.7565 296.576 42.9805 296.352C43.2045 296.128 43.3165 295.856 43.3165 295.536V293.056H44.4205V295.536C44.4205 295.856 44.5325 296.128 44.7565 296.352C44.9805 296.576 45.2525 296.688 45.5725 296.688H46.0525C46.2018 296.688 46.2765 296.763 46.2765 296.912V297.776C46.2765 297.925 46.2018 298 46.0525 298H45.7805C45.3858 298 45.0232 297.909 44.6925 297.728C44.3618 297.547 44.0898 297.285 43.8765 296.944C43.6418 297.296 43.3592 297.563 43.0285 297.744C42.6978 297.915 42.3405 298 41.9565 298H35.8765C35.4818 298 35.1085 297.925 34.7565 297.776C34.4152 297.627 34.1112 297.424 33.8445 297.168C33.5885 296.912 33.3858 296.613 33.2365 296.272C33.0872 295.92 33.0125 295.547 33.0125 295.152V292.608H34.1005ZM48.8949 294.064H51.2309V292.016C51.2309 291.739 51.1295 291.504 50.9269 291.312C50.7242 291.12 50.4842 291.024 50.2069 291.024H49.2309C48.9855 291.024 48.7669 291.099 48.5749 291.248C48.3935 291.397 48.2815 291.595 48.2389 291.84L48.0149 293.008C47.9615 293.285 48.0255 293.531 48.2069 293.744C48.3882 293.957 48.6175 294.064 48.8949 294.064ZM52.3189 295.52C52.3189 295.861 52.2549 296.187 52.1269 296.496C51.9989 296.795 51.8229 297.056 51.5989 297.28C51.3749 297.504 51.1082 297.68 50.7989 297.808C50.5002 297.936 50.1802 298 49.8389 298H46.0469C45.9829 298 45.9295 297.979 45.8869 297.936C45.8442 297.883 45.8229 297.824 45.8229 297.76V296.928C45.8229 296.864 45.8495 296.811 45.9029 296.768C45.9455 296.715 45.9935 296.688 46.0469 296.688H49.9349C50.2762 296.688 50.5749 296.592 50.8309 296.4C51.0869 296.208 51.2149 295.893 51.2149 295.456V295.232C51.0122 295.317 50.7935 295.36 50.5589 295.36H49.0069C48.6762 295.36 48.3669 295.291 48.0789 295.152C47.8015 295.013 47.5669 294.827 47.3749 294.592C47.1829 294.357 47.0442 294.091 46.9589 293.792C46.8842 293.483 46.8789 293.168 46.9429 292.848L47.1829 291.504C47.2789 291.003 47.5189 290.592 47.9029 290.272C48.2975 289.952 48.7455 289.792 49.2469 289.792H50.0949C50.4042 289.792 50.6922 289.851 50.9589 289.968C51.2362 290.085 51.4709 290.245 51.6629 290.448C51.8655 290.651 52.0255 290.891 52.1429 291.168C52.2602 291.435 52.3189 291.723 52.3189 292.032V295.52ZM49.0229 286.56H50.3829V287.92H49.0229V286.56ZM57.7765 297.776C57.7765 297.925 57.7018 298 57.5525 298H56.9605C56.6298 298 56.3152 297.936 56.0165 297.808C55.7178 297.68 55.4565 297.504 55.2325 297.28C55.0085 297.056 54.8325 296.795 54.7045 296.496C54.5765 296.197 54.5125 295.883 54.5125 295.552V287.456H55.6165V295.536C55.6165 295.856 55.7285 296.128 55.9525 296.352C56.1872 296.576 56.4592 296.688 56.7685 296.688H57.5525C57.6165 296.688 57.6698 296.715 57.7125 296.768C57.7552 296.811 57.7765 296.864 57.7765 296.928V297.776ZM59.4829 296.688C59.8029 296.688 60.0749 296.576 60.2989 296.352C60.5229 296.128 60.6349 295.861 60.6349 295.552V292.608H61.7389V295.552C61.7389 295.893 61.6749 296.213 61.5469 296.512C61.4189 296.811 61.2429 297.072 61.0189 297.296C60.7949 297.509 60.5335 297.68 60.2349 297.808C59.9469 297.936 59.6322 298 59.2909 298H57.5469C57.3975 298 57.3229 297.925 57.3229 297.776V296.928C57.3229 296.864 57.3442 296.811 57.3869 296.768C57.4295 296.715 57.4829 296.688 57.5469 296.688H59.4829ZM57.6109 301.28H58.9709V299.92H57.6109V301.28ZM59.8029 301.28H61.1629V299.92H59.8029V301.28ZM68.1676 298C67.837 298 67.533 297.931 67.2556 297.792C66.9783 297.653 66.7436 297.467 66.5516 297.232C66.3596 296.997 66.221 296.731 66.1356 296.432C66.0503 296.123 66.0396 295.808 66.1036 295.488L66.3756 294.032C66.4183 293.787 66.5036 293.563 66.6316 293.36C66.7596 293.147 66.9143 292.965 67.0956 292.816C67.277 292.667 67.4796 292.549 67.7036 292.464C67.9383 292.379 68.1836 292.336 68.4396 292.336H69.3356C69.645 292.336 69.933 292.395 70.1996 292.512C70.477 292.629 70.717 292.789 70.9196 292.992C71.1223 293.184 71.2823 293.419 71.3996 293.696C71.517 293.963 71.5756 294.251 71.5756 294.56V296.688H72.8396C72.9036 296.688 72.957 296.715 72.9996 296.768C73.0423 296.811 73.0636 296.859 73.0636 296.912V297.776C73.0636 297.925 72.989 298 72.8396 298H71.5596V298.192C71.5383 298.917 71.309 299.568 70.8716 300.144C70.445 300.731 69.8796 301.147 69.1756 301.392L67.3516 302.016L66.9996 300.912L68.9196 300.272C69.3783 300.112 69.7463 299.84 70.0236 299.456C70.3116 299.083 70.4556 298.651 70.4556 298.16V297.872C70.3703 297.925 70.269 297.963 70.1516 297.984C70.045 297.995 69.933 298 69.8156 298H68.1676ZM68.0556 296.688H70.4716V294.56C70.4716 294.283 70.3703 294.048 70.1676 293.856C69.9756 293.653 69.741 293.552 69.4636 293.552H68.4076C68.1623 293.552 67.949 293.627 67.7676 293.776C67.5863 293.925 67.469 294.123 67.4156 294.368L67.1756 295.648C67.1223 295.925 67.1863 296.171 67.3676 296.384C67.549 296.587 67.7783 296.688 68.0556 296.688ZM72.8438 298C72.6944 298 72.6197 297.925 72.6197 297.776V296.928C72.6197 296.875 72.6411 296.821 72.6837 296.768C72.7264 296.715 72.7797 296.688 72.8438 296.688H75.4518C75.9638 296.688 76.4544 296.603 76.9238 296.432C77.4038 296.261 77.8304 296.005 78.2038 295.664L79.6118 294.352C79.7398 294.235 79.8358 294.16 79.8998 294.128L76.0758 292.992C75.8731 292.928 75.6811 292.949 75.4998 293.056C75.3291 293.152 75.2118 293.296 75.1478 293.488L74.7318 294.768L73.7718 294.496L74.1398 293.232C74.2144 292.976 74.3318 292.752 74.4918 292.56C74.6624 292.357 74.8544 292.197 75.0678 292.08C75.2918 291.963 75.5264 291.893 75.7718 291.872C76.0278 291.84 76.2784 291.861 76.5238 291.936L82.6998 293.792L82.3638 294.864L81.7238 294.672C81.4571 294.619 81.2278 294.619 81.0358 294.672C80.8544 294.725 80.6838 294.816 80.5238 294.944V295.536C80.5238 295.856 80.6358 296.128 80.8598 296.352C81.0944 296.576 81.3718 296.688 81.6918 296.688H83.8038C83.8678 296.688 83.9211 296.715 83.9638 296.768C84.0064 296.811 84.0278 296.859 84.0278 296.912V297.776C84.0278 297.925 83.9531 298 83.8038 298H81.8837C81.5638 298 81.2704 297.947 81.0038 297.84C80.7371 297.723 80.5024 297.568 80.2998 297.376C80.0971 297.173 79.9318 296.939 79.8038 296.672C79.6864 296.395 79.6118 296.101 79.5798 295.792L78.4758 296.816C78.0491 297.2 77.5638 297.493 77.0198 297.696C76.4864 297.899 75.9318 298 75.3558 298H72.8438ZM77.2438 299.92H78.6038V301.28H77.2438V299.92ZM84.8209 291.248H86.1809V289.888H84.8209V291.248ZM87.0129 291.248H88.3729V289.888H87.0129V291.248ZM89.5569 297.776C89.5569 297.925 89.4822 298 89.3329 298H88.3409C88.1595 298 87.9782 297.973 87.7969 297.92C87.6155 297.867 87.4449 297.792 87.2849 297.696C87.1249 297.6 86.9862 297.488 86.8689 297.36C86.7515 297.232 86.6715 297.093 86.6289 296.944C86.4475 297.253 86.1862 297.509 85.8449 297.712C85.5142 297.904 85.1622 298 84.7889 298H83.7969C83.6475 298 83.5729 297.925 83.5729 297.776V296.928C83.5729 296.864 83.5942 296.811 83.6369 296.768C83.6795 296.715 83.7329 296.688 83.7969 296.688H84.8369C85.1462 296.688 85.4129 296.592 85.6369 296.4C85.8715 296.208 86.0209 295.968 86.0849 295.68L86.5809 293.152L87.6689 293.328L87.2529 295.44C87.2209 295.6 87.2262 295.76 87.2689 295.92C87.3115 296.069 87.3862 296.203 87.4929 296.32C87.5995 296.427 87.7275 296.517 87.8769 296.592C88.0262 296.656 88.1862 296.688 88.3569 296.688H89.3329C89.3969 296.688 89.4502 296.715 89.4929 296.768C89.5355 296.811 89.5569 296.864 89.5569 296.928V297.776ZM93.6161 298C93.2215 298 92.8588 297.915 92.5281 297.744C92.1975 297.563 91.9201 297.296 91.6961 296.944C91.4721 297.296 91.1948 297.563 90.8641 297.744C90.5335 297.915 90.1708 298 89.7761 298H89.3281C89.2641 298 89.2108 297.979 89.1681 297.936C89.1255 297.883 89.1041 297.829 89.1041 297.776V296.912C89.1041 296.848 89.1308 296.795 89.1841 296.752C89.2268 296.709 89.2748 296.688 89.3281 296.688H89.9681C90.2881 296.688 90.5601 296.576 90.7841 296.352C91.0188 296.128 91.1361 295.856 91.1361 295.536V293.04H92.2401V295.568C92.2401 295.877 92.3521 296.144 92.5761 296.368C92.8108 296.581 93.0828 296.688 93.3921 296.688H93.6801C93.9895 296.688 94.2615 296.597 94.4961 296.416C94.7415 296.224 94.8908 295.973 94.9441 295.664L95.4241 293.152L96.5281 293.328L96.0961 295.44C96.0641 295.611 96.0695 295.771 96.1121 295.92C96.1655 296.069 96.2455 296.203 96.3521 296.32C96.4588 296.427 96.5868 296.517 96.7361 296.592C96.8961 296.656 97.0721 296.688 97.2641 296.688H97.4241C97.7441 296.688 98.0161 296.576 98.2401 296.352C98.4641 296.128 98.5761 295.856 98.5761 295.536V292.576H99.6801V295.616C99.7015 295.925 99.8241 296.181 100.048 296.384C100.272 296.587 100.539 296.688 100.848 296.688H101.488C101.541 296.688 101.589 296.709 101.632 296.752C101.685 296.795 101.712 296.848 101.712 296.912V297.776C101.712 297.829 101.691 297.883 101.648 297.936C101.605 297.979 101.552 298 101.488 298H101.04C100.645 298 100.283 297.915 99.9521 297.744C99.6215 297.563 99.3495 297.296 99.1361 296.944C98.9121 297.296 98.6295 297.563 98.2881 297.744C97.9575 297.915 97.6001 298 97.2161 298C96.8535 298 96.5121 297.92 96.1921 297.76C95.8828 297.589 95.6428 297.317 95.4721 296.944C95.2588 297.307 94.9868 297.573 94.6561 297.744C94.3255 297.915 93.9788 298 93.6161 298ZM101.26 296.912C101.26 296.859 101.282 296.811 101.324 296.768C101.356 296.715 101.41 296.688 101.484 296.688H104.092C104.604 296.688 105.095 296.603 105.564 296.432C106.034 296.251 106.455 295.989 106.828 295.648L108.252 294.352C108.38 294.235 108.476 294.16 108.54 294.128L104.7 292.992C104.508 292.939 104.322 292.96 104.14 293.056C103.97 293.152 103.852 293.296 103.788 293.488L103.388 294.768L102.412 294.512L102.78 293.232C102.855 292.976 102.972 292.752 103.132 292.56C103.303 292.368 103.495 292.213 103.708 292.096C103.932 291.979 104.167 291.904 104.412 291.872C104.668 291.84 104.919 291.861 105.164 291.936L111.34 293.792L111.004 294.864L110.364 294.672C110.044 294.608 109.783 294.619 109.58 294.704C109.378 294.789 109.175 294.923 108.972 295.104L107.116 296.8C106.69 297.205 106.204 297.509 105.66 297.712C105.116 297.904 104.556 298 103.98 298H101.484C101.335 298 101.26 297.925 101.26 297.776V296.912ZM105.884 301.28H107.244V299.92H105.884V301.28ZM123.782 295.776C124.124 295.851 124.396 296.005 124.598 296.24C124.801 296.475 124.902 296.763 124.902 297.104V297.744C124.902 298.139 124.828 298.512 124.678 298.864C124.529 299.216 124.321 299.52 124.054 299.776C123.798 300.043 123.494 300.251 123.142 300.4C122.801 300.549 122.433 300.624 122.038 300.624H118.806C118.369 300.624 117.953 300.539 117.558 300.368C117.174 300.197 116.838 299.968 116.55 299.68C116.262 299.392 116.033 299.051 115.862 298.656C115.692 298.272 115.606 297.856 115.606 297.408V293.728H116.71V297.232C116.71 297.52 116.764 297.787 116.87 298.032C116.977 298.288 117.126 298.507 117.318 298.688C117.51 298.88 117.734 299.029 117.99 299.136C118.246 299.253 118.518 299.312 118.806 299.312H122.086C122.321 299.312 122.54 299.264 122.742 299.168C122.956 299.083 123.137 298.96 123.286 298.8C123.446 298.651 123.569 298.469 123.654 298.256C123.75 298.043 123.798 297.819 123.798 297.584V296.96L119.43 295.936V294.24C119.43 293.856 119.494 293.499 119.622 293.168C119.761 292.827 119.948 292.528 120.182 292.272C120.417 292.016 120.684 291.808 120.982 291.648C121.292 291.488 121.622 291.387 121.974 291.344L123.83 291.104L124.006 292.256L121.894 292.544C121.489 292.608 121.153 292.805 120.886 293.136C120.63 293.456 120.502 293.819 120.502 294.224V295.008L123.782 295.776ZM129.231 294.24C129.231 293.568 129.407 293.013 129.759 292.576C130.122 292.139 130.586 291.845 131.151 291.696L133.359 291.136V289.824H134.463V295.44C134.463 295.611 134.501 295.771 134.575 295.92C134.65 296.069 134.746 296.203 134.863 296.32C134.981 296.427 135.119 296.517 135.279 296.592C135.45 296.656 135.621 296.688 135.791 296.688H136.271C136.421 296.688 136.495 296.763 136.495 296.912V297.776C136.495 297.925 136.421 298 136.271 298H135.791C135.29 298 134.847 297.867 134.463 297.6C134.079 297.333 133.791 296.987 133.599 296.56C133.407 296.72 133.167 296.8 132.879 296.8H130.735C130.255 296.8 129.882 296.667 129.615 296.4C129.359 296.133 129.231 295.76 129.231 295.28V294.24ZM133.359 292.304L131.391 292.816C131.061 292.901 130.799 293.088 130.607 293.376C130.426 293.653 130.335 293.952 130.335 294.272V295.488H133.359V292.304ZM136.266 298C136.116 298 136.042 297.925 136.042 297.776V296.928C136.042 296.875 136.063 296.821 136.106 296.768C136.148 296.715 136.202 296.688 136.266 296.688H138.874C139.386 296.688 139.876 296.603 140.346 296.432C140.826 296.261 141.252 296.005 141.626 295.664L143.034 294.352C143.162 294.235 143.258 294.16 143.322 294.128L139.498 292.992C139.295 292.928 139.103 292.949 138.922 293.056C138.751 293.152 138.634 293.296 138.57 293.488L138.154 294.768L137.194 294.496L137.562 293.232C137.636 292.976 137.754 292.752 137.914 292.56C138.084 292.357 138.276 292.197 138.49 292.08C138.714 291.963 138.948 291.893 139.194 291.872C139.45 291.84 139.7 291.861 139.946 291.936L146.122 293.792L145.786 294.864L145.146 294.672C144.879 294.619 144.65 294.619 144.458 294.672C144.276 294.725 144.106 294.816 143.946 294.944V295.536C143.946 295.856 144.058 296.128 144.282 296.352C144.516 296.576 144.794 296.688 145.114 296.688H147.226C147.29 296.688 147.343 296.715 147.386 296.768C147.428 296.811 147.45 296.859 147.45 296.912V297.776C147.45 297.925 147.375 298 147.226 298H145.306C144.986 298 144.692 297.947 144.426 297.84C144.159 297.723 143.924 297.568 143.722 297.376C143.519 297.173 143.354 296.939 143.226 296.672C143.108 296.395 143.034 296.101 143.002 295.792L141.898 296.816C141.471 297.2 140.986 297.493 140.442 297.696C139.908 297.899 139.354 298 138.778 298H136.266ZM140.666 299.92H142.026V301.28H140.666V299.92ZM148.243 301.28H149.603V299.92H148.243V301.28ZM150.435 301.28H151.795V299.92H150.435V301.28ZM152.979 297.776C152.979 297.925 152.904 298 152.755 298H151.763C151.581 298 151.4 297.973 151.219 297.92C151.037 297.867 150.867 297.792 150.707 297.696C150.547 297.6 150.408 297.488 150.291 297.36C150.173 297.232 150.093 297.093 150.051 296.944C149.869 297.253 149.608 297.509 149.267 297.712C148.936 297.904 148.584 298 148.211 298H147.219C147.069 298 146.995 297.925 146.995 297.776V296.928C146.995 296.864 147.016 296.811 147.059 296.768C147.101 296.715 147.155 296.688 147.219 296.688H148.259C148.568 296.688 148.835 296.592 149.059 296.4C149.293 296.208 149.443 295.968 149.507 295.68L150.003 293.152L151.091 293.328L150.675 295.44C150.643 295.6 150.648 295.76 150.691 295.92C150.733 296.069 150.808 296.203 150.915 296.32C151.021 296.427 151.149 296.517 151.299 296.592C151.448 296.656 151.608 296.688 151.779 296.688H152.755C152.819 296.688 152.872 296.715 152.915 296.768C152.957 296.811 152.979 296.864 152.979 296.928V297.776ZM153.774 291.248H155.134V289.888H153.774V291.248ZM155.966 291.248H157.326V289.888H155.966V291.248ZM158.51 297.776C158.51 297.925 158.435 298 158.286 298H157.294C157.113 298 156.931 297.973 156.75 297.92C156.569 297.867 156.398 297.792 156.238 297.696C156.078 297.6 155.939 297.488 155.822 297.36C155.705 297.232 155.625 297.093 155.582 296.944C155.401 297.253 155.139 297.509 154.798 297.712C154.467 297.904 154.115 298 153.742 298H152.75C152.601 298 152.526 297.925 152.526 297.776V296.928C152.526 296.864 152.547 296.811 152.59 296.768C152.633 296.715 152.686 296.688 152.75 296.688H153.79C154.099 296.688 154.366 296.592 154.59 296.4C154.825 296.208 154.974 295.968 155.038 295.68L155.534 293.152L156.622 293.328L156.206 295.44C156.174 295.6 156.179 295.76 156.222 295.92C156.265 296.069 156.339 296.203 156.446 296.32C156.553 296.427 156.681 296.517 156.83 296.592C156.979 296.656 157.139 296.688 157.31 296.688H158.286C158.35 296.688 158.403 296.715 158.446 296.768C158.489 296.811 158.51 296.864 158.51 296.928V297.776ZM160.217 296.688C160.537 296.688 160.809 296.576 161.033 296.352C161.257 296.128 161.369 295.861 161.369 295.552V292.608H162.473V295.552C162.473 295.893 162.409 296.213 162.281 296.512C162.153 296.811 161.977 297.072 161.753 297.296C161.529 297.509 161.268 297.68 160.969 297.808C160.681 297.936 160.367 298 160.025 298H158.281C158.132 298 158.057 297.925 158.057 297.776V296.928C158.057 296.864 158.079 296.811 158.121 296.768C158.164 296.715 158.217 296.688 158.281 296.688H160.217ZM161.193 290.704H162.553V289.344H161.193V290.704ZM166.809 294.24C166.809 293.568 166.985 293.013 167.337 292.576C167.7 292.139 168.164 291.845 168.729 291.696L170.937 291.136V289.824H172.041V295.44C172.041 295.611 172.079 295.771 172.153 295.92C172.228 296.069 172.324 296.203 172.441 296.32C172.559 296.427 172.697 296.517 172.857 296.592C173.028 296.656 173.199 296.688 173.369 296.688H173.849C173.999 296.688 174.073 296.763 174.073 296.912V297.776C174.073 297.925 173.999 298 173.849 298H173.369C172.868 298 172.425 297.867 172.041 297.6C171.657 297.333 171.369 296.987 171.177 296.56C170.985 296.72 170.745 296.8 170.457 296.8H168.313C167.833 296.8 167.46 296.667 167.193 296.4C166.937 296.133 166.809 295.76 166.809 295.28V294.24ZM170.937 292.304L168.969 292.816C168.639 292.901 168.377 293.088 168.185 293.376C168.004 293.653 167.913 293.952 167.913 294.272V295.488H170.937V292.304ZM175.78 296.688C176.1 296.688 176.372 296.576 176.596 296.352C176.82 296.128 176.932 295.861 176.932 295.552V292.608H178.036V295.552C178.036 295.893 177.972 296.213 177.844 296.512C177.716 296.811 177.54 297.072 177.316 297.296C177.092 297.509 176.83 297.68 176.532 297.808C176.244 297.936 175.929 298 175.588 298H173.844C173.694 298 173.62 297.925 173.62 297.776V296.928C173.62 296.864 173.641 296.811 173.684 296.768C173.726 296.715 173.78 296.688 173.844 296.688H175.78ZM176.756 290.704H178.116V289.344H176.756V290.704ZM183.558 297.776C183.558 297.925 183.483 298 183.334 298H182.742C182.411 298 182.096 297.936 181.798 297.808C181.499 297.68 181.238 297.504 181.014 297.28C180.79 297.056 180.614 296.795 180.486 296.496C180.358 296.197 180.294 295.883 180.294 295.552V287.456H181.398V295.536C181.398 295.856 181.51 296.128 181.734 296.352C181.968 296.576 182.24 296.688 182.55 296.688H183.334C183.398 296.688 183.451 296.715 183.494 296.768C183.536 296.811 183.558 296.864 183.558 296.928V297.776ZM185.28 294.832C185.28 295.173 185.429 295.483 185.728 295.76C186.027 296.037 186.411 296.293 186.88 296.528C187.349 296.293 187.739 296.037 188.048 295.76C188.357 295.483 188.512 295.173 188.512 294.832V294.368C188.512 294.155 188.469 293.957 188.384 293.776C188.309 293.595 188.203 293.44 188.064 293.312C187.925 293.173 187.765 293.067 187.584 292.992C187.403 292.907 187.205 292.864 186.992 292.864H186.768C186.565 292.864 186.373 292.907 186.192 292.992C186.011 293.067 185.851 293.173 185.712 293.312C185.584 293.44 185.477 293.595 185.392 293.776C185.317 293.957 185.28 294.155 185.28 294.368V294.832ZM184.192 294.272C184.192 293.909 184.261 293.568 184.4 293.248C184.539 292.928 184.725 292.651 184.96 292.416C185.205 292.171 185.483 291.979 185.792 291.84C186.112 291.701 186.448 291.632 186.8 291.632H186.992C187.355 291.632 187.691 291.701 188 291.84C188.32 291.979 188.597 292.171 188.832 292.416C189.067 292.651 189.253 292.928 189.392 293.248C189.531 293.557 189.6 293.893 189.6 294.256V294.752C189.6 295.136 189.504 295.488 189.312 295.808C189.131 296.128 188.885 296.421 188.576 296.688H189.056H190.464C190.517 296.688 190.565 296.715 190.608 296.768C190.661 296.811 190.688 296.864 190.688 296.928V297.776C190.688 297.829 190.661 297.883 190.608 297.936C190.565 297.979 190.517 298 190.464 298H189.056C188.683 298 188.32 297.968 187.968 297.904C187.627 297.829 187.264 297.717 186.88 297.568C186.507 297.717 186.144 297.829 185.792 297.904C185.451 297.968 185.093 298 184.72 298H183.328C183.264 298 183.211 297.979 183.168 297.936C183.125 297.883 183.104 297.829 183.104 297.776V296.928C183.104 296.864 183.125 296.811 183.168 296.768C183.211 296.715 183.264 296.688 183.328 296.688H184.736H185.216C184.907 296.421 184.656 296.128 184.464 295.808C184.283 295.488 184.192 295.136 184.192 294.752V294.272ZM186.176 289.744H187.536V288.384H186.176V289.744ZM194.709 298C194.325 298 193.967 297.915 193.637 297.744C193.306 297.563 193.034 297.296 192.821 296.944C192.607 297.296 192.335 297.563 192.005 297.744C191.674 297.915 191.317 298 190.933 298H190.469C190.319 298 190.245 297.925 190.245 297.776V296.912C190.245 296.848 190.271 296.795 190.325 296.752C190.367 296.709 190.415 296.688 190.469 296.688H191.125C191.445 296.688 191.717 296.576 191.941 296.352C192.165 296.128 192.277 295.856 192.277 295.536V293.04H193.381V295.552C193.381 295.872 193.493 296.144 193.717 296.368C193.941 296.581 194.207 296.688 194.517 296.688H194.805C195.114 296.688 195.386 296.597 195.621 296.416C195.855 296.224 195.999 295.979 196.053 295.68L196.565 293.152L197.637 293.344L197.221 295.44C197.157 295.781 197.237 296.075 197.461 296.32C197.695 296.565 197.983 296.688 198.325 296.688H199.701V292.592H200.805V296.56C200.805 296.997 200.671 297.349 200.405 297.616C200.138 297.872 199.791 298 199.365 298H198.309C197.957 298 197.621 297.909 197.301 297.728C196.981 297.547 196.741 297.285 196.581 296.944C196.367 297.307 196.095 297.573 195.765 297.744C195.434 297.915 195.082 298 194.709 298ZM206.245 297.776C206.245 297.925 206.171 298 206.021 298H205.429C205.099 298 204.784 297.936 204.485 297.808C204.187 297.68 203.925 297.504 203.701 297.28C203.477 297.056 203.301 296.795 203.173 296.496C203.045 296.197 202.981 295.883 202.981 295.552V287.456H204.085V295.536C204.085 295.856 204.197 296.128 204.421 296.352C204.656 296.576 204.928 296.688 205.237 296.688H206.021C206.085 296.688 206.139 296.715 206.181 296.768C206.224 296.811 206.245 296.864 206.245 296.928V297.776ZM207.04 291.248H208.4V289.888H207.04V291.248ZM209.232 291.248H210.592V289.888H209.232V291.248ZM211.776 297.776C211.776 297.925 211.701 298 211.552 298H210.56C210.378 298 210.197 297.973 210.016 297.92C209.834 297.867 209.664 297.792 209.504 297.696C209.344 297.6 209.205 297.488 209.088 297.36C208.97 297.232 208.89 297.093 208.848 296.944C208.666 297.253 208.405 297.509 208.064 297.712C207.733 297.904 207.381 298 207.008 298H206.016C205.866 298 205.792 297.925 205.792 297.776V296.928C205.792 296.864 205.813 296.811 205.856 296.768C205.898 296.715 205.952 296.688 206.016 296.688H207.056C207.365 296.688 207.632 296.592 207.856 296.4C208.09 296.208 208.24 295.968 208.304 295.68L208.8 293.152L209.888 293.328L209.472 295.44C209.44 295.6 209.445 295.76 209.488 295.92C209.53 296.069 209.605 296.203 209.712 296.32C209.818 296.427 209.946 296.517 210.096 296.592C210.245 296.656 210.405 296.688 210.576 296.688H211.552C211.616 296.688 211.669 296.715 211.712 296.768C211.754 296.811 211.776 296.864 211.776 296.928V297.776ZM215.291 296.688H217.723V294.544C217.723 294.267 217.622 294.032 217.419 293.84C217.227 293.637 216.987 293.536 216.699 293.536H215.659C215.414 293.536 215.2 293.616 215.019 293.776C214.838 293.925 214.72 294.117 214.667 294.352L214.427 295.648C214.374 295.925 214.432 296.171 214.603 296.384C214.784 296.587 215.014 296.688 215.291 296.688ZM213.291 295.68L213.627 294.032C213.67 293.787 213.755 293.557 213.883 293.344C214.011 293.131 214.166 292.949 214.347 292.8C214.528 292.651 214.731 292.533 214.955 292.448C215.19 292.363 215.435 292.32 215.691 292.32H216.587C216.896 292.32 217.184 292.379 217.451 292.496C217.728 292.613 217.968 292.773 218.171 292.976C218.374 293.179 218.534 293.413 218.651 293.68C218.768 293.947 218.827 294.235 218.827 294.544V296.56C218.827 296.987 218.694 297.333 218.427 297.6C218.171 297.867 217.819 298 217.371 298H215.419C215.078 298 214.763 297.92 214.475 297.76C214.198 297.589 213.968 297.317 213.787 296.944C213.595 297.317 213.339 297.589 213.019 297.76C212.699 297.92 212.363 298 212.011 298H211.547C211.398 298 211.323 297.925 211.323 297.776V296.912C211.323 296.859 211.344 296.811 211.387 296.768C211.43 296.715 211.483 296.688 211.547 296.688H212.059C212.368 296.688 212.635 296.592 212.859 296.4C213.094 296.208 213.238 295.968 213.291 295.68Z" fill="#F7F7F7"/>
<defs>
<linearGradient id="paint0_linear_104_1787" x1="95.9649" y1="82.7979" x2="96.3158" y2="404.903" gradientUnits="userSpaceOnUse">
<stop stop-color="#F25C05"/>
<stop offset="0.788197" stop-color="#070707" stop-opacity="0"/>
</linearGradient>
</defs>
</svg>
