<svg width="650" height="620" viewBox="0 0 650 620" fill="none" xmlns="http://www.w3.org/2000/svg">
<path opacity="0.5" d="M511.707 619.678H23.5925L78.0425 601.286H566.157L511.707 619.678Z" fill="url(#paint0_linear_759_2130)"/>
<path opacity="0.09" d="M382.962 456.086C382.236 454.392 380.784 453.666 379.09 453.908C379.09 453.908 379.09 453.908 379.332 453.908H379.574C378.122 452.94 376.671 451.972 374.977 451.004C374.493 450.762 374.008 450.52 373.525 450.278C372.557 449.552 371.346 449.068 370.378 448.342C369.894 448.1 369.411 447.858 368.927 447.616C367.717 446.89 366.507 446.406 365.297 445.68C365.055 445.438 364.812 445.438 364.57 445.196C363.118 444.47 361.667 443.744 360.215 443.018C359.73 442.776 359.488 442.776 359.005 442.534C358.036 442.05 356.826 441.566 355.858 441.082C355.374 440.84 354.89 440.598 354.406 440.356C353.438 439.872 352.228 439.388 351.26 439.146C350.776 438.904 350.534 438.904 350.05 438.662C348.598 438.178 347.146 437.694 345.936 437.21C345.694 437.21 345.452 436.968 344.968 436.968C343.758 436.484 342.79 436.242 341.58 436C341.096 435.758 340.612 435.758 340.128 435.516C339.16 435.274 338.192 435.032 337.224 434.79C336.74 434.79 336.498 434.548 336.014 434.548C334.562 434.306 333.352 433.822 332.142 433.58H331.9C330.69 433.338 329.48 433.096 328.028 432.854C327.544 432.854 327.302 432.612 326.818 432.612C325.85 432.37 324.882 432.37 324.156 432.128C323.672 432.128 323.43 431.886 322.946 431.886C321.978 431.644 320.768 431.644 319.8 431.402C319.558 431.402 319.316 431.402 319.074 431.402C317.864 431.16 316.654 431.16 315.444 430.918C315.202 430.918 314.718 430.918 314.476 430.918C313.508 430.918 312.54 430.676 311.814 430.676C311.33 430.676 311.088 430.676 310.604 430.676C309.878 430.676 308.91 430.676 308.184 430.676V413.978H333.11H334.078C342.064 413.978 349.324 410.832 354.406 405.508C355.616 404.298 356.826 402.846 358.036 401.152C359.004 399.7 359.972 398.006 360.698 396.312C362.15 392.924 362.877 389.052 362.877 385.18V273.86C362.877 269.988 362.15 266.116 360.698 262.728C359.972 261.034 359.004 259.34 358.036 257.888C357.552 257.162 357.068 256.436 356.342 255.71C354.406 253.29 351.986 251.354 349.325 249.66C348.356 249.176 347.63 248.692 346.662 248.208C342.79 246.272 338.676 245.304 334.078 245.304H277.208C276.24 245.304 275.272 245.304 274.546 245.546C274.304 245.546 273.82 245.546 273.578 245.788C273.094 245.788 272.368 246.03 271.884 246.03C271.4 246.03 271.158 246.272 270.674 246.272C270.19 246.272 269.706 246.514 269.222 246.756C268.738 246.998 268.496 246.998 268.012 247.24C267.528 247.482 267.286 247.482 266.802 247.724C266.318 247.966 265.834 247.966 265.592 248.208C265.35 248.45 264.866 248.45 264.624 248.692C264.14 248.934 263.656 249.176 263.172 249.418C262.93 249.66 262.688 249.66 262.204 249.902C261.72 250.144 261.236 250.386 260.752 250.87C260.51 251.112 260.268 251.112 260.026 251.354C253.008 256.678 248.41 264.906 248.41 274.586V385.906C248.41 401.878 261.236 414.704 277.208 414.704H300.682V431.644C300.44 431.644 299.956 431.644 299.714 431.644C299.472 431.644 298.988 431.644 298.746 431.644C297.778 431.644 297.052 431.644 296.326 431.886C296.084 431.886 295.842 431.886 295.358 431.886C293.18 432.128 291.002 432.37 288.824 432.612C288.582 432.612 288.34 432.612 288.098 432.854C287.372 433.096 286.404 433.096 285.678 433.338C285.436 433.338 285.194 433.338 284.952 433.58C283.984 433.822 283.016 434.064 282.048 434.064C281.08 434.306 279.87 434.548 278.902 434.79C278.66 434.79 278.66 434.79 278.418 434.79C277.692 435.032 276.724 435.274 275.998 435.516C275.756 435.516 275.514 435.516 275.514 435.758C274.546 436 273.82 436.242 272.852 436.484H272.61C270.674 436.968 268.738 437.694 267.044 438.42C267.044 438.42 266.802 438.42 266.802 438.662C266.076 438.904 265.108 439.146 264.382 439.63C264.382 439.63 264.382 439.63 264.14 439.63C262.446 440.356 260.752 441.082 259.058 441.808C244.296 448.342 236.068 455.602 236.068 455.602C236.31 455.844 236.552 455.844 236.794 455.844C235.1 455.36 233.406 456.328 232.68 458.022C231.954 459.958 232.922 461.894 234.616 462.62C236.552 463.346 263.656 473.994 300.924 475.446V562.082L263.414 570.068C262.204 570.31 261.478 571.036 260.994 572.004L254.46 586.04C249.136 586.524 245.022 590.88 245.022 596.204C245.022 602.012 249.62 606.61 255.428 606.61C257.122 606.61 258.816 606.126 260.268 605.4C260.268 605.4 260.51 605.4 260.51 605.158C260.752 604.916 261.236 604.674 261.478 604.432C261.72 604.432 261.72 604.19 261.962 604.19C262.446 603.706 262.93 603.222 263.414 602.738C263.656 602.496 263.656 602.254 263.898 602.012C264.14 601.77 264.14 601.528 264.382 601.286C264.624 601.044 264.624 600.56 264.866 600.318C264.866 600.076 265.108 599.834 265.108 599.592C265.35 599.108 265.35 598.866 265.35 598.382C265.35 598.14 265.35 597.898 265.592 597.898C265.592 597.172 265.834 596.688 265.834 595.962C265.834 595.236 265.834 594.752 265.592 594.026C265.592 593.784 265.592 593.542 265.35 593.542C265.35 593.058 265.108 592.816 265.108 592.332C265.108 592.09 264.866 591.848 264.866 591.606C264.624 591.364 264.624 590.88 264.382 590.638C264.14 590.396 264.14 590.154 263.898 589.912C263.656 589.67 263.656 589.428 263.414 589.186C262.93 588.702 262.446 588.218 261.962 587.734C261.72 587.734 261.72 587.492 261.478 587.492L266.802 576.118L300.924 568.858V598.382C297.052 599.834 294.148 603.706 294.148 608.062C294.148 613.87 298.746 618.468 304.554 618.468C306.248 618.468 307.942 617.984 309.394 617.258L309.636 617.016C309.878 616.774 310.362 616.532 310.604 616.29C310.846 616.29 310.846 616.048 311.088 616.048C311.572 615.564 312.056 615.08 312.54 614.596C312.782 614.354 313.024 614.112 313.024 613.87C313.266 613.628 313.266 613.386 313.508 613.144C313.75 612.902 313.75 612.418 313.992 612.176C313.992 611.934 314.234 611.692 314.234 611.45C314.476 610.966 314.476 610.724 314.476 610.24C314.476 609.998 314.476 609.756 314.718 609.756C314.718 609.03 314.96 608.546 314.96 607.82C314.96 607.094 314.96 606.61 314.718 605.884C314.718 605.642 314.718 605.4 314.476 605.4C314.476 604.916 314.234 604.674 314.234 604.19C314.234 603.948 313.992 603.706 313.992 603.464C313.75 603.222 313.75 602.738 313.508 602.496C313.266 602.254 313.266 602.012 313.024 601.77C312.782 601.528 312.782 601.286 312.54 601.044C312.056 600.56 311.572 600.076 311.088 599.592C310.846 599.592 310.846 599.35 310.604 599.35C310.362 599.108 309.878 598.866 309.636 598.624L309.394 598.382C308.91 598.14 308.668 597.898 308.184 597.898V568.374L342.306 575.634L347.63 587.008C347.388 587.008 347.388 587.25 347.146 587.25C346.662 587.734 346.178 587.976 345.694 588.702C345.452 588.944 345.21 589.186 345.21 589.428C344.968 589.67 344.968 589.912 344.726 590.154C344.484 590.396 344.484 590.88 344.242 591.122C344.242 591.364 344 591.606 344 591.848C343.758 592.332 343.758 592.574 343.758 593.058C343.758 593.3 343.758 593.542 343.516 593.542C343.516 594.268 343.274 594.752 343.274 595.478C343.274 596.204 343.274 596.688 343.516 597.414C343.516 597.656 343.516 597.898 343.758 597.898C343.758 598.382 344 598.624 344 599.108C344 599.35 344.242 599.592 344.242 599.834C344.484 600.076 344.484 600.56 344.726 600.802C344.968 601.044 344.968 601.286 345.21 601.528C345.452 601.77 345.452 602.012 345.694 602.254C346.178 602.738 346.662 603.222 347.146 603.706C347.388 603.706 347.388 603.948 347.388 603.948C347.63 604.19 348.114 604.432 348.356 604.674L348.598 604.916C350.05 605.642 351.744 606.126 353.438 606.126C359.246 606.126 363.844 601.528 363.844 595.72C363.844 590.396 359.73 586.04 354.406 585.556L347.872 571.52C347.388 570.552 346.42 569.826 345.452 569.584L307.942 561.598V475.204C308.668 475.204 309.394 475.204 309.878 475.204C331.658 475.204 356.1 471.816 380.785 462.136C382.962 460.2 383.688 458.022 382.962 456.086Z" fill="#333333"/>
<path d="M334.078 442.534V395.102" stroke="#331402" stroke-width="3" stroke-miterlimit="10" stroke-linecap="round"/>
<path d="M265.592 453.666C265.592 453.666 326.576 400.426 409.34 453.666C409.34 453.666 348.357 491.176 265.592 453.666Z" fill="#F25C05"/>
<path d="M394.578 459.232C394.578 459.232 392.158 460.684 387.802 462.62C401.354 458.264 409.098 453.424 409.098 453.424C355.374 418.818 310.604 429.224 285.92 440.84C312.056 432.854 350.292 430.676 394.578 459.232Z" fill="#331402"/>
<path d="M265.592 457.538C265.592 457.538 337.466 486.336 409.34 457.538" stroke="#331402" stroke-width="3" stroke-miterlimit="10" stroke-linecap="round"/>
<path d="M334.078 470.364V561.84V609.998" stroke="#2B2C30" stroke-width="3" stroke-miterlimit="10" stroke-linecap="round"/>
<path d="M284.952 591.364L293.906 572.246L334.078 563.534" stroke="#2B2C30" stroke-width="3" stroke-miterlimit="10" stroke-linecap="round" stroke-linejoin="round"/>
<path d="M284.952 605.4C290.7 605.4 295.358 600.741 295.358 594.994C295.358 589.247 290.7 584.588 284.952 584.588C279.205 584.588 274.546 589.247 274.546 594.994C274.546 600.741 279.205 605.4 284.952 605.4Z" fill="#292929"/>
<path d="M288.582 585.313C284.71 586.765 281.806 590.637 281.806 594.993C281.806 599.349 284.71 603.221 288.582 604.673C292.454 603.221 295.359 599.349 295.359 594.993C295.359 590.637 292.454 586.765 288.582 585.313Z" fill="#616161"/>
<path d="M383.205 591.364L374.492 572.246L334.078 563.534" stroke="#2B2C30" stroke-width="3" stroke-miterlimit="10" stroke-linecap="round" stroke-linejoin="round"/>
<path d="M383.205 605.4C388.952 605.4 393.61 600.741 393.61 594.994C393.61 589.247 388.952 584.588 383.205 584.588C377.457 584.588 372.798 589.247 372.798 594.994C372.798 600.741 377.457 605.4 383.205 605.4Z" fill="#292929"/>
<path d="M386.835 585.313C382.963 586.765 380.058 590.637 380.058 594.993C380.058 599.349 382.963 603.221 386.835 604.673C390.707 603.221 393.61 599.349 393.61 594.993C393.61 590.637 390.707 586.765 386.835 585.313Z" fill="#616161"/>
<path d="M334.078 617.5C339.826 617.5 344.484 612.841 344.484 607.094C344.484 601.347 339.826 596.688 334.078 596.688C328.331 596.688 323.672 601.347 323.672 607.094C323.672 612.841 328.331 617.5 334.078 617.5Z" fill="#292929"/>
<path d="M337.708 597.414C333.836 598.866 330.932 602.738 330.932 607.094C330.932 611.45 333.836 615.322 337.708 616.774C341.58 615.322 344.484 611.45 344.484 607.094C344.484 602.738 341.58 598.866 337.708 597.414Z" fill="#616161"/>
<path d="M363.845 413.252H306.975C291.003 413.252 278.176 400.426 278.176 384.454V273.134C278.176 257.162 291.003 244.336 306.975 244.336H363.845C379.817 244.336 392.642 257.162 392.642 273.134V384.454C392.642 400.426 379.575 413.252 363.845 413.252Z" fill="#F25C05"/>
<path d="M363.845 244.336H306.975C299.957 244.336 293.422 246.998 288.34 251.112H344C359.972 251.112 372.798 263.938 372.798 279.91V391.23C372.798 399.942 368.927 407.928 362.635 413.252H363.602C379.574 413.252 392.4 400.426 392.4 384.454V273.134C392.642 257.162 379.575 244.336 363.845 244.336Z" fill="#331402"/>
<path opacity="0.09" d="M602.457 57.2715H449.997V257.647H602.457V57.2715Z" fill="#333333"/>
<path d="M610.927 51.7051H458.467V252.081H610.927V51.7051Z" fill="#F25C05"/>
<path d="M599.068 60.4171H470.082V244.337H599.068V60.4171Z" fill="#1A1A1A"/>
<path d="M470.082 244.337H599.068V222.073H595.922V227.639H593.26V214.813H585.517V197.147H569.545V227.639H564.22V214.813H548.248V227.639H543.892V214.813H535.907V227.639H532.518V189.887H524.532V227.639H521.145V189.887H513.158V227.639H508.318V214.813H492.347V227.639H487.748V197.147H480.73V184.321H478.068V197.147H471.777V227.639H470.082V244.337Z" fill="#4F525D"/>
<path opacity="0.5" d="M591.567 60.4171H470.082V65.9831H591.567V244.337H599.068V65.9831V60.4171H591.567Z" fill="#333333"/>
<g opacity="0.09">
<path d="M570.755 49.5271H444.672V56.3031H570.755V49.5271Z" fill="#333333"/>
<path d="M570.755 59.4491H444.672V66.2251H570.755V59.4491Z" fill="#333333"/>
<path d="M570.755 69.1287H444.672V75.9047H570.755V69.1287Z" fill="#333333"/>
<path d="M570.755 79.0515H444.672V85.8275H570.755V79.0515Z" fill="#333333"/>
<path d="M570.755 88.7311H444.672V95.5071H570.755V88.7311Z" fill="#333333"/>
<path d="M570.755 98.6531H444.672V105.429H570.755V98.6531Z" fill="#333333"/>
<path d="M570.755 108.333H444.672V115.109H570.755V108.333Z" fill="#333333"/>
<path d="M570.755 118.255H444.672V125.031H570.755V118.255Z" fill="#333333"/>
<path d="M570.755 127.935H444.672V134.711H570.755V127.935Z" fill="#333333"/>
<path d="M570.755 137.857H444.672V144.633H570.755V137.857Z" fill="#333333"/>
<path d="M570.755 147.537H444.672V154.313H570.755V147.537Z" fill="#333333"/>
<path d="M570.755 157.459H444.672V164.235H570.755V157.459Z" fill="#333333"/>
<path d="M570.755 167.139H444.672V173.915H570.755V167.139Z" fill="#333333"/>
<path d="M570.755 177.061H444.672V183.837H570.755V177.061Z" fill="#333333"/>
<path d="M570.755 186.741H444.672V193.517H570.755V186.741Z" fill="#333333"/>
<path d="M615.525 49.5271H574.868V56.3031H615.525V49.5271Z" fill="#333333"/>
<path d="M615.525 59.4491H574.868V66.2251H615.525V59.4491Z" fill="#333333"/>
<path d="M615.525 69.1287H574.868V75.9047H615.525V69.1287Z" fill="#333333"/>
<path d="M615.525 79.0515H574.868V85.8275H615.525V79.0515Z" fill="#333333"/>
<path d="M615.525 88.7311H574.868V95.5071H615.525V88.7311Z" fill="#333333"/>
<path d="M615.525 98.6531H574.868V105.429H615.525V98.6531Z" fill="#333333"/>
<path d="M615.525 108.333H574.868V115.109H615.525V108.333Z" fill="#333333"/>
<path d="M615.525 118.255H574.868V125.031H615.525V118.255Z" fill="#333333"/>
<path d="M615.525 127.935H574.868V134.711H615.525V127.935Z" fill="#333333"/>
<path d="M615.525 137.857H574.868V144.633H615.525V137.857Z" fill="#333333"/>
<path d="M615.525 147.537H574.868V154.313H615.525V147.537Z" fill="#333333"/>
<path d="M615.525 157.459H574.868V164.235H615.525V157.459Z" fill="#333333"/>
<path d="M615.525 167.139H574.868V173.915H615.525V167.139Z" fill="#333333"/>
<path d="M615.525 177.061H574.868V183.837H615.525V177.061Z" fill="#333333"/>
<path d="M615.525 186.741H574.868V193.517H615.525V186.741Z" fill="#333333"/>
<path d="M629.803 41.5411H627.383V192.065H629.803V41.5411Z" fill="#333333"/>
<path d="M628.593 197.631C631.667 197.631 634.158 195.139 634.158 192.065C634.158 188.991 631.667 186.499 628.593 186.499C625.519 186.499 623.027 188.991 623.027 192.065C623.027 195.139 625.519 197.631 628.593 197.631Z" fill="#333333"/>
<path d="M641.66 45.1711H436.445C434.509 45.1711 432.815 43.4771 432.815 41.5411C432.815 39.6051 434.509 37.9111 436.445 37.9111H641.66C643.596 37.9111 645.29 39.6051 645.29 41.5411C645.29 43.7191 643.596 45.1711 641.66 45.1711Z" fill="#333333"/>
</g>
<path d="M575.111 46.3806H449.029V53.1566H575.111V46.3806Z" fill="#D9DDF0" fill-opacity="0.35"/>
<path d="M575.111 56.0603H449.029V62.8363H575.111V56.0603Z" fill="#D9DDF0" fill-opacity="0.35"/>
<path d="M575.111 65.9822H449.029V72.7582H575.111V65.9822Z" fill="#D9DDF0" fill-opacity="0.35"/>
<path d="M575.111 75.6629H449.029V82.4389H575.111V75.6629Z" fill="#D9DDF0" fill-opacity="0.35"/>
<path d="M575.111 85.5846H449.029V92.3606H575.111V85.5846Z" fill="#D9DDF0" fill-opacity="0.35"/>
<path d="M575.111 95.2646H449.029V102.041H575.111V95.2646Z" fill="#D9DDF0" fill-opacity="0.35"/>
<path d="M575.111 105.186H449.029V111.962H575.111V105.186Z" fill="#D9DDF0" fill-opacity="0.35"/>
<path d="M575.111 114.867H449.029V121.643H575.111V114.867Z" fill="#D9DDF0" fill-opacity="0.35"/>
<path d="M575.111 124.789H449.029V131.565H575.111V124.789Z" fill="#D9DDF0" fill-opacity="0.35"/>
<path d="M575.111 134.469H449.029V141.245H575.111V134.469Z" fill="#D9DDF0" fill-opacity="0.35"/>
<path d="M575.111 144.391H449.029V151.167H575.111V144.391Z" fill="#D9DDF0" fill-opacity="0.35"/>
<path d="M575.111 154.071H449.029V160.847H575.111V154.071Z" fill="#D9DDF0" fill-opacity="0.35"/>
<path d="M575.111 163.993H449.029V170.769H575.111V163.993Z" fill="#D9DDF0" fill-opacity="0.35"/>
<path d="M575.111 173.673H449.029V180.449H575.111V173.673Z" fill="#D9DDF0" fill-opacity="0.35"/>
<path d="M575.111 183.595H449.029V190.371H575.111V183.595Z" fill="#D9DDF0" fill-opacity="0.35"/>
<path d="M619.881 46.3806H579.225V53.1566H619.881V46.3806Z" fill="#D9DDF0" fill-opacity="0.35"/>
<path d="M619.881 56.0603H579.225V62.8363H619.881V56.0603Z" fill="#D9DDF0" fill-opacity="0.35"/>
<path d="M619.881 65.9822H579.225V72.7582H619.881V65.9822Z" fill="#D9DDF0" fill-opacity="0.35"/>
<path d="M619.881 75.6629H579.225V82.4389H619.881V75.6629Z" fill="#D9DDF0" fill-opacity="0.35"/>
<path d="M619.881 85.5846H579.225V92.3606H619.881V85.5846Z" fill="#D9DDF0" fill-opacity="0.35"/>
<path d="M619.881 95.2646H579.225V102.041H619.881V95.2646Z" fill="#D9DDF0" fill-opacity="0.35"/>
<path d="M619.881 105.186H579.225V111.962H619.881V105.186Z" fill="#D9DDF0" fill-opacity="0.35"/>
<path d="M619.881 114.867H579.225V121.643H619.881V114.867Z" fill="#D9DDF0" fill-opacity="0.35"/>
<path d="M619.881 124.789H579.225V131.565H619.881V124.789Z" fill="#D9DDF0" fill-opacity="0.35"/>
<path d="M619.881 134.469H579.225V141.245H619.881V134.469Z" fill="#D9DDF0" fill-opacity="0.35"/>
<path d="M619.881 144.391H579.225V151.167H619.881V144.391Z" fill="#D9DDF0" fill-opacity="0.35"/>
<path d="M619.881 154.071H579.225V160.847H619.881V154.071Z" fill="#D9DDF0" fill-opacity="0.35"/>
<path d="M619.881 163.993H579.225V170.769H619.881V163.993Z" fill="#D9DDF0" fill-opacity="0.35"/>
<path d="M619.881 173.673H579.225V180.449H619.881V173.673Z" fill="#D9DDF0" fill-opacity="0.35"/>
<path d="M619.881 183.595H579.225V190.371H619.881V183.595Z" fill="#D9DDF0" fill-opacity="0.35"/>
<path d="M634.401 38.3947H631.981V188.919H634.401V38.3947Z" fill="#D9DDF0" fill-opacity="0.35"/>
<path d="M633.191 194.485C636.265 194.485 638.757 191.993 638.757 188.919C638.757 185.845 636.265 183.353 633.191 183.353C630.117 183.353 627.625 185.845 627.625 188.919C627.625 191.993 630.117 194.485 633.191 194.485Z" fill="#D9DDF0" fill-opacity="0.35"/>
<path d="M646.259 42.0246H441.043C439.107 42.0246 437.413 40.3306 437.413 38.3946C437.413 36.4586 439.107 34.7646 441.043 34.7646H646.259C648.195 34.7646 649.889 36.4586 649.889 38.3946C649.889 40.3306 648.195 42.0246 646.259 42.0246Z" fill="#D9DDF0" fill-opacity="0.35"/>
<path d="M597.133 350.333H91.1105V364.127H597.133V350.333Z" fill="#616161"/>
<path d="M563.495 364.127H124.749V382.035H563.495V364.127Z" fill="#343639"/>
<path d="M164.437 382.035H149.917V604.675H164.437V382.035Z" fill="#343639"/>
<path d="M164.437 382.035H149.917V399.459H164.437V382.035Z" fill="#242528"/>
<path d="M543.651 382.035H529.131V604.675H543.651V382.035Z" fill="#343639"/>
<path d="M543.651 382.035H529.131V399.459H543.651V382.035Z" fill="#242528"/>
<path d="M597.375 350.333H91.1105L119.667 338.717H568.819L597.375 350.333Z" fill="#242528"/>
<path d="M552.362 277.49H531.55V313.306H552.362V277.49Z" fill="#616161"/>
<path d="M541.956 304.11V307.256" stroke="#26282A" stroke-width="0.75" stroke-miterlimit="10"/>
<path d="M543.65 300.964L546.312 303.384" stroke="#26282A" stroke-width="0.75" stroke-miterlimit="10"/>
<path d="M540.262 300.964L537.842 303.384" stroke="#26282A" stroke-width="0.75" stroke-miterlimit="10"/>
<path d="M550.427 279.91H533.728V310.886H550.427V279.91Z" stroke="#192442" stroke-width="0.75" stroke-miterlimit="10"/>
<path d="M533.728 295.398H550.427" stroke="#192442" stroke-width="0.75" stroke-miterlimit="10"/>
<path d="M547.038 287.654H544.376" stroke="#26282A" stroke-width="0.75" stroke-miterlimit="10"/>
<path opacity="0.3" d="M531.55 313.307H552.362L531.55 314.759V313.307Z" fill="#333333"/>
<path d="M579.95 277.49H559.138V313.306H579.95V277.49Z" fill="#616161"/>
<path d="M569.544 304.11V307.256" stroke="#26282A" stroke-width="0.75" stroke-miterlimit="10"/>
<path d="M571.238 300.964L573.9 303.384" stroke="#26282A" stroke-width="0.75" stroke-miterlimit="10"/>
<path d="M567.85 300.964L565.43 303.384" stroke="#26282A" stroke-width="0.75" stroke-miterlimit="10"/>
<path d="M578.014 279.91H561.316V310.886H578.014V279.91Z" stroke="#192442" stroke-width="0.75" stroke-miterlimit="10"/>
<path d="M561.316 295.398H578.014" stroke="#192442" stroke-width="0.75" stroke-miterlimit="10"/>
<path d="M574.626 287.654H571.964" stroke="#26282A" stroke-width="0.75" stroke-miterlimit="10"/>
<path opacity="0.3" d="M559.138 313.307H579.95L559.138 314.759V313.307Z" fill="#333333"/>
<path d="M20.5805 365.5L155.581 198H171.581L305.581 365.5H20.5805Z" fill="url(#paint1_linear_759_2130)"/>
<path opacity="0.09" d="M162.501 182.868L162.017 182.626L154.757 178.27C155.483 177.544 156.209 176.576 156.209 175.366C156.209 174.156 155.483 172.946 154.515 172.22V140.034H140.963V3.78839C144.593 3.78839 147.497 3.0624 147.497 2.0944C147.497 1.1264 144.351 0.400391 140.721 0.400391C136.849 0.400391 133.945 1.1264 133.945 2.0944C133.945 3.0624 136.607 3.78839 139.995 3.78839V140.034H129.347V172.22C128.379 172.946 127.653 173.914 127.653 175.366C127.653 176.576 128.137 177.544 129.105 178.27L86.7546 203.922H184.039H197.591L162.501 182.868Z" fill="#333333"/>
<path d="M163.469 159.636V2.33612" stroke="#D4D4D4" stroke-width="0.4808" stroke-miterlimit="10"/>
<path d="M220.339 203.922L177.989 178.27C178.715 177.544 179.441 176.576 179.441 175.366C179.441 174.156 178.715 172.946 177.747 172.22V140.034H152.337V172.22C151.369 172.946 150.643 173.914 150.643 175.366C150.643 176.576 151.127 177.544 152.095 178.27L109.503 203.922H220.339Z" fill="#F25C05"/>
<path d="M177.989 178.27C178.715 177.544 179.441 176.576 179.441 175.366C179.441 174.156 178.715 172.946 177.747 172.22V140.034H164.195V172.22C165.163 172.946 165.889 173.914 165.889 175.366C165.889 176.576 165.405 177.544 164.437 178.27L206.787 203.922H220.339L177.989 178.27Z" fill="#331402"/>
<g opacity="0.2">
<path d="M185.733 182.869L177.989 178.271C177.263 178.755 176.537 179.239 175.569 179.239H159.113L185.733 182.869Z" fill="black"/>
</g>
<path d="M170.729 2.33611C170.729 3.30411 167.583 4.03011 163.953 4.03011C160.081 4.03011 157.177 3.30411 157.177 2.33611C157.177 1.36811 160.323 0.642103 163.953 0.642103C167.583 0.400103 170.729 1.36811 170.729 2.33611Z" fill="#D4D4D4"/>
<path d="M70.7825 524.815C64.0065 483.191 79.0105 468.913 79.7365 468.429L84.5765 473.753C84.3345 473.995 71.7505 486.337 77.8005 523.847L70.7825 524.815Z" fill="#331402"/>
<path d="M70.7825 545.384C70.7825 509.568 44.8885 491.176 44.6465 490.934L48.7605 485.126C49.9705 485.852 77.8005 505.938 77.8005 545.384H70.7825Z" fill="#331402"/>
<path d="M70.7825 508.117C70.7825 472.301 52.6325 453.667 52.3905 453.425L57.4725 448.343C58.1985 449.069 77.8005 469.155 78.0425 508.117H70.7825Z" fill="#331402"/>
<path d="M78.0425 505.938H70.7825V599.35H78.0425V505.938Z" fill="#331402"/>
<path d="M56.2625 478.351C49.4865 467.219 28.9165 468.187 16.3325 474.721C6.16853 480.045 -1.81746 490.451 0.360536 493.839C1.57054 495.775 4.71654 494.081 11.0085 495.533C19.7205 497.469 20.9305 502.309 27.4645 504.729C36.6605 508.359 51.1805 505.697 56.5045 496.017C59.1665 491.177 59.6505 483.675 56.2625 478.351Z" fill="#F25C05"/>
<path d="M42.9525 505.697C48.5185 504.245 53.6005 501.341 56.2625 496.501C58.6825 492.145 59.4085 486.337 57.7145 481.497C56.7465 484.159 56.0205 487.305 53.3585 488.515C49.2445 490.209 46.0985 484.885 37.3865 482.707C27.9485 480.529 19.2365 483.675 19.2365 484.401C19.2365 484.885 22.8665 484.643 30.1265 485.853C34.7245 486.579 38.3545 487.305 42.7105 489.241C47.0665 491.177 50.4545 492.871 50.9385 495.775C51.4225 499.405 46.3405 503.035 42.9525 505.697Z" fill="#331402"/>
<path d="M16.3325 474.72C8.83054 478.592 2.53854 485.368 0.602539 490.208C3.26454 489.724 5.92654 488.03 7.62054 487.062C13.1865 483.674 12.4605 481.496 17.7845 478.108C24.0765 473.994 28.1905 474.962 29.6425 471.816C29.8845 471.332 29.8845 470.848 29.8845 470.606C25.0445 471.09 20.2045 472.784 16.3325 474.72Z" fill="#331402"/>
<path d="M68.6045 541.754C59.8925 536.672 46.3405 544.658 40.0485 553.854C34.9665 561.114 33.5145 571.036 35.9345 572.73C37.3865 573.698 39.0805 571.278 43.6785 570.068C50.2125 568.374 52.8745 571.036 58.1985 570.31C65.7005 569.342 74.6545 562.324 74.8965 553.854C75.1385 549.256 72.7185 544.174 68.6045 541.754Z" fill="#F25C05"/>
<path d="M69.3305 564.986C72.7185 562.082 74.8966 558.21 75.1386 553.854C75.1386 549.982 73.6865 545.868 70.5405 543.206C70.7825 545.384 71.5085 547.804 70.0565 549.498C67.8785 552.16 63.7646 549.498 56.9886 551.434C49.7286 553.37 44.8886 558.694 45.3726 559.178C45.6146 559.42 47.7926 557.968 53.3586 556.274C56.7466 555.064 59.4086 554.338 63.0386 554.096C66.6686 553.854 69.5726 553.854 71.0246 555.548C72.7186 557.726 70.5405 561.84 69.3305 564.986Z" fill="#331402"/>
<path d="M74.4125 453.424C73.4445 440.598 55.2945 432.612 41.5005 432.612C30.3685 432.612 18.9945 438.178 19.2365 442.05C19.2365 444.228 22.8665 444.228 27.7065 448.342C34.2405 453.908 33.2725 458.506 37.8705 463.588C44.1625 470.606 57.9565 474.72 66.6685 468.912C71.2665 465.766 74.8965 459.716 74.4125 453.424Z" fill="#F25C05"/>
<path d="M50.9385 471.091C56.2625 472.301 62.0705 471.817 66.6685 468.913C70.5405 466.251 73.6865 461.653 74.4125 456.571C72.4765 458.507 70.2985 460.926 67.6365 460.684C63.2805 460.442 63.0385 454.392 56.2625 448.584C49.2445 442.534 40.0485 441.325 39.8065 442.051C39.5645 442.535 42.7105 443.745 48.5185 448.101C52.1485 450.763 55.0525 452.941 57.7145 456.571C60.6185 460.201 62.7965 463.104 62.0705 465.766C60.8605 469.396 55.0525 470.365 50.9385 471.091Z" fill="#331402"/>
<path d="M74.4126 454.151C74.4126 453.909 74.4126 453.667 74.4126 453.425C73.4446 442.051 58.4405 434.549 45.6145 433.097C47.3085 435.275 49.4866 436.727 49.7286 436.969C56.5046 442.777 61.1026 441.567 64.7326 447.133C66.9106 450.763 66.4266 453.183 69.0886 454.393C70.5406 454.877 72.7186 454.877 74.4126 454.151Z" fill="#331402"/>
<path d="M68.1205 482.222C78.5265 455.844 72.2345 437.694 72.2345 437.452L76.8325 435.032C77.0745 435.758 83.8505 455.36 72.4765 483.916L68.1205 482.222Z" fill="#331402"/>
<path d="M85.3025 441.808C87.7225 434.306 79.0105 425.352 71.0245 422.206C64.4905 419.786 56.7465 420.27 56.0205 422.69C55.5365 423.9 57.7145 424.868 59.4085 428.256C62.0705 432.854 60.3765 435.516 61.8285 439.388C64.0065 444.954 71.0245 450.52 77.3165 449.068C80.9465 448.1 84.3345 445.438 85.3025 441.808Z" fill="#F25C05"/>
<path d="M67.6365 446.648C70.5405 448.584 73.9285 449.794 77.3165 449.068C80.2205 448.342 83.1245 446.406 84.5765 443.744C83.1245 444.47 81.1885 445.438 79.7365 444.712C77.3165 443.502 78.5265 439.872 75.8645 435.032C73.2025 429.95 68.1205 427.288 67.8785 427.53C67.6365 427.772 69.0885 429.224 71.5085 433.096C72.9605 435.516 74.1705 437.452 74.8965 440.114C75.6225 442.776 76.3485 444.954 75.3805 446.406C73.9285 447.858 70.2985 447.132 67.6365 446.648Z" fill="#331402"/>
<path d="M71.0245 422.206C69.8145 421.722 68.6045 421.48 67.1525 420.996C68.3625 422.448 69.8145 423.9 71.2665 424.868C73.9285 426.562 75.8645 426.562 77.8005 428.982C79.0105 430.676 79.4945 432.37 80.4625 435.032C81.6725 439.388 81.4305 440.84 82.3985 441.324C83.1245 441.566 84.5765 440.598 86.0285 439.146C85.5445 432.128 78.0425 424.868 71.0245 422.206Z" fill="#331402"/>
<path d="M77.0746 483.191C79.7366 455.119 93.5305 441.567 93.5305 441.325L90.6265 436.969C89.9005 437.453 75.1386 451.973 72.2346 482.465L77.0746 483.191Z" fill="#331402"/>
<path d="M80.4625 439.388C81.9145 431.644 93.5305 427.53 102.243 428.498C109.261 429.224 115.795 433.338 115.553 435.758C115.311 436.968 113.133 436.968 109.987 439.146C105.631 442.292 105.873 445.196 102.727 448.1C98.3705 452.214 89.6585 453.908 84.5765 449.552C81.6725 447.374 79.7365 443.26 80.4625 439.388Z" fill="#F25C05"/>
<path d="M94.0146 451.73C90.6265 452.214 86.9965 451.488 84.3345 449.552C81.9145 447.616 80.4625 444.47 80.2205 441.324C81.4305 442.534 82.3985 444.228 84.0925 444.228C86.7545 444.228 87.2385 440.598 91.8365 437.452C96.6765 434.064 102.243 434.064 102.485 434.548C102.485 434.79 100.549 435.516 96.6765 437.694C94.2565 439.146 92.3205 440.356 90.3846 442.534C88.4486 444.712 86.9965 446.406 87.2385 447.858C87.7225 450.278 91.3525 451.004 94.0146 451.73Z" fill="#331402"/>
<path d="M102.001 428.498C98.1285 428.014 93.5305 428.74 89.4165 430.192C90.6265 430.918 91.8365 431.402 92.0785 431.402C95.4665 432.612 96.6765 431.16 103.453 431.644C106.841 431.886 108.777 431.886 109.987 433.096C111.681 434.306 112.165 436 112.407 437.452C114.101 436.726 115.069 436.484 115.069 435.758C115.795 433.338 109.019 429.224 102.001 428.498Z" fill="#331402"/>
<path d="M80.7046 455.844C87.4806 444.712 108.051 445.68 120.635 452.214C130.799 457.538 138.785 467.944 136.607 471.332C135.397 473.268 132.251 471.574 125.959 473.026C117.247 474.962 116.037 479.802 109.503 482.222C100.307 485.852 85.7866 483.19 80.4626 473.51C77.8006 468.67 77.3166 461.41 80.7046 455.844Z" fill="#F25C05"/>
<path d="M94.0145 483.19C88.4485 481.738 83.3665 478.834 80.7045 473.994C78.2845 469.638 77.5585 463.83 79.2525 458.99C80.2205 461.652 80.9465 464.798 83.6085 466.008C87.7225 467.702 90.8685 462.378 99.5805 460.2C109.018 458.022 117.73 461.168 117.73 461.894C117.73 462.378 114.1 462.136 106.84 463.346C102.242 464.072 98.6125 464.798 94.2565 466.734C89.9005 468.67 86.5125 470.364 86.0285 473.268C85.5445 476.898 90.6265 480.528 94.0145 483.19Z" fill="#331402"/>
<path d="M94.2565 512.472C103.937 507.632 118.215 517.07 124.265 527.234C129.105 535.462 130.315 546.352 127.411 547.804C125.717 548.772 124.265 546.11 119.183 544.416C112.165 541.996 109.261 544.9 103.453 543.69C95.4665 542.238 86.2705 534.01 86.7545 524.814C86.7545 519.974 89.6585 514.65 94.2565 512.472Z" fill="#F25C05"/>
<path d="M92.0785 537.398C88.6905 534.01 86.5125 529.654 86.7545 525.056C86.9965 520.942 88.9325 516.586 92.3205 513.924C91.8365 516.102 90.8685 518.764 92.3205 520.7C94.4985 523.604 99.0965 521.184 106.115 523.604C113.617 526.024 118.457 532.316 118.215 532.8C117.973 533.042 115.553 531.348 109.987 529.17C106.357 527.718 103.452 526.508 99.5805 526.266C95.7085 525.782 92.5625 525.54 91.1105 527.234C88.6905 529.412 90.6265 534.01 92.0785 537.398Z" fill="#331402"/>
<path d="M127.895 541.997C128.137 542.239 128.621 542.481 129.105 542.723C129.105 538.367 127.653 532.317 124.507 527.235C121.603 522.395 116.763 517.555 111.681 514.651C111.923 517.797 114.343 521.669 114.585 522.395C117.247 526.751 119.183 526.267 122.329 530.381C126.201 536.189 124.507 539.577 127.895 541.997Z" fill="#331402"/>
<path d="M69.3305 485.61C77.8005 471.816 103.211 473.026 118.941 481.012C131.525 487.546 141.205 500.372 138.785 504.728C137.333 507.148 133.461 505.212 125.717 506.906C115.069 509.326 113.375 515.134 105.389 518.28C94.0145 522.636 76.1065 519.248 69.5725 507.632C65.7005 501.34 65.2165 492.144 69.3305 485.61Z" fill="#F25C05"/>
<path d="M86.0285 519.006C79.2525 517.312 72.9605 513.44 69.5725 507.39C66.6685 502.066 65.7005 495.048 67.8785 488.756C69.0885 492.144 70.0565 496.016 73.2025 497.468C78.2845 499.646 82.1565 492.87 93.0465 490.208C104.663 487.546 115.553 491.418 115.311 492.386C115.311 493.112 110.954 492.628 102 494.08C96.4345 495.048 91.8365 495.774 86.5125 498.436C81.1885 500.856 77.0745 503.034 76.3485 506.422C75.3805 511.504 81.6725 515.86 86.0285 519.006Z" fill="#331402"/>
<path d="M71.0245 560.389C71.0245 558.937 68.8465 522.395 89.6585 519.975L90.3845 526.993C76.3485 528.445 78.0425 559.421 78.0425 559.905L71.0245 560.389Z" fill="#331402"/>
<path d="M96.4345 529.412C108.777 523.12 126.443 535.22 134.187 548.046C140.479 558.452 141.689 572.004 138.059 573.94C136.123 574.908 133.945 571.762 127.653 569.584C118.941 566.68 115.069 570.068 107.809 568.858C97.6445 566.922 86.2705 556.758 86.7545 545.142C86.7545 539.092 90.3845 532.558 96.4345 529.412Z" fill="#F25C05"/>
<path d="M93.2885 560.872C89.1745 556.516 86.2705 551.192 86.5125 545.142C86.7545 540.06 89.1745 534.494 93.5305 531.106C92.8045 534.01 91.8365 537.156 93.5305 539.818C96.1925 543.448 102.001 540.302 110.955 543.448C120.393 546.594 126.443 554.338 125.959 554.822C125.717 555.306 122.571 553.128 115.553 550.224C111.197 548.53 107.325 547.078 102.485 546.352C97.6445 545.868 93.7725 545.384 91.5945 547.562C89.1745 550.708 91.8365 556.758 93.2885 560.872Z" fill="#331402"/>
<path d="M138.3 566.922C138.785 567.164 139.269 567.406 139.753 567.648C139.753 562.324 137.817 554.58 133.945 548.046C130.315 541.996 124.264 535.946 117.73 532.074C117.972 536.188 120.877 540.786 121.603 541.754C124.991 547.32 127.411 546.594 131.283 551.918C136.607 559.42 134.187 563.776 138.3 566.922Z" fill="#331402"/>
<path d="M71.0245 581.927C71.0245 580.475 68.8465 543.933 89.6585 541.513L90.3845 548.531C76.3485 549.983 78.0425 580.959 78.0425 581.443L71.0245 581.927Z" fill="#331402"/>
<path d="M67.6365 509.085C54.3265 501.341 33.5145 513.683 24.0765 527.235C16.3325 538.367 14.1545 553.371 18.0265 555.791C20.2045 557.243 22.6245 553.613 29.8845 551.677C40.0485 549.015 43.9205 553.129 52.1485 552.161C63.5225 550.709 77.0745 540.061 77.3165 527.235C77.5585 520.701 73.9285 512.957 67.6365 509.085Z" fill="#F25C05"/>
<path d="M68.6045 544.659C73.6865 540.061 77.0745 534.253 77.3165 527.719C77.5585 521.911 74.8965 515.619 70.5405 511.505C71.0245 514.651 71.9925 518.523 69.8145 521.185C66.6685 525.299 60.3765 521.185 49.9705 524.089C39.0805 526.993 31.8205 534.979 32.3045 535.947C32.5465 536.431 36.1765 534.253 44.1625 531.591C49.2445 529.897 53.6005 528.445 59.1665 528.203C64.7325 527.961 69.0885 527.719 71.2665 530.381C73.9285 533.527 70.7825 540.061 68.6045 544.659Z" fill="#331402"/>
<path d="M27.7065 532.074C33.5145 526.024 41.9845 517.554 50.6965 519.006C55.5365 519.732 57.7145 523.12 60.3765 521.668C63.0385 520.458 64.4905 515.376 64.0065 511.262C50.9385 507.148 32.7885 518.522 24.0765 531.106C20.9305 535.704 18.7525 540.786 17.3005 545.626C19.7205 541.512 23.1085 536.914 27.7065 532.074Z" fill="#331402"/>
<path d="M91.5945 608.062H56.9885L50.9385 577.328H97.6445L91.5945 608.062Z" fill="#222F36"/>
<path opacity="0.5" d="M53.3585 589.186L96.6765 581.926L96.9185 581.2L51.1805 578.296L53.3585 589.186Z" fill="#333333"/>
<path d="M101.517 581.926H47.5505C45.8565 581.926 44.6465 580.474 44.6465 579.022V575.15C44.6465 573.456 46.0985 572.246 47.5505 572.246H101.517C103.211 572.246 104.421 573.698 104.421 575.15V579.022C104.421 580.716 103.211 581.926 101.517 581.926Z" fill="#616161"/>
<path d="M136.365 467.219C134.187 462.621 128.137 456.087 120.877 452.457C109.261 446.407 90.6266 445.197 82.6406 453.909C85.7866 455.361 90.6266 455.845 91.8366 455.845C103.695 457.055 107.083 451.973 114.585 454.393C121.361 456.329 120.393 460.927 128.137 464.799C130.315 465.767 133.219 466.493 136.365 467.219Z" fill="#331402"/>
<path d="M123.539 483.674C122.087 482.706 120.393 481.738 118.941 481.012C104.663 473.752 82.3985 472.058 72.2345 482.222C73.4445 483.916 75.1385 485.368 77.0745 486.336C83.8505 489.482 89.4165 484.884 101.517 482.948C110.955 481.496 118.457 482.706 123.539 483.674Z" fill="#331402"/>
<path opacity="0.5" d="M468.872 350.333H404.5L420.714 344.767H485.086L468.872 350.333Z" fill="#333333"/>
<path opacity="0.5" d="M306.249 350.333H189.846L206.06 344.767H322.705L306.249 350.333Z" fill="#333333"/>
<path d="M467.663 325.89C467.663 325.89 485.571 282.33 504.689 300.238C504.689 300.48 480.247 299.754 467.663 325.89Z" fill="#F25C05"/>
<path d="M465.968 303.868C465.968 303.868 460.887 257.162 486.297 263.454C486.297 263.696 464.516 274.828 465.968 303.868Z" fill="#331402"/>
<path d="M467.179 325.648C467.179 325.648 460.645 279.184 437.413 291.768C437.655 291.768 461.371 297.092 467.179 325.648Z" fill="#F25C05"/>
<path d="M468.873 325.648C468.873 325.648 453.385 298.544 442.011 311.854C442.253 311.854 458.225 309.434 468.873 325.648Z" fill="#F25C05"/>
<path d="M465.968 331.214C465.968 331.214 476.616 254.742 434.508 264.18C434.508 263.938 469.84 283.298 465.968 331.214Z" fill="#F25C05"/>
<path d="M466.453 321.05C466.453 321.05 475.891 232.72 446.125 240.948C446.125 240.948 470.083 273.134 466.453 321.05Z" fill="#F25C05"/>
<path d="M465.001 325.648C465.001 325.648 473.955 250.386 505.415 266.6C505.415 266.6 472.019 286.928 465.001 325.648Z" fill="#F25C05"/>
<path d="M505.415 266.601C498.397 262.971 492.589 263.939 487.749 267.327C488.959 267.085 490.169 267.085 490.895 267.811C491.863 268.779 491.621 270.957 491.137 272.409C488.233 283.299 477.101 290.801 478.069 292.253C478.069 292.495 478.311 292.495 478.795 292.495C490.895 275.555 505.415 266.601 505.415 266.601Z" fill="#331402"/>
<path d="M465.968 329.279C465.968 329.279 473.47 266.359 504.93 282.573C504.93 282.573 472.986 290.559 465.968 329.279Z" fill="#F25C05"/>
<path d="M504.93 282.572C496.944 278.458 490.41 279.426 485.328 283.298C486.538 283.056 487.99 282.814 489.442 283.056C490.41 283.056 492.83 283.298 493.072 284.266C493.556 285.718 488.475 287.412 483.877 291.284C482.909 292.01 474.922 298.302 476.132 300.964C476.374 301.448 476.859 301.932 477.827 301.932C489.443 286.444 504.93 282.572 504.93 282.572Z" fill="#331402"/>
<path d="M486.538 299.271C483.876 302.417 482.182 306.047 481.94 308.467C493.314 300.239 504.688 300.481 504.688 300.481C498.154 294.431 491.862 295.399 486.538 299.271Z" fill="#331402"/>
<path d="M478.795 344.766H454.111L449.755 322.744H483.151L478.795 344.766Z" fill="#222F36"/>
<path opacity="0.5" d="M451.449 331.215L482.425 325.891L482.667 325.407L449.755 323.471L451.449 331.215Z" fill="#333333"/>
<path d="M485.571 325.89H447.818C446.366 325.89 445.398 324.68 445.398 323.47V321.292C445.398 319.84 446.608 318.872 447.818 318.872H485.571C487.023 318.872 487.991 320.082 487.991 321.292V323.47C487.991 324.922 487.023 325.89 485.571 325.89Z" fill="#616161"/>
<path d="M448.303 240.464C449.513 242.158 451.207 243.852 452.901 246.03C458.709 253.048 459.193 253.29 460.887 255.71C464.033 260.55 465.243 264.18 466.211 266.842C464.033 251.354 458.951 239.254 448.303 240.464Z" fill="#331402"/>
<path d="M422.065 338.249L421.75 344.775L457.523 346.5L457.838 339.974L422.065 338.249Z" fill="#F25C05"/>
<path d="M465 343.556L457.498 346.46L457.74 339.926L465 343.556Z" fill="#FAD16E"/>
<path d="M419.263 340.652V341.862C419.263 343.314 420.231 344.524 421.683 344.524L421.925 337.99C420.715 337.99 419.505 339.2 419.263 340.652Z" fill="#484773"/>
<path d="M320.769 343.073H209.449L213.079 337.991H331.659L320.769 343.073Z" fill="#192442"/>
<path d="M320.769 343.073H280.597V345.493H320.769V343.073Z" fill="#222F36"/>
<path d="M320.769 345.493L331.659 340.411V337.991L320.769 343.073V345.493Z" fill="#222F36"/>
<path d="M313.508 345.493H210.9C207.028 345.493 203.64 342.347 203.64 338.233L183.555 276.765C183.555 272.893 186.701 269.505 190.815 269.505H293.422C297.294 269.505 300.682 272.651 300.682 276.765L320.768 338.233C320.768 342.347 317.622 345.493 313.508 345.493Z" fill="#222F36"/>
<path d="M248.411 309.193C250.105 312.581 249.137 316.453 246.233 317.663C243.571 318.873 239.941 317.421 238.247 314.033C236.553 310.645 237.521 306.773 240.425 305.563C243.329 304.353 246.717 305.805 248.411 309.193Z" fill="#486473"/>
<path d="M300.683 276.765C300.683 272.893 297.536 269.505 293.423 269.505H190.815C188.153 269.505 185.975 270.957 184.765 273.135C185.975 272.167 187.426 271.683 189.12 271.683H291.729C295.601 271.683 298.989 274.829 298.989 278.943L319.075 340.411C319.075 341.863 318.59 343.073 318.106 344.041C319.8 342.831 320.769 340.653 320.769 338.475L300.683 276.765Z" fill="#192442"/>
<defs>
<linearGradient id="paint0_linear_759_2130" x1="294.875" y1="601.286" x2="294.875" y2="619.678" gradientUnits="userSpaceOnUse">
<stop stop-color="#F25C05" stop-opacity="0.31"/>
<stop offset="1" stop-color="#070707" stop-opacity="0"/>
</linearGradient>
<linearGradient id="paint1_linear_759_2130" x1="153.08" y1="136" x2="153.33" y2="365.5" gradientUnits="userSpaceOnUse">
<stop stop-color="white"/>
<stop offset="0.501928" stop-color="#676767" stop-opacity="0.389037"/>
<stop offset="0.821537" stop-color="#070707" stop-opacity="0"/>
</linearGradient>
</defs>
</svg>
