<svg width="1160" height="689" viewBox="0 0 1160 689" fill="none" xmlns="http://www.w3.org/2000/svg">
<path fill-rule="evenodd" clip-rule="evenodd" d="M0 686.75C0 687.537 0.617858 688.155 1.40422 688.155C1.66579 688.155 1.90871 688.086 2.11646 687.966L330.048 515.604L304.773 528.647L304.872 487.798L329.799 477.577L330.048 515.604L330.105 472.747L329.992 344.233L329.487 215.662L329.206 172.861L2.11719 0.892644C1.90928 0.772196 1.6661 0.703674 1.40422 0.703674C0.617858 0.703674 0 1.32153 0 2.1079V686.75ZM329.206 172.861L329.156 210.877L304.292 200.694L304.043 159.873L329.206 172.861ZM304.66 528.705L304.412 487.986L279.709 498.115L279.61 541.632L304.66 528.705ZM279.495 541.691L279.248 498.303L254.482 508.458L254.334 554.675L279.495 541.691ZM254.107 554.793L253.861 508.712L229.262 518.798L229.115 567.689L254.107 554.793ZM228.662 567.923L228.417 519.144L204.098 529.115L203.951 580.674L228.662 567.923ZM203.386 580.966L203.142 529.507L178.934 539.432L178.788 593.66L203.386 580.966ZM177.996 594.068L177.753 539.917L153.77 549.75L153.625 606.645L177.996 594.068ZM152.609 607.169L152.366 550.325L128.607 560.067L128.461 619.63L152.609 607.169ZM127.221 620.27L127.027 560.714L103.393 570.404L103.297 632.616L127.221 620.27ZM101.833 633.371L101.688 571.104L78.1802 580.742L78.1321 645.602L101.833 633.371ZM76.3323 646.53L76.2359 581.539L53.1042 591.023L53.0802 658.529L76.3323 646.53ZM50.9444 659.631L50.8843 591.933L27.9282 601.345L27.9162 671.515L50.9444 659.631ZM25.4442 672.79L25.4202 602.373L2.80844 611.644V684.471L25.4442 672.79ZM25.4192 599.526L2.80844 608.585V535.64L25.3951 528.996L25.4192 599.526ZM50.882 589.324L27.9286 598.52L27.9406 528.247L50.8217 521.518L50.882 589.324ZM76.2323 579.167L53.1052 588.433L53.1292 520.839L76.1358 514.072L76.2323 579.167ZM101.683 568.971L78.182 578.386L78.2301 513.456L101.58 506.588L101.683 568.971ZM127.021 558.819L103.396 568.284L103.407 561.55V506.051L126.912 499.137L126.998 551.777L127.021 558.819ZM152.359 548.667L128.611 558.182L128.627 551.777V498.633L152.244 491.686L152.33 541.835L152.359 548.667ZM177.747 538.496L153.774 548.1L153.79 541.835V491.232L177.632 484.219L177.718 532.061L177.747 538.496ZM203.136 528.324L178.938 538.019L178.954 532.061V483.83L202.978 476.764L203.107 522.119L203.136 528.324ZM228.412 518.197L204.101 527.937L204.118 522.119V476.429L228.253 469.33L228.383 512.29L228.412 518.197ZM253.857 508.002L229.265 517.855L229.281 512.29V469.028L253.698 461.846L253.827 502.348L253.857 508.002ZM279.246 497.83L254.484 507.751L254.501 502.348V461.61L279.085 454.379L279.216 492.575L279.246 497.83ZM304.41 487.748L279.71 497.644L279.721 492.575V454.192L304.249 446.978L304.379 482.633L304.41 487.748ZM329.799 477.576L304.873 487.563L304.885 482.633V446.791L329.637 439.51L329.768 472.747L329.799 477.576ZM329.637 439.508L329.487 401.406L304.866 405.803L304.885 446.568L329.637 439.508ZM304.248 446.75L304.099 405.94L279.702 410.296L279.721 453.745L304.248 446.75ZM279.084 453.927L278.936 410.433L254.501 414.796V460.939L279.084 453.927ZM253.695 461.169L253.548 414.967L229.281 419.3V468.132L253.695 461.169ZM228.251 468.426L228.122 419.507L204.136 423.79L204.118 475.31L228.251 468.426ZM202.975 475.636L202.846 424.02L178.972 428.283L178.954 482.487L202.975 475.636ZM177.63 482.865L177.514 428.544L153.809 432.776L153.79 489.664L177.63 482.865ZM152.242 490.106L152.145 433.074L128.645 437.27L128.627 496.841L152.242 490.106ZM126.909 497.331L126.812 437.597L103.425 441.773L103.407 504.035L126.909 497.331ZM101.577 504.557L101.499 442.117L78.2615 446.267L78.2318 511.215L101.577 504.557ZM76.1324 511.814L76.0723 446.658L53.1541 450.75L53.1301 518.375L76.1324 511.814ZM50.8195 519.034L50.7592 451.178L27.9531 455.25L27.9411 525.56L50.8195 519.034ZM25.3942 526.286L25.3701 455.711L2.80844 459.74V532.728L25.3942 526.286ZM25.3692 453.026L2.80844 456.856V383.807L25.3451 382.391L25.3692 453.026ZM50.757 448.717L27.9536 452.587L27.9656 382.226L50.6966 380.798L50.757 448.717ZM76.0706 444.42L53.155 448.31L53.179 380.642L76.0222 379.207L76.0706 444.42ZM101.496 440.104L78.2624 444.048L78.2864 379.065L101.424 377.612L101.496 440.104ZM126.81 435.807L103.426 439.776L103.45 377.484L126.712 376.023L126.81 435.807ZM152.142 431.507L128.646 435.495L128.67 375.9L152.044 374.432L152.142 431.507ZM177.511 427.201L153.81 431.224L153.834 374.319L177.389 372.839L177.511 427.201ZM202.844 422.901L178.973 426.953L178.997 372.738L202.721 371.248L202.844 422.901ZM228.12 418.61L204.137 422.681L204.161 371.158L227.997 369.66L228.12 418.61ZM253.546 414.295L229.281 418.413V369.579L253.398 368.064L253.546 414.295ZM278.934 409.985L254.501 414.132V367.995L278.786 366.47L278.934 409.985ZM304.098 405.714L279.702 409.855L279.678 366.414L303.949 364.889L304.098 405.714ZM329.487 401.404L304.866 405.583L304.841 364.833L329.337 363.294L329.487 401.404ZM329.337 363.291L329.262 344.233L329.25 325.173L304.754 323.873L304.829 344.233L304.841 364.62L329.337 363.291ZM303.948 364.668L303.874 344.233L303.861 323.826L279.591 322.539L279.665 344.289L279.677 365.984L303.948 364.668ZM278.784 366.033L278.71 344.289L278.698 322.491L254.428 321.204L254.501 344.233V367.35L278.784 366.033ZM253.396 367.41L253.322 344.233V321.145L229.22 319.867L229.281 344.289V368.718L253.396 367.41ZM227.995 368.787L227.933 344.289V319.798L204.113 318.535L204.174 344.289L204.162 370.08L227.995 368.787ZM202.719 370.158L202.657 344.289L202.67 318.458L178.949 317.2L179.01 344.345L178.998 371.445L202.719 370.158ZM177.386 371.532L177.325 344.345L177.337 317.114L153.798 315.866L153.847 344.289L153.834 372.809L177.386 371.532ZM152.042 372.907L151.993 344.289L152.005 315.771L128.635 314.531L128.683 344.345L128.671 374.174L152.042 372.907ZM126.71 374.28L126.661 344.345L126.673 314.427L103.427 313.194L103.463 344.289L103.451 375.542L126.71 374.28ZM101.421 375.652L101.385 344.289L101.397 313.086L78.2751 311.86L78.2993 344.401L78.2872 376.907L101.421 375.652ZM76.0206 377.03L75.9964 344.401L76.0085 311.739L53.1618 310.527L53.1919 344.401L53.1798 378.268L76.0206 377.03ZM50.6945 378.403L50.6643 344.401L50.6764 310.396L27.96 309.191L27.966 379.636L50.6945 378.403ZM25.3442 379.778L25.3382 309.052L2.80844 307.856V381L25.3442 379.778ZM25.3386 306.439L2.80844 305.05V232.001L25.3506 235.804L25.3386 306.439ZM50.6772 308L27.9592 306.6L27.9351 236.24L50.7014 240.08L50.6772 308ZM76.0093 309.562L53.1597 308.153L53.0995 240.485L76.0335 244.353L76.0093 309.562ZM101.398 311.127L78.2735 309.701L78.2253 244.723L101.422 248.636L101.398 311.127ZM126.674 312.684L103.425 311.251L103.352 248.962L126.698 252.9L126.674 312.684ZM152.006 314.246L128.632 312.805L128.535 253.21L152.03 257.173L152.006 314.246ZM177.338 315.807L153.796 314.356L153.698 257.455L177.362 261.447L177.338 315.807ZM202.67 317.368L178.946 315.906L178.825 261.693L202.695 265.72L202.67 317.368ZM227.933 318.925L204.11 317.457L203.988 265.938L227.933 269.978V318.925ZM253.322 320.49L229.218 319.004L229.095 270.174L253.322 274.26V320.49ZM278.698 322.054L254.426 320.558L254.278 274.422L278.673 278.537L278.698 322.054ZM303.861 323.605L279.589 322.109L279.441 278.667L303.836 282.782L303.861 323.605ZM329.25 325.17L304.754 323.66L304.605 282.911L329.225 287.065L329.25 325.17ZM329.225 287.062L329.193 248.975L304.455 241.938L304.604 282.692L329.225 287.062ZM303.836 282.555L303.818 241.756L279.292 234.779L279.44 278.225L303.836 282.555ZM278.673 278.088L278.654 234.598L254.128 227.621L254.276 273.757L278.673 278.088ZM253.322 273.588V227.392L228.965 220.463L229.093 269.287L253.322 273.588ZM227.933 269.081V220.17L203.858 213.321L203.986 264.83L227.933 269.081ZM202.695 264.601L202.713 212.995L178.706 206.166L178.822 260.363L202.695 264.601ZM177.363 260.104L177.381 205.789L153.599 199.024L153.696 255.903L177.363 260.104ZM152.031 255.607L152.049 198.583L128.435 191.866L128.532 251.436L152.031 255.607ZM126.699 251.11L126.717 191.377L103.272 184.707L103.35 246.965L126.699 251.11ZM101.423 246.623L101.441 184.187L78.1641 177.565L78.2237 242.505L101.423 246.623ZM76.0343 242.116L76.0644 176.968L53.0373 170.417L53.0974 238.044L76.0343 242.116ZM50.7022 237.619L50.7263 169.76L27.9102 163.269L27.9342 233.578L50.7022 237.619ZM25.3511 233.119L25.3631 162.545L2.80844 156.129V229.117L25.3511 233.119ZM25.3636 159.835L2.80844 153.218V80.2729L25.3756 89.3044L25.3636 159.835ZM50.7272 167.277L27.9093 160.582L27.8854 90.3088L50.7513 99.4599L50.7272 167.277ZM76.0661 174.71L53.0351 167.954L52.975 100.35L76.1144 109.61L76.0661 174.71ZM101.441 182.155L78.1608 175.325L78.0645 110.391L101.452 119.751L101.441 127.027V182.155ZM126.717 189.571L103.268 182.691L103.167 120.437L126.734 129.869L126.717 136.913V189.571ZM152.049 197.002L128.432 190.074L128.346 136.913L128.325 130.505L152.066 140.007L152.049 146.743V197.002ZM177.381 204.434L153.596 197.456L153.51 146.743L153.483 140.574L177.399 150.145L177.381 156.628V204.434ZM202.713 211.866L178.703 204.822L178.617 156.628L178.59 150.622L202.731 160.283L202.713 166.458V211.866ZM227.933 219.265L203.855 212.201L203.725 166.458L203.697 160.67L227.951 170.376L227.933 176.288V219.265ZM253.322 226.714L228.962 219.567L228.832 176.288L228.804 170.718L253.34 180.537L253.322 186.117V226.714ZM278.654 234.146L254.126 226.95L253.996 186.117L253.967 180.788L278.666 190.673L278.654 196.003V234.146ZM303.818 241.528L279.29 234.333L279.159 196.003L279.13 190.858L303.83 200.743L303.818 205.832V241.528ZM329.193 248.973L304.454 241.715L304.323 205.832L304.293 200.929L329.156 210.879L329.15 215.662L329.193 248.973ZM303.831 200.505L303.93 159.815L278.88 146.885L279.128 190.387L303.831 200.505ZM278.667 190.198L278.766 146.826L253.717 133.897L253.963 180.08L278.667 190.198ZM253.342 179.826L253.489 133.779L228.554 120.909L228.799 169.774L253.342 179.826ZM227.954 169.428L228.101 120.675L203.447 107.949L203.691 159.49L227.954 169.428ZM202.734 159.098L202.881 107.657L178.34 94.9902L178.584 149.207L202.734 159.098ZM177.402 148.723L177.548 94.5814L153.234 82.0311L153.476 138.923L177.402 148.723ZM152.071 138.348L152.216 81.5059L128.126 69.0713L128.319 128.62L152.071 138.348ZM126.739 127.973L126.884 68.4304L103.017 56.1112L103.162 118.316L126.739 127.973ZM101.456 117.617L101.552 55.3551L77.9648 43.1802L78.061 108.035L101.456 117.617ZM76.1162 107.239L76.1644 42.2509L52.9127 30.2492L52.9727 97.7598L76.1162 107.239ZM50.7523 96.8503L50.7763 29.1465L27.8604 17.3182L27.8844 87.4842L50.7523 96.8503ZM25.3761 86.4569L25.3881 16.0421L2.80844 4.38733V77.2138L25.3761 86.4569Z" fill="white"/>
<path fill-rule="evenodd" clip-rule="evenodd" d="M232.033 686.75C232.033 687.537 232.651 688.155 233.438 688.155C233.802 688.155 234.131 688.022 234.378 687.801L234.393 687.818L428.962 515.604L414.021 528.541L414.121 487.721L428.763 477.62L428.962 515.604L429.074 472.747V344.233L428.737 215.662L428.513 172.861L234.393 1.04068L234.378 1.05745C234.131 0.836535 233.802 0.703674 233.438 0.703674C232.651 0.703674 232.033 1.32153 232.033 2.1079V686.75ZM428.513 172.861L428.413 210.837L413.765 200.744L413.516 159.877L428.513 172.861ZM413.908 528.639L413.66 488.038L399.117 498.071L398.969 541.574L413.908 528.639ZM398.853 541.674L398.608 498.422L384.12 508.417L383.972 554.56L398.853 541.674ZM383.744 554.757L383.5 508.844L369.179 518.724L369.032 567.496L383.744 554.757ZM368.578 567.889L368.335 519.306L354.237 529.031L354.091 580.433L368.578 567.889ZM353.525 580.924L353.282 529.69L339.297 539.338L339.151 593.37L353.525 580.924ZM338.359 594.056L338.117 540.152L324.355 549.645L324.21 606.307L338.359 594.056ZM323.194 607.186L323.001 550.579L309.471 559.913L309.326 619.194L323.194 607.186ZM308.084 620.27L307.892 561.002L294.473 570.259L294.329 632.18L308.084 620.27ZM292.863 633.449L292.719 571.469L279.571 580.539L279.499 645.022L292.863 633.449ZM277.698 646.581L277.602 581.897L264.593 590.872L264.557 657.96L277.698 646.581ZM262.421 659.809L262.373 592.403L249.739 601.118L249.727 670.8L262.421 659.809ZM247.255 672.941L247.231 602.848L234.842 611.395V683.689L247.255 672.941ZM247.23 599.713L234.842 608.045V535.492L247.206 529.37L247.23 599.713ZM262.371 589.53L249.74 598.025L249.752 528.11L262.323 521.886L262.371 589.53ZM277.598 579.288L264.594 588.034L264.63 520.744L277.502 514.371L277.598 579.288ZM292.714 569.122L279.573 577.959L279.645 513.31L292.654 506.869L292.696 561.55L292.714 569.122ZM307.885 558.918L294.479 567.935L294.493 561.55L294.537 505.937L307.777 499.382L307.862 551.777L307.885 558.918ZM322.995 548.755L309.476 557.848L309.491 551.777L309.534 498.512L322.886 491.901L322.971 541.835L322.995 548.755ZM338.11 538.589L324.36 547.837L324.375 541.835L324.419 491.142L337.995 484.421L338.08 532.061L338.11 538.589ZM353.276 528.389L339.301 537.788L339.316 532.061L339.36 483.745L353.16 476.913L353.246 522.119L353.276 528.389ZM368.329 518.264L354.241 527.739L354.257 522.119L354.3 476.348L368.214 469.46L368.299 512.29L368.329 518.264ZM383.496 508.063L369.182 517.69L369.198 512.29L369.242 468.951L383.379 461.951L383.465 502.348L383.496 508.063ZM398.605 497.901L384.122 507.642L384.139 502.348L384.183 461.553L398.488 454.471L398.574 492.575L398.605 497.901ZM413.659 487.776L399.119 497.555L399.136 492.575V454.15L413.541 447.018L413.628 482.633L413.659 487.776ZM428.763 477.617L414.121 487.465L414.133 482.633V446.725L428.65 439.538L428.737 472.747L428.763 477.617ZM428.65 439.534L428.55 401.429L414.133 405.757V446.489L428.65 439.534ZM413.54 446.773L413.441 405.965L399.155 410.254L399.136 453.674L413.54 446.773ZM398.487 453.985L398.388 410.484L384.214 414.739L384.183 460.838L398.487 453.985ZM383.377 461.224L383.279 415.02L369.273 419.224L369.243 467.996L383.377 461.224ZM368.212 468.49L368.113 419.573L354.332 423.71L354.302 475.154L368.212 468.49ZM353.158 475.701L353.06 424.092L339.409 428.19L339.361 482.311L353.158 475.701ZM337.992 482.967L337.895 428.644L324.469 432.675L324.42 489.469L337.992 482.967ZM322.883 490.206L322.786 433.18L309.565 437.149L309.536 496.6L322.883 490.206ZM307.774 497.444L307.695 437.71L294.568 441.651L294.538 503.785L307.774 497.444ZM292.652 504.689L292.585 442.246L279.683 446.119L279.648 510.919L292.652 504.689ZM277.498 511.949L277.438 446.793L264.667 450.627L264.631 518.113L277.498 511.949ZM262.321 519.22L262.273 451.346L249.764 455.101L249.752 525.241L262.321 519.22ZM247.205 526.462L247.181 455.877L234.842 459.581V532.385L247.205 526.462ZM247.18 453.156L234.842 456.676V383.757L247.156 382.456L247.18 453.156ZM262.271 448.852L249.764 452.419L249.776 382.18L262.222 380.865L262.271 448.852ZM277.436 444.527L264.669 448.168L264.705 380.603L277.388 379.263L277.436 444.527ZM292.583 440.207L279.684 443.886L279.708 379.018L292.51 377.665L292.583 440.207ZM307.693 435.897L294.569 439.64L294.593 377.445L307.62 376.069L307.693 435.897ZM322.783 431.593L309.566 435.363L309.59 375.861L322.686 374.477L322.783 431.593ZM337.892 427.283L324.47 431.112L324.518 374.284L337.795 372.881L337.892 427.283ZM353.058 422.958L339.411 426.85L339.459 372.705L352.96 371.279L353.058 422.958ZM368.112 418.664L354.332 422.594L354.357 371.132L368.013 369.689L368.112 418.664ZM383.277 414.338L369.273 418.333L369.298 369.553L383.179 368.087L383.277 414.338ZM398.387 410.029L384.214 414.071L384.239 367.975L398.288 366.491L398.387 410.029ZM413.44 405.735L399.155 409.81L399.18 366.396L413.341 364.9L413.44 405.735ZM428.55 401.426L414.133 405.538V364.817L428.45 363.304L428.55 401.426ZM428.45 363.3L428.4 344.233V325.166L414.084 323.89L414.133 344.233V364.605L428.45 363.3ZM413.34 364.677L413.291 344.233V323.82L399.143 322.559L399.192 344.289L399.18 365.967L413.34 364.677ZM398.287 366.048L398.237 344.289L398.25 322.479L384.202 321.227L384.251 344.233L384.239 367.328L398.287 366.048ZM383.178 367.425L383.128 344.233L383.14 321.132L369.262 319.895L369.31 344.289L369.298 368.69L383.178 367.425ZM368.012 368.807L367.962 344.289L367.975 319.781L354.321 318.564L354.369 344.289L354.357 370.051L368.012 368.807ZM352.958 370.179L352.909 344.289L352.921 318.439L339.436 317.237L339.485 344.345L339.46 371.409L352.958 370.179ZM337.792 371.561L337.744 344.345L337.768 317.088L324.495 315.905L324.544 344.289L324.52 372.77L337.792 371.561ZM322.683 372.937L322.634 344.289L322.658 315.741L309.567 314.575L309.603 344.345L309.591 374.13L322.683 372.937ZM307.618 374.31L307.581 344.345L307.593 314.399L294.57 313.238L294.606 344.289L294.594 375.497L307.618 374.31ZM292.508 375.687L292.471 344.289L292.483 313.052L279.697 311.912L279.721 344.401L279.709 376.853L292.508 375.687ZM277.386 377.065L277.362 344.401L277.374 311.705L264.7 310.575L264.724 344.401L264.706 378.22L277.386 377.065ZM262.221 378.447L262.197 344.401L262.215 310.354L249.771 309.245L249.777 379.58L262.221 378.447ZM247.155 379.819L247.149 309.011L234.842 307.914V380.941L247.155 379.819ZM247.149 306.374L234.842 305.099V232.18L247.162 235.672L247.149 306.374ZM262.216 307.936L249.77 306.646L249.746 236.404L262.252 239.949L262.216 307.936ZM277.375 309.507L264.698 308.193L264.65 240.629L277.399 244.243L277.375 309.507ZM292.484 311.074L279.695 309.748L279.647 244.88L292.509 248.526L292.484 311.074ZM307.594 312.64L294.567 311.29L294.495 249.089L307.618 252.809L307.594 312.64ZM322.66 314.202L309.565 312.844L309.492 253.34L322.709 257.086L322.66 314.202ZM337.769 315.768L324.493 314.392L324.396 257.564L337.818 261.369L337.769 315.768ZM352.922 317.338L339.434 315.94L339.337 261.799L352.946 265.657L352.922 317.338ZM367.975 318.899L354.318 317.483L354.221 266.018L368 269.924L367.975 318.899ZM383.141 320.471L369.26 319.032L369.162 270.254L383.165 274.223L383.141 320.471ZM398.25 322.037L384.201 320.581L384.103 274.489L398.275 278.506L398.25 322.037ZM413.291 323.596L399.142 322.129L399.043 278.724L413.291 282.762V323.596ZM428.4 325.162L414.083 323.678L413.984 282.959L428.4 287.045V325.162ZM428.4 287.042V248.919L413.884 241.986L413.983 282.739L428.4 287.042ZM413.291 282.532V241.702L398.944 234.85L399.042 278.28L413.291 282.532ZM398.275 278.051L398.294 234.539L384.003 227.714L384.101 273.821L398.275 278.051ZM383.166 273.542L383.196 227.329L369.062 220.578L369.16 269.362L383.166 273.542ZM368 269.016L368.031 220.085L354.121 213.442L354.219 264.903L368 269.016ZM352.947 264.523L352.977 212.895L339.237 206.332L339.334 260.461L352.947 264.523ZM337.819 260.009L337.868 205.679L324.296 199.196L324.393 256.002L337.819 260.009ZM322.71 255.499L322.759 198.462L309.412 192.087L309.49 251.554L322.71 255.499ZM307.619 250.995L307.649 191.245L294.426 184.93L294.493 247.078L307.619 250.995ZM292.509 246.486L292.54 184.029L279.586 177.842L279.646 242.647L292.509 246.486ZM277.4 241.977L277.436 176.815L264.601 170.684L264.649 238.171L277.4 241.977ZM262.254 237.456L262.29 169.581L249.721 163.578L249.745 233.723L262.254 237.456ZM247.162 232.953L247.174 162.361L234.842 156.471V229.276L247.162 232.953ZM247.175 159.454L234.842 153.366V80.8115L247.187 89.1038L247.175 159.454ZM262.291 166.916L249.72 160.71L249.696 90.7897L262.327 99.2743L262.291 166.916ZM277.439 174.393L264.599 168.055L264.551 100.768L277.511 109.474L277.439 174.393ZM292.541 181.849L279.583 175.452L279.487 110.801L292.601 119.61L292.584 127.027L292.541 181.849ZM307.651 189.308L294.424 182.778L294.381 127.027L294.367 120.796L307.711 129.76L307.693 136.913L307.651 189.308ZM322.76 196.766L309.409 190.175L309.322 136.913L309.302 130.829L322.82 139.909L322.803 146.743L322.76 196.766ZM337.869 204.225L324.293 197.523L324.207 146.743L324.187 140.827L337.93 150.059L337.912 156.628L337.869 204.225ZM352.978 211.684L339.234 204.899L339.148 156.628L339.122 150.86L353.039 160.208L353.021 166.458L352.978 211.684ZM368.032 219.115L354.119 212.247L354.032 166.458L354.006 160.858L368.093 170.32L368.075 176.288L368.032 219.115ZM383.197 226.601L369.06 219.622L368.973 176.288L368.946 170.894L383.258 180.508L383.24 186.117L383.197 226.601ZM398.294 234.053L384.002 226.998L383.914 186.117L383.887 180.93L398.312 190.619L398.294 196.003V234.053ZM413.291 241.457L398.942 234.374L398.855 196.003L398.827 190.965L413.303 200.69L413.291 205.832V241.457ZM428.4 248.915L413.884 241.749L413.796 205.832L413.767 201.001L428.413 210.839L428.4 215.662V248.915ZM413.304 200.426L413.403 159.779L398.577 146.941L398.824 190.449L413.304 200.426ZM398.314 190.098L398.461 146.841L383.637 134.005L383.883 180.154L398.314 190.098ZM383.261 179.726L383.408 133.807L368.696 121.069L368.941 169.86L383.261 179.726ZM368.096 169.277L368.242 120.676L353.756 108.132L354 159.565L368.096 169.277ZM353.043 158.905L353.189 107.641L338.872 95.2453L339.115 149.309L353.043 158.905ZM337.934 148.495L338.079 94.5585L323.987 82.3567L324.18 139.019L337.934 148.495ZM322.825 138.085L322.97 81.4758L309.103 69.4692L309.296 128.763L322.825 138.085ZM307.716 127.674L307.86 68.3932L294.217 56.58L294.361 118.473L307.716 127.674ZM292.606 117.264L292.751 55.3101L279.387 43.7392L279.483 108.221L292.606 117.264ZM277.514 106.864L277.586 42.1795L264.501 30.8499L264.549 97.9314L277.514 106.864ZM262.329 96.4017L262.365 29.0001L249.672 18.0095L249.695 87.6971L262.329 96.4017ZM247.187 85.9689L247.199 15.8687L234.842 5.16904V77.4628L247.187 85.9689Z" fill="white"/>
<path fill-rule="evenodd" clip-rule="evenodd" d="M464.068 686.75C464.068 687.537 464.685 688.155 465.472 688.155C466.102 688.155 466.624 687.758 466.807 687.195L466.82 687.2L527.932 515.604L528.1 472.747V429.89L528.212 344.233L527.932 215.662L527.763 172.861L466.82 1.65854L466.807 1.66328C466.624 1.1007 466.102 0.703674 465.472 0.703674C464.685 0.703674 464.068 1.32153 464.068 2.1079V686.75ZM527.763 172.861L527.614 210.619L523.19 200.946L522.99 160.083L527.763 172.861ZM523.158 528.379L523.307 487.632L527.734 477.953L527.932 515.604L523.158 528.379ZM523.044 528.684L522.849 488.633L518.583 497.961L518.387 541.152L523.044 528.684ZM518.268 541.469L518.075 499.071L513.864 508.279L513.67 553.777L518.268 541.469ZM513.437 554.399L513.246 509.629L509.146 518.594L508.954 566.399L513.437 554.399ZM508.495 567.629L508.305 520.433L504.427 528.911L504.237 579.025L508.495 567.629ZM503.663 580.561L503.476 530.992L499.709 539.228L499.521 591.649L503.663 580.561ZM498.721 593.791L498.534 541.797L494.99 549.545L494.803 604.276L498.721 593.791ZM493.779 607.019L493.593 552.6L490.279 559.846L490.14 616.758L493.779 607.019ZM488.892 620.098L488.753 563.181L485.56 570.163L485.422 629.386L488.892 620.098ZM483.95 633.327L483.812 573.986L480.88 580.395L480.812 641.726L483.95 633.327ZM479.008 646.555L478.939 584.64L476.237 590.546L476.204 654.061L479.008 646.555ZM474.065 659.785L474.02 595.395L471.507 600.89L471.484 666.693L474.065 659.785ZM469.01 673.315L468.988 606.397L466.876 611.014V679.028L469.01 673.315ZM468.985 600.196L466.876 604.586V535.023L468.962 531.755L468.985 600.196ZM474.015 589.728L471.509 594.945L471.532 527.728L473.969 523.909L474.015 589.728ZM478.933 579.494L476.24 585.098L476.275 520.296L478.863 516.241L478.933 579.494ZM483.801 569.363L480.886 575.43L480.955 512.961L483.742 508.595L483.783 561.55L483.801 569.363ZM488.743 559.077L485.57 565.68L485.58 561.55L485.624 505.647L488.684 500.85L488.726 551.777L488.743 559.077ZM493.581 549.01L490.288 555.862L490.298 551.777L490.342 498.253L493.515 493.281L493.556 541.835L493.581 549.01ZM498.523 538.725L495.002 546.052L495.017 541.835L495.06 490.86L498.416 485.602L498.499 532.061L498.523 538.725ZM503.466 528.438L499.72 536.234L499.735 532.061L499.778 483.466L503.316 477.923L503.466 528.438ZM508.297 518.384L504.437 526.417L504.453 522.119L504.497 476.073L508.188 470.288L508.272 512.29L508.297 518.384ZM513.24 508.097L509.154 516.6L509.171 512.29L509.215 468.679L513.13 462.544L513.215 502.348L513.24 508.097ZM518.071 498.043L513.87 506.785L513.889 502.348L513.933 461.286L517.96 454.976L518.046 492.575L518.071 498.043ZM522.847 488.103L518.588 496.968L518.607 492.575L518.651 453.893L522.735 447.494L522.82 482.633L522.847 488.103ZM527.734 477.932L523.309 487.141L523.326 482.633L523.37 446.499L527.664 439.771L527.707 472.747L527.734 477.932ZM527.664 439.753L527.595 401.622L523.42 405.576L523.37 446.129L527.664 439.753ZM522.734 447.074L522.653 406.302L518.701 410.044L518.652 453.135L522.734 447.074ZM517.958 454.165L517.878 410.823L513.983 414.512L513.934 460.141L517.958 454.165ZM513.128 461.339L513.048 415.397L509.265 418.98L509.217 467.147L513.128 461.339ZM508.185 468.679L508.106 420.078L504.546 423.448L504.498 474.153L508.185 468.679ZM503.311 475.917L503.273 462.861L503.219 424.705L499.828 427.917L499.78 481.16L503.311 475.917ZM498.411 483.193L498.333 429.333L495.11 432.385L495.062 488.166L498.411 483.193ZM493.512 490.467L493.446 433.96L490.392 436.853L490.344 495.172L493.512 490.467ZM488.682 497.641L488.616 438.535L485.673 441.321L485.626 502.178L488.682 497.641ZM483.739 504.981L483.691 443.198L480.993 445.753L480.96 509.108L483.739 504.981ZM478.858 512.229L478.804 447.826L476.312 450.186L476.277 516.062L478.858 512.229ZM473.966 519.494L473.918 452.453L471.557 454.689L471.533 523.106L473.966 519.494ZM468.96 526.927L468.937 457.17L466.876 459.122V530.022L468.96 526.927ZM468.935 453.608L466.876 455.434V383.515L468.911 382.839L468.935 453.608ZM473.916 449.193L471.558 451.283L471.581 381.953L473.867 381.195L473.916 449.193ZM478.802 444.861L476.314 447.067L476.35 380.371L478.754 379.574L478.802 444.861ZM483.689 440.529L480.994 442.918L481.018 378.822L483.64 377.952L483.689 440.529ZM488.613 436.164L485.675 438.768L485.723 377.261L488.54 376.326L488.613 436.164ZM493.444 431.881L490.394 434.585L490.441 375.695L493.37 374.723L493.444 431.881ZM498.33 427.549L495.112 430.402L495.16 374.13L498.257 373.102L498.33 427.549ZM503.217 423.217L499.83 426.22L499.878 372.564L503.143 371.48L503.217 423.217ZM508.104 418.884L504.548 422.037L504.596 370.998L508.03 369.859L508.104 418.884ZM513.047 414.502L509.266 417.854L509.315 369.433L512.973 368.219L513.047 414.502ZM517.877 410.22L513.984 413.672L514.033 367.867L517.803 366.616L517.877 410.22ZM522.652 405.987L518.702 409.489L518.751 366.302L522.577 365.032L522.652 405.987ZM527.595 401.605L523.42 405.306L523.469 364.736L527.52 363.392L527.595 401.605ZM527.52 363.375L527.482 344.233L527.507 325.104L523.457 323.977L523.494 344.233L523.469 364.527L527.52 363.375ZM522.577 364.781L522.539 344.233L522.564 323.728L518.739 322.663L518.776 344.289L518.751 365.869L522.577 364.781ZM517.802 366.139L517.765 344.289L517.79 322.399L514.021 321.35L514.058 344.233L514.033 367.211L517.802 366.139ZM512.972 367.513L512.934 344.233L512.959 321.054L509.303 320.036L509.34 344.289L509.315 368.553L512.972 367.513ZM508.029 368.919L507.992 344.289L508.016 319.678L504.585 318.722L504.621 344.289L504.597 369.895L508.029 368.919ZM503.142 370.309L503.105 344.289L503.129 318.317L499.867 317.409L499.903 344.345L499.879 371.237L503.142 370.309ZM498.255 371.699L498.218 344.345L498.243 316.956L495.149 316.095L495.185 344.289L495.161 372.579L498.255 371.699ZM493.368 373.089L493.332 344.289L493.356 315.596L490.431 314.781L490.467 344.345L490.443 373.921L493.368 373.089ZM488.538 374.463L488.501 344.345L488.525 314.251L485.725 313.471L485.749 344.289L485.725 375.263L488.538 374.463ZM483.639 375.856L483.614 344.345L483.639 312.89L481.007 312.158L481.03 344.401L481.019 376.602L483.639 375.856ZM478.752 377.246L478.728 344.401L478.74 311.526L476.345 310.86L476.369 344.401L476.351 377.929L478.752 377.246ZM473.865 378.636L473.841 344.401L473.859 310.168L471.582 309.534V379.286L473.865 378.636ZM468.91 380.046L468.91 308.79L466.876 308.223V380.624L468.91 380.046ZM468.911 306.001L466.876 305.338V233.466L468.935 235.278L468.911 306.001ZM473.861 307.613L471.581 306.871L471.558 237.587L473.897 239.646L473.861 307.613ZM478.741 309.203L476.343 308.422L476.296 241.757L478.765 243.931L478.741 309.203ZM483.64 310.799L481.005 309.941L480.957 245.86L483.689 248.265L483.64 310.799ZM488.527 312.391L485.723 311.478L485.676 250.013L488.575 252.566L488.527 312.391ZM493.357 313.965L490.429 313.011L490.357 254.134L493.406 256.818L493.357 313.965ZM498.244 315.556L495.147 314.548L495.075 258.287L498.293 261.119L498.244 315.556ZM503.131 317.148L499.865 316.085L499.793 262.44L503.18 265.421L503.131 317.148ZM508.017 318.74L504.584 317.622L504.511 266.593L508.066 269.722L508.017 318.74ZM512.96 320.351L509.302 319.159L509.229 270.746L513.009 274.073L512.96 320.351ZM517.79 321.924L514.02 320.696L513.947 274.898L517.84 278.325L517.79 321.924ZM522.565 323.479L518.738 322.233L518.665 279.051L522.614 282.527L522.565 323.479ZM527.507 325.09L523.457 323.77L523.383 283.204L527.557 286.878L527.507 325.09ZM527.557 286.862L527.595 258.519V248.694L523.302 242.345L523.382 282.932L527.557 286.862ZM522.615 282.209L522.665 241.401L518.585 235.366L518.664 278.49L522.615 282.209ZM517.841 277.714L517.89 234.339L513.867 228.388L513.946 274.048L517.841 277.714ZM513.01 273.167L513.059 227.193L509.149 221.409L509.227 269.606L513.01 273.167ZM508.068 268.514L508.117 219.882L504.432 214.431L504.509 265.164L508.068 268.514ZM503.181 263.913L503.23 212.653L499.714 207.452L499.79 260.721L503.181 263.913ZM498.294 259.313L498.343 205.424L495.006 200.489L495.073 256.28L498.294 259.313ZM493.408 254.712L493.456 198.196L490.288 193.509L490.354 251.837L493.408 254.712ZM488.577 250.165L488.625 191.05L485.626 186.614L485.674 247.431L488.577 250.165ZM483.691 245.564L483.739 183.821L480.903 179.627L480.955 242.989L483.691 245.564ZM478.766 240.928L478.802 176.519L476.247 172.739L476.293 238.6L478.766 240.928ZM473.899 236.346L473.934 169.319L471.533 165.767L471.557 234.141L473.899 236.346ZM468.937 231.674L468.96 161.961L466.876 158.878V229.734L468.937 231.674ZM468.962 157.092L466.876 153.834V84.2707L468.985 88.659L468.962 157.092ZM473.937 164.863L471.532 161.106L471.509 93.9086L473.972 99.0332L473.937 164.863ZM478.807 172.469L476.244 168.466L476.197 103.663L478.877 109.238L478.807 172.469ZM483.741 180.177L480.899 175.738L480.829 113.3L483.8 119.481L483.783 127.084L483.741 180.177ZM488.628 187.81L485.624 183.117L485.58 127.028L485.571 123.165L488.687 129.648L488.669 136.913L488.628 187.81ZM493.459 195.355L490.286 190.399L490.242 136.913L490.232 132.863L493.524 139.711L493.5 146.743L493.459 195.355ZM498.345 202.988L495.004 197.769L494.96 146.743L494.947 142.67L498.411 149.877L498.387 156.628L498.345 202.988ZM503.231 210.621L499.709 205.119L499.622 156.628L499.607 152.366L503.298 160.044L503.273 166.458L503.231 210.621ZM508.118 218.253L504.428 212.489L504.341 166.458L504.324 162.18L508.185 170.211L508.16 176.288L508.118 218.253ZM513.06 225.973L509.146 219.859L509.059 176.288L509.042 171.995L513.127 180.494L513.103 186.117L513.06 225.973ZM517.891 233.518L513.865 227.229L513.777 186.117L513.759 181.808L517.958 190.545L517.933 196.003L517.891 233.518ZM522.665 240.976L518.583 234.599L518.495 196.003L518.475 191.621L522.727 200.467L522.708 205.832L522.665 240.976ZM527.595 248.675L523.301 241.969L523.213 205.832L523.192 201.433L527.614 210.634L527.595 215.662V248.675ZM522.729 199.94L522.876 159.776L518.274 147.455L518.471 190.631L522.729 199.94ZM517.963 189.52L518.156 147.137L513.558 134.827L513.752 180.316L517.963 189.52ZM513.133 178.963L513.324 134.201L508.842 122.199L509.034 170.001L513.133 178.963ZM508.193 168.163L508.382 120.968L504.125 109.569L504.315 159.686L508.193 168.163ZM503.307 157.483L503.495 107.884L499.408 96.9393L499.596 149.371L503.307 157.483ZM498.422 146.804L498.609 94.7987L494.748 84.4614L494.935 139.18L498.422 146.804ZM493.536 136.124L493.722 81.7145L490.084 71.9735L490.223 128.88L493.536 136.124ZM488.697 125.545L488.836 68.6318L485.423 59.4933L485.561 118.689L488.697 125.545ZM483.811 114.865L483.949 55.5475L480.756 46.9967L480.824 108.335L483.811 114.865ZM478.883 104.091L478.952 42.166L476.148 34.6603L476.194 98.2126L478.883 104.091ZM473.975 93.3624L474.009 28.9325L471.484 22.1716L471.507 87.9669L473.975 93.3624ZM468.988 82.4601L469.01 15.5478L466.876 9.83313V77.8444L468.988 82.4601Z" fill="white"/>
<path fill-rule="evenodd" clip-rule="evenodd" d="M1157.89 687.967C1158.09 688.087 1158.34 688.155 1158.6 688.155C1159.33 688.155 1160 687.537 1160 686.75V2.10791C1160 1.32154 1159.38 0.703685 1158.6 0.703685C1158.33 0.703685 1158.09 0.772825 1157.88 0.894285L830.794 172.861L830.513 215.662L830.008 344.233L829.896 429.89V472.747L829.952 515.604L830.201 477.578L855.071 487.775L855.171 528.618L829.952 515.604L1157.89 687.967ZM1157.19 684.471V611.644L1134.52 602.35L1134.5 672.762L1157.19 684.471ZM1132.03 671.486L1132.02 601.322L1109.06 591.91L1109 659.603L1132.03 671.486ZM1106.86 658.501L1106.84 591L1083.76 581.539L1083.67 646.53L1106.86 658.501ZM1081.87 645.602L1081.82 580.742L1058.31 571.104L1058.17 633.371L1081.87 645.602ZM1056.7 632.616L1056.61 570.404L1032.97 560.715L1032.78 620.271L1056.7 632.616ZM1031.54 619.63L1031.39 560.067L1007.63 550.325L1007.39 607.169L1031.54 619.63ZM1006.38 606.645L1006.23 549.75L982.246 539.916L982.003 594.068L1006.38 606.645ZM981.212 593.66L981.066 539.432L956.914 529.53L956.67 580.995L981.212 593.66ZM956.105 580.704L955.958 529.138L931.527 519.122L931.282 567.894L956.105 580.704ZM930.829 567.661L930.682 518.775L906.194 508.735L905.949 554.821L930.829 567.661ZM905.722 554.704L905.574 508.481L880.808 498.326L880.561 541.72L905.722 554.704ZM880.446 541.661L880.347 498.138L855.532 487.963L855.284 528.677L880.446 541.661ZM830.794 172.861L855.9 159.903L855.652 200.717L830.844 210.877L830.794 172.861ZM855.071 487.54L830.201 477.576L830.233 472.747L830.363 439.51L855.059 446.774V482.633L855.071 487.54ZM880.346 497.667L855.534 487.726L855.565 482.633L855.695 446.961L880.335 454.208V492.575L880.346 497.667ZM905.572 507.774L880.81 497.853L880.84 492.575L880.97 454.395L905.555 461.626V502.348L905.572 507.774ZM930.679 517.833L906.198 508.025L906.228 502.348L906.358 461.863L930.663 469.011V512.29L930.679 517.833ZM955.954 527.959L931.532 518.174L931.561 512.29L931.691 469.314L955.938 476.445V522.119L955.954 527.959ZM981.062 538.019L956.919 528.346L956.949 522.119L957.078 476.781L981.046 483.83V532.061L981.062 538.019ZM1006.23 548.1L982.253 538.496L982.281 532.061L982.367 484.219L1006.21 491.232V541.835L1006.23 548.1ZM1031.39 558.182L1007.64 548.667L1007.67 541.835L1007.76 491.686L1031.37 498.633V551.777L1031.39 558.182ZM1056.6 568.284L1032.98 558.819L1033 551.777L1033.09 499.137L1056.59 506.051V561.55L1056.6 568.284ZM1081.82 578.386L1058.32 568.971L1058.42 506.588L1081.77 513.456L1081.82 578.386ZM1106.84 588.411L1083.77 579.167L1083.86 514.072L1106.81 520.822L1106.84 588.411ZM1132.01 598.498L1109.06 589.302L1109.12 521.501L1132 528.231L1132.01 598.498ZM1157.19 608.585L1134.52 599.503L1134.55 528.98L1157.19 535.64V608.585ZM1157.19 532.744V459.74L1134.57 455.701L1134.55 526.285L1157.19 532.744ZM1132 525.558L1131.99 455.24L1109.18 451.168L1109.12 519.032L1132 525.558ZM1106.81 518.373L1106.79 450.74L1083.93 446.658L1083.87 511.827L1106.81 518.373ZM1081.77 511.228L1081.74 446.267L1058.5 442.117L1058.42 504.568L1081.77 511.228ZM1056.59 504.046L1056.57 441.773L1033.19 437.597L1033.09 497.341L1056.59 504.046ZM1031.37 496.852L1031.35 437.27L1007.86 433.074L1007.76 490.115L1031.37 496.852ZM1006.21 489.673L1006.19 432.776L982.486 428.544L982.37 482.872L1006.21 489.673ZM981.046 482.494L981.027 428.283L957.209 424.03L957.081 475.658L981.046 482.494ZM955.938 475.332L955.919 423.8L931.822 419.497L931.693 468.415L955.938 475.332ZM930.663 468.121V419.29L906.508 414.977L906.36 461.188L930.663 468.121ZM905.555 460.958V414.806L881.12 410.443L880.972 453.946L905.555 460.958ZM880.335 453.764L880.353 410.306L855.845 405.93L855.696 446.735L880.335 453.764ZM855.059 446.553L855.078 405.793L830.513 401.406L830.363 439.508L855.059 446.553ZM855.078 405.574L830.513 401.404L830.663 363.294L855.103 364.829L855.078 405.574ZM880.353 409.864L855.846 405.704L855.995 364.885L880.378 366.417L880.353 409.864ZM905.555 414.142L881.122 409.995L881.27 366.473L905.555 367.999V414.142ZM930.663 418.404L906.51 414.304L906.658 368.068L930.663 369.576V418.404ZM955.919 422.691L931.824 418.601L931.947 369.657L955.894 371.161L955.919 422.691ZM981.027 426.953L957.212 422.91L957.334 371.251L981.002 372.738L981.027 426.953ZM1006.19 431.224L982.489 427.201L982.611 372.839L1006.17 374.319L1006.19 431.224ZM1031.35 435.496L1007.86 431.507L1007.96 374.432L1031.33 375.9L1031.35 435.496ZM1056.57 439.776L1033.19 435.807L1033.29 376.023L1056.55 377.484L1056.57 439.776ZM1081.74 444.048L1058.5 440.104L1058.58 377.612L1081.71 379.065L1081.74 444.048ZM1106.79 448.3L1083.93 444.42L1083.98 379.207L1106.76 380.639L1106.79 448.3ZM1131.99 452.578L1109.19 448.707L1109.25 380.795L1131.98 382.223L1131.99 452.578ZM1157.19 456.856L1134.57 453.016L1134.6 382.387L1157.19 383.807V456.856ZM1157.19 381V307.856L1134.61 309.055L1134.6 379.775L1157.19 381ZM1131.98 379.633L1131.98 309.194L1109.27 310.399L1109.28 344.401L1109.25 378.4L1131.98 379.633ZM1106.76 378.265L1106.75 344.401L1106.78 310.53L1083.99 311.739L1084 344.401L1083.98 377.03L1106.76 378.265ZM1081.71 376.907L1081.7 344.401L1081.72 311.86L1058.6 313.086L1058.62 344.289L1058.58 375.652L1081.71 376.907ZM1056.55 375.542L1056.54 344.289L1056.57 313.194L1033.33 314.427L1033.34 344.345L1033.29 374.281L1056.55 375.542ZM1031.33 374.174L1031.32 344.345L1031.37 314.531L1007.99 315.771L1008.01 344.289L1007.96 372.907L1031.33 374.174ZM1006.17 372.809L1006.15 344.289L1006.2 315.866L982.662 317.114L982.675 344.345L982.614 371.532L1006.17 372.809ZM981.002 371.445L980.99 344.345L981.051 317.2L957.386 318.455L957.398 344.289L957.337 370.161L981.002 371.445ZM955.894 370.083L955.882 344.289L955.943 318.532L932.011 319.801V344.289L931.949 368.784L955.894 370.083ZM930.663 368.715V344.289L930.724 319.87L906.734 321.142V344.233L906.66 367.413L930.663 368.715ZM905.555 367.353V344.233L905.628 321.201L881.358 322.488L881.346 344.289L881.272 366.036L905.555 367.353ZM880.378 365.987L880.391 344.289L880.465 322.536L856.082 323.829L856.07 344.233L855.995 364.665L880.378 365.987ZM855.103 364.617L855.115 344.233L855.189 323.876L830.751 325.173L830.738 344.233L830.663 363.291L855.103 364.617ZM855.19 323.663L830.751 325.17L830.776 287.065L855.339 282.921L855.19 323.663ZM880.466 322.106L856.083 323.608L856.107 282.791L880.615 278.657L880.466 322.106ZM905.63 320.555L881.358 322.051L881.383 278.528L905.778 274.412L905.63 320.555ZM930.726 319.008L906.734 320.487V274.251L930.848 270.183L930.726 319.008ZM955.945 317.454L932.011 318.929V269.987L956.067 265.929L955.945 317.454ZM981.053 315.906L957.385 317.365L957.361 265.711L981.175 261.693L981.053 315.906ZM1006.2 314.356L982.662 315.807L982.637 261.447L1006.3 257.455L1006.2 314.356ZM1031.37 312.805L1007.99 314.246L1007.97 257.174L1031.47 253.21L1031.37 312.805ZM1056.58 311.251L1033.33 312.684L1033.3 252.9L1056.65 248.962L1056.58 311.251ZM1081.73 309.701L1058.6 311.127L1058.58 248.636L1081.77 244.723L1081.73 309.701ZM1106.78 308.157L1083.99 309.562L1083.97 244.354L1106.84 240.494L1106.78 308.157ZM1131.98 306.604L1109.27 308.004L1109.24 240.09L1132.01 236.249L1131.98 306.604ZM1157.19 305.05L1134.6 306.442L1134.59 235.813L1157.19 232.001V305.05ZM1157.19 229.117V156.113L1134.58 162.546L1134.59 233.129L1157.19 229.117ZM1132.01 233.588L1132.03 163.271L1109.22 169.762L1109.24 237.629L1132.01 233.588ZM1106.85 238.054L1106.91 170.42L1083.93 176.955L1083.97 242.116L1106.85 238.054ZM1081.78 242.505L1081.84 177.553L1058.56 184.175L1058.58 246.623L1081.78 242.505ZM1056.65 246.965L1056.73 184.696L1033.28 191.367L1033.3 251.11L1056.65 246.965ZM1031.47 251.436L1031.56 191.856L1007.95 198.574L1007.97 255.607L1031.47 251.436ZM1006.3 255.903L1006.4 199.015L982.619 205.782L982.637 260.104L1006.3 255.903ZM981.178 260.363L981.294 206.159L957.342 212.973L957.36 264.591L981.178 260.363ZM956.07 264.82L956.198 213.299L932.011 220.18V269.091L956.07 264.82ZM930.851 269.297L930.979 220.474L906.734 227.372V273.578L930.851 269.297ZM905.78 273.748L905.927 227.602L881.402 234.579L881.383 278.078L905.78 273.748ZM880.616 278.215L880.764 234.761L856.126 241.771L856.108 282.565L880.616 278.215ZM855.34 282.702L855.489 241.952L830.807 248.975L830.776 287.062L855.34 282.702ZM855.489 241.732L830.807 248.973L830.851 215.662L830.844 210.879L855.65 200.951L855.621 205.832L855.489 241.732ZM880.766 234.316L856.126 241.545V205.832L856.114 200.766L880.926 190.836L880.896 196.003L880.766 234.316ZM905.929 226.933L881.402 234.129V196.003L881.39 190.65L906.089 180.766L906.06 186.117L905.929 226.933ZM930.982 219.584L906.734 226.697V186.117L906.716 180.515L931.14 170.74L931.112 176.288L930.982 219.584ZM956.201 212.185L932.011 219.282V176.288L931.993 170.399L956.359 160.647L956.331 166.458L956.201 212.185ZM981.296 204.822L957.342 211.85V166.458L957.324 160.261L981.41 150.622L981.383 156.628L981.296 204.822ZM1006.4 197.456L982.619 204.434V156.628L982.601 150.145L1006.52 140.574L1006.49 146.743L1006.4 197.456ZM1031.57 190.074L1007.95 197.002V146.743L1007.93 140.007L1031.68 130.505L1031.65 136.913L1031.57 190.074ZM1056.73 182.691L1033.28 189.57V136.913L1033.27 129.869L1056.83 120.437L1056.73 182.691ZM1081.84 175.325L1058.56 182.155V127.027L1058.55 119.751L1081.93 110.391L1081.84 175.325ZM1106.91 167.97L1083.93 174.71L1083.89 109.611L1106.97 100.372L1106.91 167.97ZM1132.03 160.599L1109.22 167.293L1109.19 99.4824L1132.06 90.3315L1132.03 160.599ZM1157.19 153.218L1134.58 159.852L1134.57 89.3271L1157.19 80.2731V153.218ZM1157.19 77.2139V4.38742L1134.56 16.0713L1134.57 86.4801L1157.19 77.2139ZM1132.06 87.5074L1132.08 17.3473L1109.17 29.1755L1109.19 96.8734L1132.06 87.5074ZM1106.97 97.7829L1107.03 30.2783L1083.84 42.2511L1083.88 107.239L1106.97 97.7829ZM1081.94 108.036L1082.03 43.1805L1058.45 55.3553L1058.54 117.617L1081.94 108.036ZM1056.84 118.316L1056.98 56.1115L1033.12 68.4304L1033.26 127.972L1056.84 118.316ZM1031.68 128.62L1031.87 69.0712L1007.78 81.5061L1007.93 138.348L1031.68 128.62ZM1006.52 138.924L1006.77 82.0313L982.452 94.5816L982.597 148.723L1006.52 138.924ZM981.416 149.207L981.66 94.9903L957.175 107.628L957.321 159.076L981.416 149.207ZM956.364 159.468L956.609 107.921L931.843 120.704L931.99 169.451L956.364 159.468ZM931.145 169.797L931.39 120.938L906.566 133.751L906.714 179.803L931.145 169.797ZM906.092 180.058L906.339 133.868L881.29 146.797L881.389 190.176L906.092 180.058ZM880.928 190.364L881.175 146.856L856.014 159.844L856.113 200.528L880.928 190.364Z" fill="white"/>
<path fill-rule="evenodd" clip-rule="evenodd" d="M925.621 687.801C925.869 688.022 926.197 688.155 926.562 688.155C927.292 688.155 927.966 687.537 927.966 686.75V2.10791C927.966 1.32154 927.348 0.703685 926.562 0.703685C926.197 0.703685 925.869 0.836527 925.621 1.05741L925.607 1.04069L731.487 172.861L731.263 215.662L730.925 344.233V472.747L731.038 515.604L731.237 477.62L745.823 487.685L745.922 528.492L731.038 515.604L925.607 687.818L925.621 687.801ZM925.157 683.689V611.433L912.712 602.846L912.688 672.892L925.157 683.689ZM910.216 670.752L910.204 601.115L897.571 592.397L897.523 659.761L910.216 670.752ZM895.387 657.911L895.351 590.866L882.397 581.927L882.301 646.581L895.387 657.911ZM880.5 645.021L880.429 580.569L867.336 571.534L867.192 633.498L880.5 645.021ZM865.726 632.229L865.582 570.324L852.108 561.026L851.915 620.27L865.726 632.229ZM850.673 619.194L850.529 559.937L836.998 550.6L836.805 607.186L850.673 619.194ZM835.789 606.306L835.644 549.665L821.883 540.169L821.641 594.056L835.789 606.306ZM820.849 593.37L820.703 539.356L806.717 529.705L806.475 580.924L820.849 593.37ZM805.908 580.433L805.762 529.046L791.609 519.279L791.366 567.841L805.908 580.433ZM790.911 567.448L790.765 518.697L776.556 508.892L776.311 554.805L790.911 567.448ZM776.084 554.609L775.936 508.464L761.448 498.467L761.202 541.723L776.084 554.609ZM761.087 541.623L760.938 498.115L746.283 488.003L746.036 528.591L761.087 541.623ZM731.487 172.861L746.427 159.925L746.178 200.78L731.587 210.836L731.487 172.861ZM745.822 487.427L731.237 477.618L731.263 472.747L731.35 439.565L745.81 446.723V482.633L745.822 487.427ZM760.937 497.593L746.285 487.739L746.316 482.633L746.403 447.016L760.92 454.201V492.575L760.937 497.593ZM775.934 507.68L761.451 497.939L761.481 492.575L761.568 454.522L775.873 461.603L775.917 502.348L775.934 507.68ZM790.761 517.653L776.56 508.101L776.591 502.348L776.677 462L790.702 468.942L790.745 512.29L790.761 517.653ZM805.758 527.739L791.614 518.226L791.644 512.29L791.73 469.451L805.699 476.365L805.742 522.119L805.758 527.739ZM820.699 537.788L806.724 528.388L806.753 522.119L806.839 476.929L820.64 483.76L820.684 532.061L820.699 537.788ZM835.64 547.837L821.89 538.589L821.919 532.061L822.005 484.436L835.581 491.155L835.624 541.835L835.64 547.837ZM850.524 557.848L837.005 548.755L837.028 541.835L837.113 491.914L850.466 498.523L850.509 551.777L850.524 557.848ZM865.577 567.972L852.115 558.918L852.138 551.777L852.223 499.392L865.519 505.973L865.562 561.55L865.577 567.972ZM880.426 577.959L867.342 569.159L867.36 561.55L867.402 506.905L880.354 513.316L880.426 577.959ZM895.349 587.997L882.401 579.288L882.498 514.377L895.314 520.72L895.349 587.997ZM910.204 597.987L897.573 589.492L897.621 521.862L910.192 528.084L910.204 597.987ZM925.157 608.045L912.713 599.675L912.737 529.344L925.157 535.492V608.045ZM925.157 532.385V459.581L912.763 455.861L912.738 526.437L925.157 532.385ZM910.191 525.217L910.179 455.086L897.671 451.332L897.623 519.197L910.191 525.217ZM895.312 518.09L895.276 450.613L882.561 446.797L882.501 511.955L895.312 518.09ZM880.351 510.925L880.316 446.123L867.47 442.268L867.404 504.724L880.351 510.925ZM865.517 503.82L865.487 441.673L852.305 437.717L852.226 497.455L865.517 503.82ZM850.464 496.611L850.434 437.155L837.214 433.188L837.116 490.218L850.464 496.611ZM835.579 489.482L835.531 432.683L822.105 428.653L822.007 482.981L835.579 489.482ZM820.639 482.326L820.59 428.199L806.939 424.102L806.841 475.718L820.639 482.326ZM805.698 475.17L805.668 423.72L791.83 419.567L791.732 468.481L805.698 475.17ZM790.701 467.987L790.671 419.219L776.777 415.05L776.678 461.271L790.701 467.987ZM775.872 460.885L775.842 414.769L761.668 410.515L761.569 454.035L775.872 460.885ZM760.92 453.724L760.901 410.285L746.503 405.964L746.403 446.771L760.92 453.724ZM745.81 446.487V405.756L731.45 401.446L731.35 439.561L745.81 446.487ZM745.81 405.537L731.45 401.442L731.55 363.31L745.81 364.816V405.537ZM760.901 409.839L746.503 405.734L746.603 364.9L760.876 366.407L760.901 409.839ZM775.842 414.1L761.669 410.058L761.768 366.502L775.817 367.985L775.842 414.1ZM790.67 418.328L776.778 414.367L776.877 368.097L790.646 369.551L790.67 418.328ZM805.667 422.604L791.832 418.659L791.93 369.687L805.643 371.135L805.667 422.604ZM820.589 426.859L806.941 422.967L807.039 371.283L820.54 372.709L820.589 426.859ZM835.53 431.119L822.107 427.292L822.205 372.884L835.481 374.287L835.53 431.119ZM850.434 435.369L837.216 431.6L837.314 374.48L850.409 375.863L850.434 435.369ZM865.487 439.661L852.307 435.903L852.38 376.071L865.463 377.453L865.487 439.661ZM880.315 443.889L867.473 440.227L867.545 377.673L880.291 379.019L880.315 443.889ZM895.275 448.155L882.563 444.53L882.611 379.264L895.239 380.598L895.275 448.155ZM910.179 452.405L897.673 448.839L897.721 380.86L910.167 382.174L910.179 452.405ZM925.157 456.676L912.763 453.142L912.788 382.451L925.157 383.757V456.676ZM925.157 380.941V307.914L912.795 309.016L912.789 379.815L925.157 380.941ZM910.167 379.576L910.173 309.249L897.729 310.358L897.747 344.401L897.723 378.442L910.167 379.576ZM895.237 378.216L895.219 344.401L895.244 310.58L882.625 311.704L882.637 344.401L882.613 377.066L895.237 378.216ZM880.29 376.854L880.278 344.401L880.302 311.911L867.572 313.045L867.584 344.289L867.548 375.694L880.29 376.854ZM865.462 375.503L865.45 344.289L865.486 313.231L852.407 314.397L852.419 344.345L852.382 374.312L865.462 375.503ZM850.409 374.132L850.397 344.345L850.433 314.573L837.341 315.739L837.365 344.289L837.316 372.94L850.409 374.132ZM835.48 372.772L835.456 344.289L835.504 315.903L822.232 317.085L822.256 344.345L822.207 371.563L835.48 372.772ZM820.539 371.411L820.515 344.345L820.564 317.234L807.078 318.436L807.09 344.289L807.041 370.182L820.539 371.411ZM805.642 370.054L805.63 344.289L805.679 318.56L791.969 319.782L791.981 344.289L791.932 368.806L805.642 370.054ZM790.645 368.688L790.633 344.289L790.682 319.897L776.916 321.123L776.928 344.233L776.878 367.434L790.645 368.688ZM775.817 367.338L775.804 344.233L775.854 321.218L761.806 322.47L761.818 344.289L761.769 366.058L775.817 367.338ZM760.876 365.977L760.863 344.289L760.913 322.549L746.653 323.82V344.233L746.603 364.676L760.876 365.977ZM745.81 364.604V344.233L745.86 323.891L731.6 325.161V344.233L731.55 363.305L745.81 364.604ZM745.86 323.679L731.6 325.156V287.029L745.96 282.96L745.86 323.679ZM760.914 322.119L746.653 323.596V282.764L761.012 278.694L760.914 322.119ZM775.855 320.57L761.805 322.026L761.781 278.477L775.953 274.461L775.855 320.57ZM790.684 319.034L776.915 320.46L776.891 274.195L790.782 270.258L790.684 319.034ZM805.681 317.48L791.968 318.901L791.944 269.929L805.778 266.009L805.681 317.48ZM820.566 315.937L807.078 317.335L807.053 265.648L820.663 261.791L820.566 315.937ZM835.506 314.389L822.231 315.765L822.182 261.36L835.603 257.557L835.506 314.389ZM850.435 312.842L837.34 314.199L837.291 257.079L850.507 253.334L850.435 312.842ZM865.488 311.282L852.406 312.638L852.382 252.803L865.56 249.068L865.488 311.282ZM880.304 309.747L867.571 311.066L867.547 248.505L880.352 244.876L880.304 309.747ZM895.245 308.198L882.624 309.506L882.6 244.239L895.293 240.642L895.245 308.198ZM910.173 306.651L897.728 307.941L897.691 239.963L910.197 236.419L910.173 306.651ZM925.157 305.099L912.794 306.38L912.782 235.686L925.157 232.18V305.099ZM925.157 229.276V156.445L912.77 162.363L912.782 232.968L925.157 229.276ZM910.198 233.739L910.222 163.58L897.654 169.585L897.69 237.471L910.198 233.739ZM895.295 238.185L895.343 170.689L882.563 176.794L882.599 241.973L895.295 238.185ZM880.354 242.643L880.413 177.822L867.516 183.983L867.546 246.464L880.354 242.643ZM865.563 247.056L865.63 184.885L852.35 191.229L852.381 250.989L865.563 247.056ZM850.51 251.547L850.588 192.071L837.241 198.448L837.29 255.492L850.51 251.547ZM835.606 255.994L835.703 199.182L822.132 205.666L822.181 260L835.606 255.994ZM820.666 260.452L820.763 206.32L807.022 212.885L807.053 264.513L820.666 260.452ZM805.781 264.893L805.878 213.432L791.913 220.104L791.943 269.021L805.781 264.893ZM790.783 269.367L790.881 220.597L776.859 227.296L776.89 273.512L790.783 269.367ZM775.955 273.791L776.053 227.681L761.762 234.509L761.781 278.02L775.955 273.791ZM761.013 278.249L761.112 234.819L746.653 241.727V282.534L761.013 278.249ZM745.96 282.74L746.059 242.011L731.6 248.919V287.025L745.96 282.74ZM746.06 241.777L731.6 248.915V215.662L731.587 210.839L746.177 201.039L746.147 205.832L746.06 241.777ZM761.113 234.346L746.653 241.484V205.832L746.641 200.727L761.229 190.927L761.2 196.003L761.113 234.346ZM776.054 226.97L761.762 234.026V196.003L761.744 190.582L776.169 180.892L776.141 186.117L776.054 226.97ZM790.883 219.65L776.859 226.573L776.815 186.117L776.797 180.47L790.997 170.931L790.97 176.288L790.883 219.65ZM805.88 212.247L791.912 219.142L791.869 176.288L791.851 170.358L805.994 160.858L805.967 166.458L805.88 212.247ZM820.765 204.899L807.021 211.684L806.978 166.458L806.96 160.208L820.878 150.859L820.852 156.628L820.765 204.899ZM835.706 197.524L822.131 204.225L822.088 156.628L822.07 150.059L835.813 140.827L835.793 146.743L835.706 197.524ZM850.591 190.176L837.24 196.766L837.197 146.743L837.179 139.909L850.697 130.829L850.677 136.913L850.591 190.176ZM865.631 182.751L852.349 189.308L852.306 136.913L852.289 129.76L865.689 120.758L865.675 127.027L865.631 182.751ZM880.417 175.452L867.514 181.821L867.472 127.027L867.454 119.572L880.512 110.801L880.417 175.452ZM895.345 168.083L882.56 174.394L882.488 109.474L895.393 100.805L895.345 168.083ZM910.223 160.738L897.652 166.944L897.616 99.3116L910.247 90.8272L910.223 160.738ZM925.157 153.366L912.769 159.481L912.757 89.1412L925.157 80.8115V153.366ZM925.157 77.4243V5.16924L912.745 15.9171L912.756 85.9712L925.157 77.4243ZM910.248 87.6999L910.272 18.0579L897.579 29.0483L897.615 96.407L910.248 87.6999ZM895.395 97.9371L895.443 30.8982L882.413 42.1797L882.485 106.835L895.395 97.9371ZM880.516 108.192L880.612 43.7395L867.305 55.2616L867.449 117.198L880.516 108.192ZM865.695 118.407L865.839 56.5312L852.139 68.3928L852.284 127.65L865.695 118.407ZM850.704 128.739L850.897 69.4689L837.03 81.4756L837.175 138.063L850.704 128.739ZM835.819 138.998L836.012 82.3567L821.92 94.5582L822.066 148.477L835.819 138.998ZM820.885 149.291L821.127 95.2449L806.811 107.641L806.957 158.89L820.885 149.291ZM806 159.55L806.243 108.132L791.702 120.724L791.848 169.303L806 159.55ZM791.002 169.886L791.247 121.117L776.648 133.758L776.795 179.678L791.002 169.886ZM776.173 180.107L776.419 133.956L761.594 146.793L761.742 190.053L776.173 180.107ZM761.232 190.404L761.479 146.892L746.541 159.827L746.64 200.462L761.232 190.404Z" fill="white"/>
<path fill-rule="evenodd" clip-rule="evenodd" d="M693.194 687.195C693.376 687.758 693.898 688.155 694.528 688.155C695.259 688.155 695.933 687.537 695.933 686.75V2.1079C695.933 1.32153 695.315 0.703674 694.528 0.703674C693.898 0.703674 693.376 1.1007 693.194 1.66329L693.18 1.65849L632.237 172.861L636.953 160.235L636.754 201.07L632.386 210.619L632.237 172.861L632.012 215.662L631.788 344.233L631.9 429.89V472.747L632.068 515.604L693.18 687.2L693.194 687.195ZM693.124 679.028V611.013L690.956 606.274L690.934 673.165L693.124 679.028ZM688.46 666.544L688.437 600.766L685.981 595.395L685.935 659.785L688.46 666.544ZM683.797 654.062L683.763 590.546L681.061 584.64L680.992 646.556L683.797 654.062ZM679.188 641.727L679.12 580.395L676.244 574.107L676.106 633.477L679.188 641.727ZM674.634 629.538L674.496 570.286L671.247 563.18L671.108 620.098L674.634 629.538ZM669.86 616.759L669.721 559.845L666.407 552.599L666.221 607.019L669.86 616.759ZM665.196 604.276L665.01 549.544L661.41 541.674L661.224 593.642L665.196 604.276ZM660.422 591.497L660.234 539.103L656.58 531.114L656.392 580.71L660.422 591.497ZM655.82 579.177L655.63 529.035L651.695 520.433L651.506 567.63L655.82 579.177ZM651.046 566.4L650.854 518.595L646.809 509.75L646.618 554.548L651.046 566.4ZM646.387 553.928L646.193 508.402L641.98 499.193L641.788 541.618L646.387 553.928ZM641.67 541.304L641.474 498.085L637.095 488.511L636.9 528.536L641.67 541.304ZM636.785 528.228L632.068 515.604L632.217 477.846L636.636 487.508L636.785 528.228ZM636.634 487.023L632.217 477.83L632.237 472.747L632.323 439.751L636.574 446.411L636.618 482.633L636.634 487.023ZM641.469 497.085L637.098 487.987L637.124 482.633L637.21 447.407L641.405 453.981L641.449 492.575L641.469 497.085ZM646.186 506.902L641.985 498.159L642.01 492.575L642.096 455.064L646.123 461.374L646.167 502.348L646.186 506.902ZM650.846 516.6L646.816 508.212L646.841 502.348L646.925 462.631L650.785 468.68L650.829 512.29L650.846 516.6ZM655.62 526.535L651.703 518.383L651.728 512.29L651.812 470.289L655.516 476.093L655.603 522.119L655.62 526.535ZM660.224 536.115L656.59 528.553L656.614 522.119L656.698 477.945L660.165 483.378L660.209 532.061L660.224 536.115ZM664.998 546.051L661.421 538.608L661.445 532.061L661.528 485.514L664.94 490.86L664.983 541.835L664.998 546.051ZM669.712 555.861L666.419 549.01L666.444 541.835L666.485 493.281L669.658 498.253L669.702 551.777L669.712 555.861ZM674.486 565.797L671.257 559.077L671.274 551.777L671.316 500.851L674.433 505.735L674.476 561.55L674.486 565.797ZM679.114 575.43L676.255 569.479L676.273 561.55L676.315 508.683L679.045 512.962L679.114 575.43ZM683.76 585.097L681.067 579.493L681.138 516.241L683.725 520.296L683.76 585.097ZM688.435 594.827L685.985 589.728L686.032 523.91L688.412 527.64L688.435 594.827ZM693.124 604.585L690.959 600.079L690.982 531.667L693.124 535.023V604.585ZM693.124 530.102V459.122L691.007 457.117L690.984 526.921L693.124 530.102ZM688.411 523.097L688.387 454.636L686.082 452.454L686.035 519.565L688.411 523.097ZM683.723 516.129L683.688 450.186L681.196 447.826L681.142 512.293L683.723 516.129ZM679.041 509.17L679.007 445.753L676.365 443.252L676.317 505.122L679.041 509.17ZM674.43 502.318L674.383 441.374L671.384 438.535L671.318 497.693L674.43 502.318ZM669.656 495.221L669.608 436.853L666.554 433.96L666.488 490.513L669.656 495.221ZM664.938 488.209L664.89 432.385L661.611 429.28L661.533 483.148L664.938 488.209ZM660.163 481.113L660.116 427.863L656.781 424.706L656.702 475.968L660.163 481.113ZM655.512 474.2L655.453 423.448L651.895 420.078L651.815 468.705L655.512 474.2ZM650.784 467.172L650.735 418.981L647.008 415.45L646.928 461.441L650.784 467.172ZM646.122 460.243L646.073 414.565L642.178 410.877L642.098 454.262L646.122 460.243ZM641.404 453.231L641.355 410.097L637.291 406.249L637.211 446.998L641.404 453.231ZM636.574 446.051L636.524 405.523L632.405 401.622L632.323 439.735L636.574 446.051ZM636.524 405.26L632.405 401.605L632.48 363.392L636.475 364.717L636.524 405.26ZM641.354 409.546L637.292 405.941L637.367 365.013L641.305 366.32L641.354 409.546ZM646.072 413.732L642.179 410.278L642.253 366.635L646.023 367.886L646.072 413.732ZM650.734 417.869L647.009 414.564L647.083 368.237L650.686 369.433L650.734 417.869ZM655.452 422.055L651.896 418.9L651.97 369.859L655.404 370.998L655.452 422.055ZM660.114 426.192L656.783 423.236L656.857 371.48L660.066 372.545L660.114 426.192ZM664.888 430.428L661.614 427.522L661.687 373.083L664.84 374.13L664.888 430.428ZM669.607 434.615L666.556 431.908L666.63 374.723L669.559 375.695L669.607 434.615ZM674.381 438.851L671.387 436.195L671.46 376.326L674.333 377.28L674.381 438.851ZM679.006 442.955L676.367 440.613L676.416 377.971L678.982 378.822L679.006 442.955ZM683.686 447.108L681.198 444.9L681.247 379.574L683.651 380.371L683.686 447.108ZM688.386 451.278L686.085 449.236L686.133 381.195L688.363 381.935L688.386 451.278ZM693.124 455.482L691.008 453.605L691.033 382.821L693.124 383.515V455.482ZM693.124 380.624V308.223L691.034 308.805V380.03L693.124 380.624ZM688.362 379.27V309.549L686.141 310.167L686.159 344.401L686.135 378.636L688.362 379.27ZM683.649 377.929L683.632 344.401L683.655 310.859L681.26 311.526L681.273 344.401L681.248 377.246L683.649 377.929ZM678.982 376.602L678.97 344.401L678.994 312.157L676.418 312.875L676.442 344.289L676.417 375.872L678.982 376.602ZM674.332 375.279L674.308 344.289L674.332 313.455L671.475 314.251L671.499 344.345L671.462 374.463L674.332 375.279ZM669.557 373.921L669.533 344.345L669.569 314.781L666.644 315.596L666.669 344.289L666.632 373.089L669.557 373.921ZM664.839 372.579L664.815 344.289L664.851 316.095L661.701 316.972L661.726 344.345L661.689 371.683L664.839 372.579ZM660.065 371.221L660.041 344.345L660.077 317.424L656.87 318.317L656.895 344.289L656.858 370.309L660.065 371.221ZM655.403 369.895L655.378 344.289L655.415 318.722L651.984 319.678L652.008 344.289L651.971 368.919L655.403 369.895ZM650.685 368.553L650.661 344.289L650.697 320.036L647.097 321.038L647.122 344.233L647.084 367.529L650.685 368.553ZM646.023 367.227L645.998 344.233L646.035 321.334L642.266 322.383L642.291 344.289L642.254 366.155L646.023 367.227ZM641.305 365.885L641.28 344.289L641.317 322.647L637.38 323.744L637.404 344.233L637.367 364.765L641.305 365.885ZM636.474 364.511L636.45 344.233L636.487 323.992L632.493 325.104L632.518 344.233L632.48 363.375L636.474 364.511ZM636.487 323.788L632.493 325.09L632.443 286.878L636.561 283.25L636.487 323.788ZM641.318 322.215L637.379 323.498L637.33 282.573L641.392 278.994L641.318 322.215ZM646.036 320.678L642.266 321.906L642.216 278.268L646.109 274.838L646.036 320.678ZM650.698 319.159L647.096 320.332L647.047 274.012L650.771 270.731L650.698 319.159ZM655.416 317.622L651.983 318.74L651.934 269.706L655.489 266.574L655.416 317.622ZM660.079 316.103L656.869 317.148L656.82 265.401L660.151 262.467L660.079 316.103ZM664.853 314.548L661.7 315.575L661.651 261.146L664.925 258.261L664.853 314.548ZM669.571 313.01L666.643 313.965L666.594 256.791L669.643 254.105L669.571 313.01ZM674.333 311.459L671.473 312.391L671.424 252.535L674.381 249.931L674.333 311.459ZM678.995 309.94L676.416 310.781L676.367 248.18L679.043 245.824L678.995 309.94ZM683.657 308.422L681.259 309.203L681.235 243.892L683.705 241.717L683.657 308.422ZM688.363 306.889L686.14 307.613L686.103 239.603L688.386 237.592L688.363 306.889ZM693.124 305.338L691.033 306.019L691.009 235.282L693.124 233.418V305.338ZM693.124 229.734V158.798L690.984 161.967L691.007 231.727L693.124 229.734ZM688.387 234.193L688.411 165.776L686.066 169.248L686.101 236.345L688.387 234.193ZM683.707 238.6L683.754 172.671L681.198 176.455L681.234 240.928L683.707 238.6ZM679.045 242.989L679.097 179.565L676.318 183.68L676.365 245.511L679.045 242.989ZM674.383 247.378L674.43 186.475L671.375 190.999L671.423 250.165L674.383 247.378ZM669.646 251.837L669.712 193.46L666.544 198.15L666.592 254.712L669.646 251.837ZM664.928 256.279L664.994 200.445L661.601 205.469L661.649 259.366L664.928 256.279ZM660.153 260.774L660.23 207.498L656.77 212.621L656.819 263.913L660.153 260.774ZM655.491 265.163L655.569 214.4L651.884 219.855L651.933 268.513L655.491 265.163ZM650.773 269.605L650.851 221.384L646.997 227.091L647.046 273.114L650.773 269.605ZM646.11 273.995L646.189 228.286L642.166 234.243L642.215 277.662L646.11 273.995ZM641.393 278.436L641.472 235.27L637.28 241.477L637.329 282.262L641.393 278.436ZM636.562 282.984L636.641 242.422L632.405 248.694V258.519L632.443 286.862L636.562 282.984ZM636.642 242.057L632.405 248.675V215.662L632.386 210.635L636.751 201.552L636.731 205.832L636.642 242.057ZM641.474 234.511L637.279 241.063L637.236 205.832L637.217 200.584L641.582 191.503L641.561 196.003L641.474 234.511ZM646.192 227.142L642.165 233.431L642.123 196.003L642.098 190.43L646.298 181.691L646.279 186.117L646.192 227.142ZM650.854 219.859L646.995 225.886L646.953 186.117L646.929 180.379L650.959 171.995L650.941 176.288L650.854 219.859ZM655.572 212.489L651.882 218.253L651.84 176.288L651.816 170.211L655.675 162.181L655.659 166.458L655.572 212.489ZM660.234 205.207L656.768 210.621L656.727 166.458L656.702 160.045L660.336 152.484L660.321 156.628L660.234 205.207ZM664.996 197.769L661.599 203.076L661.557 156.628L661.533 149.994L665.054 142.671L665.04 146.743L664.996 197.769ZM669.714 190.399L666.542 195.355L666.5 146.743L666.476 139.711L669.768 132.863L669.758 136.913L669.714 190.399ZM674.433 183.029L671.372 187.81L671.331 136.913L671.313 129.648L674.485 123.048L674.476 127.027L674.433 183.029ZM679.101 175.737L676.315 180.09L676.273 127.027L676.256 119.365L679.171 113.301L679.101 175.737ZM683.757 168.466L681.194 172.469L681.123 109.238L683.803 103.664L683.757 168.466ZM688.412 161.193L686.063 164.862L686.028 99.0338L688.435 94.0259L688.412 161.193ZM693.124 153.834L690.982 157.18L690.959 88.7762L693.124 84.271V153.834ZM693.124 77.8448V9.83195L690.934 15.6969L690.956 82.5832L693.124 77.8448ZM688.437 88.0902L688.46 22.3211L685.991 28.932L686.025 93.3631L688.437 88.0902ZM683.807 98.213L683.852 34.6594L681.049 42.1649L681.117 104.091L683.807 98.213ZM679.176 108.335L679.244 46.996L676.107 55.3967L676.245 114.743L679.176 108.335ZM674.496 118.566L674.634 59.3414L671.164 68.6312L671.303 125.546L674.496 118.566ZM669.777 128.881L669.916 71.9726L666.278 81.7137L666.464 136.124L669.777 128.881ZM665.065 139.181L665.252 84.461L661.336 94.9478L661.522 146.927L665.065 139.181ZM660.347 149.495L660.535 97.0909L656.504 107.884L656.693 157.484L660.347 149.495ZM655.685 159.687L655.875 109.569L651.618 120.967L651.807 168.163L655.685 159.687ZM650.967 170.001L651.158 122.198L646.731 134.053L646.922 178.843L650.967 170.001ZM646.304 180.193L646.498 134.675L641.9 146.988L642.093 189.399L646.304 180.193ZM641.586 190.507L641.782 147.303L637.068 159.925L637.215 200.062L641.586 190.507Z" fill="white"/>
<path d="M580 2.1079L580.281 23.5082L580.955 87.7093C581.179 116.243 581.404 144.777 581.516 173.311C581.685 201.844 581.741 230.378 581.853 258.912L581.966 344.513L581.853 430.115C581.741 458.649 581.685 487.182 581.516 515.716C581.404 544.25 581.179 572.784 580.955 601.318L580.281 665.519L580 686.919L579.719 665.519L579.045 601.318C578.82 572.784 578.595 544.25 578.483 515.716C578.315 487.182 578.258 458.649 578.146 430.115L578.034 344.513L578.146 258.912C578.258 230.378 578.315 201.844 578.483 173.311C578.595 144.777 578.82 116.243 579.045 87.7093L579.719 23.5082L580 2.1079Z" fill="white"/>
</svg>
