<svg width="599" height="422" viewBox="0 0 599 422" fill="none" xmlns="http://www.w3.org/2000/svg">
<path d="M285.732 20.1823C285.732 20.1823 285.406 20.1944 284.79 20.1702C284.162 20.1461 283.245 20.0978 282.025 20.1823C279.61 20.3151 276 20.774 271.737 22.5489C267.523 24.3239 262.597 27.4754 258.672 32.7279C256.728 35.3481 255.098 38.4876 254.108 42.0617C253.154 45.6358 252.828 49.5963 253.287 53.6776C253.806 57.7467 255.05 61.9488 257.332 65.8127C258.467 67.7446 259.807 69.6162 261.438 71.2584C263.019 72.9609 264.891 74.4582 266.992 75.6053C269.093 76.7403 271.496 77.4648 273.959 77.3561C276.398 77.2716 278.922 76.4143 280.709 74.6393C282.508 72.8643 283.401 70.2682 283.401 67.6843C283.414 65.0761 282.508 62.48 280.95 60.2824C277.811 55.8752 272.752 52.9169 267.354 51.3109C261.908 49.7291 255.931 49.6808 250.208 51.0694C247.358 51.806 244.569 52.9048 241.949 54.3538C239.329 55.8148 236.95 57.7226 234.861 59.9202C234.366 60.4998 233.799 61.019 233.364 61.6348L231.999 63.4702C231.202 64.7742 230.393 66.0783 229.778 67.5031C228.498 70.3045 227.604 73.3111 227.157 76.4022C226.348 82.5845 227.097 88.9599 229.596 94.5143C232.011 100.081 236.129 104.862 241.261 107.736C243.821 109.161 246.646 110.091 249.52 110.248C252.381 110.429 255.243 109.692 257.67 108.292C260.097 106.903 262.126 104.802 263.188 102.29C264.239 99.7668 264.227 96.893 263.309 94.3935C262.416 91.8699 260.725 89.7085 258.769 87.9698C256.801 86.2431 254.495 84.939 252.092 84.0938C247.226 82.4999 242.033 82.5845 237.397 83.8402C232.748 85.1081 228.594 87.4989 225.334 90.5659C222.086 93.6449 219.804 97.4243 218.427 101.276C215.638 109.052 216.351 116.937 218.741 122.974C221.205 129.06 225.117 133.383 228.691 136.245C232.301 139.13 235.573 140.688 237.831 141.569C238.966 142.004 239.836 142.306 240.44 142.475C241.031 142.656 241.333 142.777 241.333 142.777C241.333 142.777 241.019 142.705 240.415 142.535C239.812 142.391 238.93 142.101 237.771 141.69C235.501 140.845 232.18 139.312 228.522 136.438C224.899 133.588 220.927 129.241 218.403 123.107C215.952 117.009 215.191 109.028 217.993 101.131C219.381 97.207 221.688 93.3672 224.996 90.2157C228.304 87.0883 232.519 84.6372 237.252 83.3452C241.973 82.0653 247.262 81.9566 252.273 83.5746C254.748 84.444 257.115 85.7722 259.143 87.5472C261.16 89.3222 262.911 91.556 263.853 94.2003C264.806 96.8206 264.843 99.8513 263.732 102.52C262.609 105.188 260.496 107.362 257.972 108.823C255.448 110.272 252.466 111.045 249.496 110.863C246.525 110.706 243.603 109.753 240.971 108.279C235.706 105.333 231.504 100.443 229.041 94.7679C226.493 89.0927 225.733 82.6086 226.554 76.3177C227.013 73.1662 227.918 70.0992 229.234 67.2496C229.862 65.8006 230.695 64.4724 231.504 63.1321L232.893 61.2484C233.34 60.6085 233.919 60.0772 234.426 59.4976C236.564 57.2517 239.003 55.3077 241.671 53.8225C244.34 52.3373 247.177 51.2385 250.087 50.4778C255.919 49.065 262.005 49.1133 267.559 50.7313C273.065 52.3735 278.221 55.3801 281.47 59.9444C283.075 62.2144 284.029 64.9433 284.005 67.6722C284.005 70.389 283.063 73.13 281.131 75.0257C279.212 76.9214 276.555 77.8149 274.007 77.8874C271.435 77.984 268.924 77.2233 266.775 76.052C264.613 74.8687 262.705 73.3231 261.099 71.5965C259.433 69.906 258.081 67.9982 256.934 66.0421C254.627 62.1057 253.384 57.8313 252.877 53.7138C252.43 49.5722 252.768 45.5634 253.758 41.9409C254.772 38.3306 256.439 35.1429 258.419 32.4985C262.416 27.1977 267.415 24.0583 271.677 22.2954C275.988 20.5324 279.634 20.1219 282.049 20.0253C283.269 19.9649 284.198 20.0253 284.826 20.0736C285.406 20.1461 285.732 20.1823 285.732 20.1823Z" fill="#F7F7F7"/>
<path d="M326.051 141.002H156.751V271.578H326.051V141.002Z" fill="#F25C05"/>
<path d="M156.752 141.002L188.025 170.175H354.451L326.052 141.002H156.752Z" fill="#F25C05"/>
<path d="M156.752 141.002C159.807 141.002 229.732 140.869 326.052 140.688H326.184L326.281 140.785C335.349 150.094 344.767 159.766 354.391 169.643C354.488 169.74 354.584 169.849 354.681 169.945L355.2 170.476H354.451C286.205 170.428 225.638 170.38 188.025 170.356H187.953L187.905 170.307C168.332 151.893 157.778 141.968 156.752 141.002C157.79 141.956 168.416 151.797 188.146 170.03L188.013 169.981C225.626 169.957 286.193 169.909 354.439 169.861L354.21 170.392C354.113 170.295 354.017 170.199 353.92 170.09C344.297 160.201 334.89 150.529 325.822 141.219L326.04 141.316C229.732 141.135 159.807 141.014 156.752 141.002Z" fill="#070707"/>
<path d="M207.609 201.219C205.822 201.219 204.18 202.837 204.156 204.624C204.12 206.411 205.701 208.077 207.488 208.149C209.276 208.21 210.978 206.664 211.075 204.877C211.171 203.09 209.662 201.363 207.875 201.231" fill="#070707"/>
<path d="M247.576 201.219C245.789 201.219 244.147 202.837 244.123 204.624C244.086 206.411 245.668 208.077 247.455 208.149C249.242 208.21 250.945 206.664 251.042 204.877C251.138 203.09 249.629 201.363 247.842 201.231" fill="#070707"/>
<path d="M247.83 232.468C247.649 232.54 247.383 229.196 244.473 224.957C243.048 222.856 240.911 220.623 238.074 218.823C235.26 217.012 231.674 215.72 227.81 215.575C223.946 215.503 220.3 216.602 217.39 218.256C214.455 219.898 212.209 222.011 210.664 224.028C207.537 228.097 207.078 231.417 206.909 231.333C206.885 231.333 206.921 231.128 207.005 230.765C207.114 230.403 207.186 229.836 207.452 229.159C207.887 227.783 208.78 225.851 210.314 223.75C211.835 221.649 214.117 219.451 217.1 217.737C220.07 216.01 223.825 214.851 227.822 214.935C231.819 215.08 235.502 216.445 238.375 218.328C241.261 220.212 243.423 222.53 244.823 224.704C246.248 226.877 247.021 228.858 247.383 230.258C247.613 230.947 247.661 231.514 247.733 231.888C247.83 232.275 247.854 232.468 247.83 232.468Z" fill="#070707"/>
<path opacity="0.5" d="M157.137 142.439L187.082 180.402H326.05V170.174H188.024L157.137 142.439Z" fill="black"/>
<path d="M292.666 271.288C292.496 271.288 292.352 248.576 292.352 220.562C292.352 192.537 292.496 169.836 292.666 169.836C292.835 169.836 292.979 192.549 292.979 220.562C292.992 248.576 292.847 271.288 292.666 271.288Z" fill="#070707"/>
<path d="M319.252 241.681H304.328V258.549H319.252V241.681Z" fill="#F5F5F5"/>
<path d="M156.751 141.002L122 170.175H156.751V141.002Z" fill="#F25C05"/>
<g opacity="0.4">
<path d="M156.751 141.002L122 170.175H156.751V141.002Z" fill="black"/>
</g>
<path d="M331.049 271.578H136.393V421.715H331.049V271.578Z" fill="#F25C05"/>
<path opacity="0.3" d="M331.049 271.578H136.393V421.715H331.049V271.578Z" fill="black"/>
<path d="M282.279 420.653C282.11 420.653 281.965 387.194 281.965 345.91C281.965 304.627 282.11 271.168 282.279 271.168C282.448 271.168 282.593 304.627 282.593 345.91C282.593 387.194 282.448 420.653 282.279 420.653Z" fill="#070707"/>
<path d="M314.543 387.544H299.618V404.412H314.543V387.544Z" fill="#F5F5F5"/>
<path d="M217.885 271.977H195.776V304.011H217.885V271.977Z" fill="#070707"/>
<path d="M217.885 389.234H195.776V421.268H217.885V389.234Z" fill="#070707"/>
<path d="M329.359 271.578C329.359 271.59 329.19 271.602 328.864 271.614C328.502 271.626 328.019 271.626 327.403 271.651C326.087 271.663 324.191 271.687 321.776 271.711C316.862 271.735 309.81 271.771 301.104 271.808C283.62 271.832 259.507 271.868 232.894 271.892C206.257 271.856 182.156 271.82 164.672 271.795C155.966 271.759 148.914 271.723 144 271.699C141.585 271.675 139.701 271.651 138.373 271.638C137.757 271.626 137.274 271.614 136.912 271.602C136.586 271.59 136.417 271.578 136.417 271.566C136.417 271.554 136.586 271.542 136.912 271.53C137.274 271.518 137.757 271.518 138.373 271.494C139.689 271.482 141.585 271.457 144 271.433C148.914 271.409 155.966 271.373 164.672 271.337C182.156 271.312 206.269 271.276 232.894 271.24C259.519 271.276 283.62 271.312 301.104 271.337C309.81 271.385 316.862 271.409 321.776 271.433C324.191 271.457 326.075 271.482 327.403 271.494C328.019 271.506 328.502 271.518 328.864 271.53C329.19 271.566 329.359 271.578 329.359 271.578Z" fill="#070707"/>
<path d="M524.225 26.6528L509.861 26.7297L510.244 98.2028L524.607 98.1258L524.225 26.6528Z" fill="#F7F7F7" fill-opacity="0.08"/>
<path d="M422.618 26.8484L385.425 27.0475L385.636 66.5034L422.83 66.3043L422.618 26.8484Z" fill="#F7F7F7" fill-opacity="0.08"/>
<path d="M459.642 26.6427L422.448 26.8419L422.66 66.2977L459.853 66.0986L459.642 26.6427Z" fill="#F7F7F7" fill-opacity="0.08"/>
<path d="M385.472 37.9328C410.187 38.1385 434.972 38.0014 459.687 37.59C460.201 37.59 460.184 36.8016 459.687 36.8016C434.972 36.6645 410.187 36.7845 385.472 37.2472C385.043 37.2644 385.043 37.9328 385.472 37.9328Z" fill="#F7F7F7" fill-opacity="0.08"/>
<path d="M429.818 65.6404L362.235 66.0026L362.408 98.1569L429.99 97.7948L429.818 65.6404Z" fill="#F7F7F7" fill-opacity="0.08"/>
<path d="M497.075 65.2806L429.493 65.6426L429.665 97.7969L497.248 97.4349L497.075 65.2806Z" fill="#F7F7F7" fill-opacity="0.08"/>
<path d="M362.281 74.9549C407.17 75.4691 452.23 75.0063 497.119 74.2864C497.634 74.2693 497.617 73.498 497.119 73.498C452.23 73.2581 407.17 73.2923 362.281 74.2693C361.835 74.2864 361.835 74.9378 362.281 74.9549Z" fill="#F7F7F7" fill-opacity="0.08"/>
<path d="M598.828 98.1622H337V109.68H598.828V98.1622Z" fill="#F7F7F7" fill-opacity="0.08"/>
<path d="M390.493 103.698H379.866V143H390.493V103.698Z" fill="#F7F7F7" fill-opacity="0.08"/>
<path d="M549.157 103.698H538.53V143H549.157V103.698Z" fill="#F7F7F7" fill-opacity="0.08"/>
<path d="M538.244 7.14418e-05L523.881 0.0770264L524.408 98.3739L538.771 98.297L538.244 7.14418e-05Z" fill="#F7F7F7" fill-opacity="0.08"/>
<path d="M560.674 18.3012L538.358 18.4208L538.785 98.0867L561.101 97.9671L560.674 18.3012Z" fill="#F7F7F7" fill-opacity="0.08"/>
<path d="M560.518 33.6479C560.518 33.8536 555.513 34.0421 549.36 34.0421C543.19 34.0421 538.202 33.8707 538.202 33.6479C538.202 33.4422 543.19 33.2537 549.36 33.2537C555.531 33.2708 560.518 33.4422 560.518 33.6479Z" fill="#F7F7F7" fill-opacity="0.08"/>
<path d="M560.518 30.3056C560.518 30.5113 555.513 30.6998 549.36 30.6998C543.19 30.6998 538.202 30.5284 538.202 30.3056C538.202 30.0999 543.19 29.9114 549.36 29.9114C555.531 29.9114 560.518 30.0828 560.518 30.3056Z" fill="#F7F7F7" fill-opacity="0.08"/>
<path d="M560.518 85.9758C560.518 86.1814 555.513 86.37 549.36 86.37C543.19 86.37 538.202 86.1986 538.202 85.9758C538.202 85.7701 543.19 85.5815 549.36 85.5815C555.531 85.5987 560.518 85.7701 560.518 85.9758Z" fill="#F7F7F7" fill-opacity="0.08"/>
<path d="M560.518 82.6335C560.518 82.8392 555.513 83.0277 549.36 83.0277C543.19 83.0277 538.202 82.8563 538.202 82.6335C538.202 82.4278 543.19 82.2393 549.36 82.2393C555.531 82.2393 560.518 82.4107 560.518 82.6335Z" fill="#F7F7F7" fill-opacity="0.08"/>
<path d="M549.721 75.3321C549.516 75.3321 549.327 67.2935 549.327 57.3867C549.327 47.4799 549.499 39.4413 549.721 39.4413C549.944 39.4413 550.116 47.4799 550.116 57.3867C550.116 67.2935 549.944 75.3321 549.721 75.3321Z" fill="#F7F7F7" fill-opacity="0.08"/>
<path d="M585.065 37.8643H560.778V97.9908H585.065V37.8643Z" fill="#F7F7F7" fill-opacity="0.08"/>
<path d="M530.834 20.913C533.115 20.913 534.965 19.0636 534.965 16.7823C534.965 14.501 533.115 12.6516 530.834 12.6516C528.553 12.6516 526.703 14.501 526.703 16.7823C526.703 19.0636 528.553 20.913 530.834 20.913Z" fill="#F7F7F7" fill-opacity="0.08"/>
<path d="M532.119 28.1461H529.565V86.6271H532.119V28.1461Z" fill="#F7F7F7" fill-opacity="0.08"/>
<path d="M65.6983 313.503C71.6693 310.428 78.6842 310.023 85.3062 311.123C88.8641 311.707 92.5792 312.773 94.9923 315.445C97.4166 318.116 97.8768 322.819 95.0933 325.119C93.4434 326.489 91.1313 326.691 88.9876 326.668C83.8022 326.612 78.0556 325.692 73.9029 328.812C71.5346 330.597 69.9633 333.548 67.1462 334.424C64.3851 335.277 61.2649 333.649 59.7946 331.158C58.3243 328.666 58.2794 325.546 58.9641 322.729C58.9753 322.729 59.6936 316.601 65.6983 313.503Z" fill="#F7F7F7" fill-opacity="0.08"/>
<path d="M52.0253 287.116C55.673 292.324 62.7664 290.595 66.055 287.419C69.3435 284.243 70.7353 279.63 71.9923 275.23C74.8768 265.185 77.795 254.657 75.6513 244.421C75.0115 241.368 73.8667 238.315 71.7117 236.048C69.568 233.781 66.257 232.434 63.2378 233.231C59.6574 234.173 57.4463 237.675 55.8301 241.009C51.1049 250.796 48.6133 261.649 48.5684 272.525C48.5684 277.609 49.1632 282.929 52.0253 287.116Z" fill="#F7F7F7" fill-opacity="0.08"/>
<path d="M42.0148 294.591C45.9768 289.888 46.7288 283.03 44.9667 277.149C43.2046 271.257 39.2201 266.251 34.6296 262.166C29.2534 257.373 22.9233 253.635 16.1217 251.245C13.4504 250.302 10.622 249.561 7.80487 249.831C4.97649 250.1 2.13688 251.548 0.823706 254.051C-1.12923 257.766 0.745139 262.267 2.76541 265.948C6.32334 272.424 10.3863 278.62 14.9207 284.456C18.5684 289.147 22.7325 293.783 28.2882 295.904C33.844 298.025 39.6017 297.778 42.5536 293.929" fill="#F7F7F7" fill-opacity="0.08"/>
<path d="M51.7791 365.716C51.8465 365.716 51.9587 364.874 52.1046 363.348C52.273 361.619 52.4862 359.464 52.7332 356.883C53.0362 354.167 53.429 350.934 54.181 347.41C54.933 343.897 56.1115 340.092 57.6267 336.22C59.198 332.381 61.1061 328.891 63.3396 326.096C65.5619 323.29 68.1321 321.259 70.5565 320.091C72.9696 318.902 75.1358 318.408 76.6397 318.194C78.1549 318.037 78.9967 317.925 78.9967 317.858C78.9967 317.79 78.1549 317.779 76.5948 317.824C75.0572 317.925 72.8012 318.318 70.2534 319.474C67.6944 320.608 64.967 322.673 62.6325 325.535C60.2867 328.386 58.3114 331.955 56.7176 335.861C55.1799 339.789 54.0127 343.639 53.2944 347.23C52.576 350.811 52.2505 354.088 52.0373 356.827C51.8353 359.565 51.7567 361.787 51.7118 363.325C51.7006 364.852 51.7118 365.705 51.7791 365.716Z" fill="#F7F7F7" fill-opacity="0.08"/>
<path d="M52.2305 360.744C52.2641 360.744 52.2866 360.362 52.2978 359.644C52.2978 358.813 52.2978 357.781 52.2866 356.501C52.2754 353.774 52.2753 349.834 52.4213 344.963C52.657 335.221 53.4987 324.738 55.1262 309.945C56.6638 296.039 58.7178 279.865 60.8952 269.349C61.3666 266.958 61.8268 264.803 62.2757 262.918C62.7022 261.032 63.0614 259.405 63.4093 258.08C63.7123 256.834 63.948 255.824 64.1388 255.027C64.296 254.331 64.3633 253.95 64.3296 253.939C64.296 253.927 64.1613 254.286 63.948 254.971C63.7123 255.757 63.4093 256.756 63.0389 257.979C62.6349 259.281 62.2196 260.908 61.7482 262.783C61.2543 264.657 60.7381 266.812 60.2218 269.192C58.0668 278.721 55.7996 292.043 54.1609 306.859C52.5335 321.674 51.8039 335.165 51.7366 344.929C51.6805 349.812 51.7815 353.763 51.905 356.49C51.9835 357.769 52.0509 358.802 52.0958 359.633C52.1519 360.362 52.1968 360.744 52.2305 360.744Z" fill="#F7F7F7" fill-opacity="0.08"/>
<path d="M52.2941 334.727C52.3614 334.727 52.3502 333.56 52.2716 331.45C52.1482 329.34 51.8564 326.298 51.2615 322.561C50.633 318.834 49.7463 314.412 48.3658 309.608C47.7709 307.408 46.3567 302.145 42.9447 294.277C38.4552 283.614 32.3495 274.905 27.0407 269.506C25.7948 268.069 24.4031 267.037 23.3032 266.027C22.7308 265.544 22.2257 265.061 21.7094 264.668C21.1931 264.309 20.7105 263.973 20.2615 263.67C18.5106 262.48 17.5342 261.84 17.5005 261.896C17.3434 262.109 21.4176 264.5 26.5581 269.977C31.6761 275.432 37.6134 284.086 42.0693 294.658C44.5497 300.394 46.2894 305.5 47.5128 309.844C48.9382 314.603 49.881 318.98 50.5881 322.673C51.2615 326.365 51.6543 329.385 51.89 331.472C52.0808 333.56 52.2267 334.727 52.2941 334.727Z" fill="#F7F7F7" fill-opacity="0.08"/>
<path d="M25.4043 376.659L28.0194 412.373H73.8909L76.506 376.659H25.4043Z" fill="#F7F7F7" fill-opacity="0.08"/>
<path d="M81.9718 362.584H20.9707V376.659H81.9718V362.584Z" fill="#F7F7F7" fill-opacity="0.08"/>
<path d="M20.9707 411.015V414.91H23.844H80.9728V411.015H20.9707Z" fill="#F7F7F7" fill-opacity="0.08"/>
<path d="M26.6497 421.352L23.8438 414.483H78.784L75.5066 421.352H26.6497Z" fill="#F7F7F7" fill-opacity="0.08"/>
<path d="M75.6509 388.332C75.6621 388.343 75.5835 388.455 75.4376 388.657C75.258 388.904 75.0336 389.196 74.753 389.566C74.102 390.397 73.2041 391.541 72.0817 392.989L71.9583 393.146L71.846 392.989C70.1625 390.666 67.9177 387.557 65.2801 383.909H65.6617C63.7088 386.67 61.5314 389.757 59.1969 393.068L58.9948 393.36L58.7704 393.09C56.3797 390.251 53.7982 387.164 51.1045 383.965L51.5423 383.954C51.4076 384.123 51.2617 384.302 51.1158 384.482C48.7363 387.467 46.4355 390.352 44.2581 393.079L44.0336 393.371L43.8203 393.068C41.497 389.779 39.3196 386.693 37.3555 383.921L37.7371 383.943C34.5495 387.58 31.8446 390.655 29.7682 393.023L29.6223 393.18L29.5101 393.001C28.455 391.238 27.6245 389.824 27.0184 388.814C26.7602 388.354 26.547 387.995 26.3786 387.703C26.2327 387.445 26.1654 387.31 26.1878 387.31C26.199 387.299 26.2888 387.422 26.4572 387.669C26.648 387.95 26.8725 388.309 27.1643 388.747C27.804 389.746 28.6795 391.126 29.7794 392.866L29.5325 392.843C31.5752 390.453 34.2353 387.333 37.3667 383.662L37.5687 383.427L37.7483 383.674C39.7349 386.446 41.9235 389.51 44.2693 392.787L43.8316 392.776C45.9977 390.049 48.2986 387.153 50.6668 384.167C50.8127 383.988 50.9586 383.808 51.0933 383.64L51.3066 383.371L51.531 383.64C54.2135 386.85 56.795 389.937 59.1744 392.776L58.7479 392.799C61.1049 389.51 63.3047 386.446 65.2801 383.685L65.4709 383.416L65.6617 383.685C68.2432 387.377 70.4431 390.52 72.0929 392.866L71.8572 392.855C73.0245 391.452 73.9561 390.329 74.6407 389.521C74.9438 389.173 75.1907 388.893 75.3815 388.657C75.5498 388.421 75.6396 388.332 75.6509 388.332Z" fill="#F7F7F7" fill-opacity="0.08"/>
<path d="M77.145 376.423C77.145 376.58 65.6519 376.704 51.4651 376.704C37.2783 376.704 25.7852 376.58 25.7852 376.423C25.7852 376.266 37.2783 376.143 51.4651 376.143C65.6407 376.143 77.145 376.266 77.145 376.423Z" fill="#F7F7F7" fill-opacity="0.08"/>
</svg>
