<svg width="1280" height="627" viewBox="0 0 1280 627" fill="none" xmlns="http://www.w3.org/2000/svg">
<path d="M640.5 627C578.133 627 498.041 602.049 402.505 552.811C286.816 493.195 152.595 461.694 14.2546 461.694H-135.927V458.014H14.2546C83.2409 458.014 151.786 465.889 217.977 481.492C283.948 497.022 346.61 519.912 404.123 549.573C499.144 598.517 578.648 623.32 640.426 623.32C702.205 623.32 781.709 598.517 876.73 549.573C934.243 519.912 996.904 497.022 1062.88 481.492C1129.07 465.963 1197.61 458.014 1266.6 458.014H1416.78V461.694H1266.6C1128.26 461.694 994.036 493.195 878.348 552.811C782.959 602.049 702.867 627 640.5 627Z" fill="url(#paint0_linear_47_424)" fill-opacity="0.7"/>
<path d="M640.5 567.825C580.119 567.825 502.674 544.053 410.227 497.243C298.216 440.497 168.26 410.468 34.4062 410.468H-110.994V407.156H34.4062C101.186 407.156 167.525 414.663 231.583 429.457C295.421 444.251 356.097 466.036 411.771 494.225C503.778 540.814 580.707 564.44 640.574 564.44C700.367 564.44 777.369 540.814 869.376 494.225C925.05 466.036 985.652 444.177 1049.56 429.457C1113.62 414.663 1179.96 407.156 1246.74 407.156H1392.14V410.468H1246.74C1112.81 410.468 982.857 440.497 870.92 497.243C778.325 544.053 700.808 567.825 640.5 567.825Z" fill="url(#paint1_linear_47_424)" fill-opacity="0.7"/>
<path d="M640.5 508.651C582.178 508.651 507.308 486.129 417.949 441.601C309.689 387.652 183.999 359.169 54.4845 359.169H-86.0623V356.225H54.4845C184.441 356.225 310.572 384.855 419.273 438.952C508.191 483.259 582.693 505.707 640.5 505.707C698.381 505.707 772.809 483.259 861.727 438.952C970.428 384.855 1096.56 356.225 1226.52 356.225H1367.06V359.169H1226.52C1097 359.169 971.384 387.652 863.051 441.601C773.692 486.129 698.822 508.651 640.5 508.651Z" fill="url(#paint2_linear_47_424)" fill-opacity="0.7"/>
<path d="M640.5 449.476C584.164 449.476 511.941 428.132 425.672 385.959C321.089 334.881 199.664 307.87 74.636 307.87H-61.1302V305.294H74.636C200.106 305.294 321.898 332.378 426.848 383.604C512.75 425.556 584.679 446.827 640.574 446.827C696.469 446.827 768.397 425.556 854.299 383.604C959.249 332.378 1081.04 305.294 1206.51 305.294H1342.13V307.87H1206.36C1081.26 307.87 959.911 334.881 855.328 385.959C769.059 428.132 696.763 449.476 640.5 449.476Z" fill="url(#paint3_linear_47_424)" fill-opacity="0.7"/>
<path d="M640.5 390.375C586.223 390.375 516.501 370.209 433.32 330.465C332.415 282.257 215.33 256.717 94.6404 256.717H-36.2717V254.509H94.6404C215.624 254.509 333.077 280.049 434.277 328.478C517.163 368.075 586.517 388.167 640.5 388.167C694.483 388.167 763.837 368.075 846.723 328.478C947.923 280.122 1065.38 254.509 1186.36 254.509H1317.27V256.717H1186.36C1065.74 256.717 948.585 282.183 847.68 330.465C764.499 370.209 694.777 390.375 640.5 390.375Z" fill="url(#paint4_linear_47_424)" fill-opacity="0.7"/>
<path d="M640.5 331.201C588.282 331.201 521.134 312.212 441.043 274.823C343.815 229.412 230.995 205.418 114.792 205.418H-11.3393V203.578H114.792C231.289 203.578 344.403 227.645 441.852 273.13C521.723 310.446 588.577 329.361 640.574 329.361C692.571 329.361 759.424 310.446 839.295 273.13C936.744 227.645 1049.86 203.578 1166.35 203.578H1292.49V205.418H1166.35C1050.15 205.418 937.259 229.412 840.104 274.823C759.865 312.212 692.718 331.201 640.5 331.201Z" fill="url(#paint5_linear_47_424)" fill-opacity="0.7"/>
<path d="M640.5 272.026C590.268 272.026 525.768 254.215 448.692 219.181C355.141 176.64 246.66 154.119 134.797 154.119H13.5191V152.647H134.797C246.807 152.647 355.582 175.168 449.28 217.857C526.136 252.817 590.415 270.554 640.426 270.554C690.438 270.554 754.791 252.817 831.573 217.857C925.271 175.168 1034.05 152.647 1146.06 152.647H1267.33V154.119H1146.06C1034.27 154.119 925.712 176.64 832.161 219.181C755.232 254.289 690.732 272.026 640.5 272.026Z" fill="url(#paint6_linear_47_424)" fill-opacity="0.7"/>
<path d="M640.5 212.852C592.254 212.852 530.328 196.292 456.414 163.54C366.614 123.796 262.326 102.819 154.948 102.819H38.5248V101.715H154.948C262.473 101.715 366.908 122.765 456.855 162.509C530.622 195.114 592.474 211.674 640.5 211.674C688.526 211.674 750.378 195.114 824.145 162.509C914.092 122.692 1018.53 101.715 1126.05 101.715H1242.48V102.819H1126.05C1018.67 102.819 914.386 123.796 824.586 163.54C750.672 196.292 688.673 212.852 640.5 212.852Z" fill="url(#paint7_linear_47_424)" fill-opacity="0.7"/>
<path d="M640.5 153.751C594.313 153.751 534.961 138.368 464.063 108.045C377.94 71.1714 277.991 51.6673 175.027 51.6673H63.3833V50.9313H175.027C278.138 50.9313 378.161 70.4354 464.357 107.383C535.108 137.706 594.387 153.088 640.5 153.088C686.613 153.088 745.818 137.706 816.643 107.383C902.839 70.4354 1002.94 50.9313 1105.97 50.9313H1217.62V51.6673H1105.97C1003.01 51.6673 903.06 71.1714 816.937 108.045C746.039 138.368 686.687 153.751 640.5 153.751Z" fill="url(#paint8_linear_47_424)" fill-opacity="0.7"/>
<path d="M640.5 94.5762C596.299 94.5762 539.521 80.3714 471.785 52.4033C389.34 18.3265 293.656 0.368001 195.104 0.368001H88.3157V0H195.104C293.73 0 389.413 18.0321 471.932 52.0353C539.668 80.0034 596.372 94.2082 640.5 94.2082C684.628 94.2082 741.332 80.0034 809.068 52.0353C891.513 17.9585 987.27 0 1085.9 0H1192.68V0.368001H1085.9C987.344 0.368001 891.66 18.4001 809.215 52.4033C741.405 80.3714 684.701 94.5762 640.5 94.5762Z" fill="url(#paint9_linear_47_424)" fill-opacity="0.7"/>
<path d="M640.5 94.3555L642.339 625.16H638.661L640.5 94.3555Z" fill="url(#paint10_linear_47_424)" fill-opacity="0.7"/>
<path d="M612.185 92.6626L602.182 622.069L598.873 621.995L612.185 92.6626Z" fill="url(#paint11_linear_47_424)" fill-opacity="0.7"/>
<path d="M583.943 88.0994L562.1 613.973L559.158 613.899L583.943 88.0994Z" fill="url(#paint12_linear_47_424)" fill-opacity="0.7"/>
<path d="M555.628 81.4754L522.311 602.197L519.737 602.05L555.628 81.4754Z" fill="url(#paint13_linear_47_424)" fill-opacity="0.7"/>
<path d="M513.707 68.5218L463.033 579.233L460.827 579.013L513.707 68.5218Z" fill="url(#paint14_linear_47_424)" fill-opacity="0.7"/>
<path d="M471.859 52.1825L404.27 551.265L402.431 551.045L471.859 52.1825Z" fill="url(#paint15_linear_47_424)" fill-opacity="0.7"/>
<path d="M405.079 28.9985L311.013 510.859L309.542 510.565L405.079 28.9985Z" fill="url(#paint16_linear_47_424)" fill-opacity="0.7"/>
<path d="M336.902 12.9536L215.33 482.744L214.227 482.449L336.902 12.9536Z" fill="url(#paint17_linear_47_424)" fill-opacity="0.7"/>
<path d="M267.033 3.38562L116.704 465.816L115.969 465.595L267.033 3.38562Z" fill="url(#paint18_linear_47_424)" fill-opacity="0.7"/>
<path d="M195.104 0.147216L14.4751 459.928L14.1074 459.78L195.104 0.147216Z" fill="url(#paint19_linear_47_424)" fill-opacity="0.7"/>
<path d="M-136 459.854L88.3157 0.147209L-135.78 459.928L-136 459.854Z" fill="url(#paint20_linear_47_424)" fill-opacity="0.7"/>
<path d="M640.5 94.3555L642.339 625.16H638.661L640.5 94.3555Z" fill="url(#paint21_linear_47_424)" fill-opacity="0.7"/>
<path d="M668.815 92.6626L682.054 621.995L678.744 622.069L668.815 92.6626Z" fill="url(#paint22_linear_47_424)" fill-opacity="0.7"/>
<path d="M697.057 88.0994L721.842 613.899L718.9 613.973L697.057 88.0994Z" fill="url(#paint23_linear_47_424)" fill-opacity="0.7"/>
<path d="M725.372 81.4754L761.263 602.05L758.689 602.197L725.372 81.4754Z" fill="url(#paint24_linear_47_424)" fill-opacity="0.7"/>
<path d="M767.22 68.5218L820.173 579.013L817.967 579.233L767.22 68.5218Z" fill="url(#paint25_linear_47_424)" fill-opacity="0.7"/>
<path d="M809.141 52.1825L878.495 551.045L876.73 551.265L809.141 52.1825Z" fill="url(#paint26_linear_47_424)" fill-opacity="0.7"/>
<path d="M875.921 28.9985L971.384 510.565L969.987 510.859L875.921 28.9985Z" fill="url(#paint27_linear_47_424)" fill-opacity="0.7"/>
<path d="M944.098 12.9536L1066.7 482.449L1065.67 482.744L944.098 12.9536Z" fill="url(#paint28_linear_47_424)" fill-opacity="0.7"/>
<path d="M1013.97 3.38562L1164.96 465.595L1164.3 465.816L1013.97 3.38562Z" fill="url(#paint29_linear_47_424)" fill-opacity="0.7"/>
<path d="M1085.9 0.147216L1266.89 459.78L1266.52 459.928L1085.9 0.147216Z" fill="url(#paint30_linear_47_424)" fill-opacity="0.7"/>
<path d="M1416.78 459.928L1192.68 0.147216L1417 459.854L1416.78 459.928Z" fill="url(#paint31_linear_47_424)" fill-opacity="0.7"/>
<defs>
<linearGradient id="paint0_linear_47_424" x1="641" y1="-52.5" x2="640.5" y2="627" gradientUnits="userSpaceOnUse">
<stop stop-color="white" stop-opacity="0"/>
<stop offset="1" stop-color="white" stop-opacity="0.37"/>
</linearGradient>
<linearGradient id="paint1_linear_47_424" x1="641" y1="-52.5" x2="640.5" y2="627" gradientUnits="userSpaceOnUse">
<stop stop-color="white" stop-opacity="0"/>
<stop offset="1" stop-color="white" stop-opacity="0.37"/>
</linearGradient>
<linearGradient id="paint2_linear_47_424" x1="641" y1="-52.5" x2="640.5" y2="627" gradientUnits="userSpaceOnUse">
<stop stop-color="white" stop-opacity="0"/>
<stop offset="1" stop-color="white" stop-opacity="0.37"/>
</linearGradient>
<linearGradient id="paint3_linear_47_424" x1="641" y1="-52.5" x2="640.5" y2="627" gradientUnits="userSpaceOnUse">
<stop stop-color="white" stop-opacity="0"/>
<stop offset="1" stop-color="white" stop-opacity="0.37"/>
</linearGradient>
<linearGradient id="paint4_linear_47_424" x1="641" y1="-52.5" x2="640.5" y2="627" gradientUnits="userSpaceOnUse">
<stop stop-color="white" stop-opacity="0"/>
<stop offset="1" stop-color="white" stop-opacity="0.37"/>
</linearGradient>
<linearGradient id="paint5_linear_47_424" x1="641" y1="-52.5" x2="640.5" y2="627" gradientUnits="userSpaceOnUse">
<stop stop-color="white" stop-opacity="0"/>
<stop offset="1" stop-color="white" stop-opacity="0.37"/>
</linearGradient>
<linearGradient id="paint6_linear_47_424" x1="641" y1="-52.5" x2="640.5" y2="627" gradientUnits="userSpaceOnUse">
<stop stop-color="white" stop-opacity="0"/>
<stop offset="1" stop-color="white" stop-opacity="0.37"/>
</linearGradient>
<linearGradient id="paint7_linear_47_424" x1="641" y1="-52.5" x2="640.5" y2="627" gradientUnits="userSpaceOnUse">
<stop stop-color="white" stop-opacity="0"/>
<stop offset="1" stop-color="white" stop-opacity="0.37"/>
</linearGradient>
<linearGradient id="paint8_linear_47_424" x1="641" y1="-52.5" x2="640.5" y2="627" gradientUnits="userSpaceOnUse">
<stop stop-color="white" stop-opacity="0"/>
<stop offset="1" stop-color="white" stop-opacity="0.37"/>
</linearGradient>
<linearGradient id="paint9_linear_47_424" x1="641" y1="-52.5" x2="640.5" y2="627" gradientUnits="userSpaceOnUse">
<stop stop-color="white" stop-opacity="0"/>
<stop offset="1" stop-color="white" stop-opacity="0.37"/>
</linearGradient>
<linearGradient id="paint10_linear_47_424" x1="641" y1="-52.5" x2="640.5" y2="627" gradientUnits="userSpaceOnUse">
<stop stop-color="white" stop-opacity="0"/>
<stop offset="1" stop-color="white" stop-opacity="0.37"/>
</linearGradient>
<linearGradient id="paint11_linear_47_424" x1="641" y1="-52.5" x2="640.5" y2="627" gradientUnits="userSpaceOnUse">
<stop stop-color="white" stop-opacity="0"/>
<stop offset="1" stop-color="white" stop-opacity="0.37"/>
</linearGradient>
<linearGradient id="paint12_linear_47_424" x1="641" y1="-52.5" x2="640.5" y2="627" gradientUnits="userSpaceOnUse">
<stop stop-color="white" stop-opacity="0"/>
<stop offset="1" stop-color="white" stop-opacity="0.37"/>
</linearGradient>
<linearGradient id="paint13_linear_47_424" x1="641" y1="-52.5" x2="640.5" y2="627" gradientUnits="userSpaceOnUse">
<stop stop-color="white" stop-opacity="0"/>
<stop offset="1" stop-color="white" stop-opacity="0.37"/>
</linearGradient>
<linearGradient id="paint14_linear_47_424" x1="641" y1="-52.5" x2="640.5" y2="627" gradientUnits="userSpaceOnUse">
<stop stop-color="white" stop-opacity="0"/>
<stop offset="1" stop-color="white" stop-opacity="0.37"/>
</linearGradient>
<linearGradient id="paint15_linear_47_424" x1="641" y1="-52.5" x2="640.5" y2="627" gradientUnits="userSpaceOnUse">
<stop stop-color="white" stop-opacity="0"/>
<stop offset="1" stop-color="white" stop-opacity="0.37"/>
</linearGradient>
<linearGradient id="paint16_linear_47_424" x1="641" y1="-52.5" x2="640.5" y2="627" gradientUnits="userSpaceOnUse">
<stop stop-color="white" stop-opacity="0"/>
<stop offset="1" stop-color="white" stop-opacity="0.37"/>
</linearGradient>
<linearGradient id="paint17_linear_47_424" x1="641" y1="-52.5" x2="640.5" y2="627" gradientUnits="userSpaceOnUse">
<stop stop-color="white" stop-opacity="0"/>
<stop offset="1" stop-color="white" stop-opacity="0.37"/>
</linearGradient>
<linearGradient id="paint18_linear_47_424" x1="641" y1="-52.5" x2="640.5" y2="627" gradientUnits="userSpaceOnUse">
<stop stop-color="white" stop-opacity="0"/>
<stop offset="1" stop-color="white" stop-opacity="0.37"/>
</linearGradient>
<linearGradient id="paint19_linear_47_424" x1="641" y1="-52.5" x2="640.5" y2="627" gradientUnits="userSpaceOnUse">
<stop stop-color="white" stop-opacity="0"/>
<stop offset="1" stop-color="white" stop-opacity="0.37"/>
</linearGradient>
<linearGradient id="paint20_linear_47_424" x1="641" y1="-52.5" x2="640.5" y2="627" gradientUnits="userSpaceOnUse">
<stop stop-color="white" stop-opacity="0"/>
<stop offset="1" stop-color="white" stop-opacity="0.37"/>
</linearGradient>
<linearGradient id="paint21_linear_47_424" x1="641" y1="-52.5" x2="640.5" y2="627" gradientUnits="userSpaceOnUse">
<stop stop-color="white" stop-opacity="0"/>
<stop offset="1" stop-color="white" stop-opacity="0.37"/>
</linearGradient>
<linearGradient id="paint22_linear_47_424" x1="641" y1="-52.5" x2="640.5" y2="627" gradientUnits="userSpaceOnUse">
<stop stop-color="white" stop-opacity="0"/>
<stop offset="1" stop-color="white" stop-opacity="0.37"/>
</linearGradient>
<linearGradient id="paint23_linear_47_424" x1="641" y1="-52.5" x2="640.5" y2="627" gradientUnits="userSpaceOnUse">
<stop stop-color="white" stop-opacity="0"/>
<stop offset="1" stop-color="white" stop-opacity="0.37"/>
</linearGradient>
<linearGradient id="paint24_linear_47_424" x1="641" y1="-52.5" x2="640.5" y2="627" gradientUnits="userSpaceOnUse">
<stop stop-color="white" stop-opacity="0"/>
<stop offset="1" stop-color="white" stop-opacity="0.37"/>
</linearGradient>
<linearGradient id="paint25_linear_47_424" x1="641" y1="-52.5" x2="640.5" y2="627" gradientUnits="userSpaceOnUse">
<stop stop-color="white" stop-opacity="0"/>
<stop offset="1" stop-color="white" stop-opacity="0.37"/>
</linearGradient>
<linearGradient id="paint26_linear_47_424" x1="641" y1="-52.5" x2="640.5" y2="627" gradientUnits="userSpaceOnUse">
<stop stop-color="white" stop-opacity="0"/>
<stop offset="1" stop-color="white" stop-opacity="0.37"/>
</linearGradient>
<linearGradient id="paint27_linear_47_424" x1="641" y1="-52.5" x2="640.5" y2="627" gradientUnits="userSpaceOnUse">
<stop stop-color="white" stop-opacity="0"/>
<stop offset="1" stop-color="white" stop-opacity="0.37"/>
</linearGradient>
<linearGradient id="paint28_linear_47_424" x1="641" y1="-52.5" x2="640.5" y2="627" gradientUnits="userSpaceOnUse">
<stop stop-color="white" stop-opacity="0"/>
<stop offset="1" stop-color="white" stop-opacity="0.37"/>
</linearGradient>
<linearGradient id="paint29_linear_47_424" x1="641" y1="-52.5" x2="640.5" y2="627" gradientUnits="userSpaceOnUse">
<stop stop-color="white" stop-opacity="0"/>
<stop offset="1" stop-color="white" stop-opacity="0.37"/>
</linearGradient>
<linearGradient id="paint30_linear_47_424" x1="641" y1="-52.5" x2="640.5" y2="627" gradientUnits="userSpaceOnUse">
<stop stop-color="white" stop-opacity="0"/>
<stop offset="1" stop-color="white" stop-opacity="0.37"/>
</linearGradient>
<linearGradient id="paint31_linear_47_424" x1="641" y1="-52.5" x2="640.5" y2="627" gradientUnits="userSpaceOnUse">
<stop stop-color="white" stop-opacity="0"/>
<stop offset="1" stop-color="white" stop-opacity="0.37"/>
</linearGradient>
</defs>
</svg>
